SplineFontDB: 3.0
FontName: KacstBook
FullName: KacstBook
FamilyName: KacstBook
Weight: Medium
Copyright: KACST holds the copyright of the included Arabic font which is donated under GPL by KACST. \nURW Design and Development holds the copyright of the included Latin font which is donated under GPL by URW. 
Version: 1
ItalicAngle: 0
UnderlinePosition: -800
UnderlineWidth: 100
Ascent: 1638
Descent: 410
LayerCount: 2
Layer: 0 1 "Back" 
Layer: 1 1 "Fore" 
NeedsXUIDChange: 1
XUID: [1021 1005 2006404635 13157675]
FSType: 0
OS2Version: 2
OS2_WeightWidthSlopeOnly: 0
OS2_UseTypoMetrics: 1
CreationTime: 1163510984
ModificationTime: 1215812583
PfmFamily: 17
TTFWeight: 500
TTFWidth: 5
LineGap: 59
VLineGap: 0
Panose: 2 0 0 0 0 0 0 0 0 0
OS2TypoAscent: -38
OS2TypoAOffset: 1
OS2TypoDescent: -190
OS2TypoDOffset: 1
OS2TypoLinegap: 59
OS2WinAscent: -1
OS2WinAOffset: 1
OS2WinDescent: -25
OS2WinDOffset: 1
HheadAscent: -564
HheadAOffset: 1
HheadDescent: 425
HheadDOffset: 1
OS2SubXSize: 1434
OS2SubYSize: 1331
OS2SubXOff: 0
OS2SubYOff: 293
OS2SupXSize: 1434
OS2SupYSize: 1331
OS2SupXOff: 0
OS2SupYOff: 928
OS2StrikeYSize: 102
OS2StrikeYPos: 530
OS2Vendor: 'GLYF'
OS2CodePages: 00000040.00000000
OS2UnicodeRanges: 00002000.00000000.00000000.00000000
Lookup: 1 0 0 "'aalt' Access All Alternates in Latin lookup 0"  {"'aalt' Access All Alternates in Latin lookup 0 subtable"  } ['aalt' ('latn' <'dflt' > ) ]
Lookup: 3 0 0 "'aalt' Access All Alternates in Latin lookup 1"  {"'aalt' Access All Alternates in Latin lookup 1 subtable"  } ['aalt' ('latn' <'dflt' > ) ]
Lookup: 1 1 0 "'isol' Isolated Forms in Arabic lookup 2"  {"'isol' Isolated Forms in Arabic lookup 2 subtable"  } ['isol' ('arab' <'dflt' > ) ]
Lookup: 1 1 0 "'init' Initial Forms in Arabic lookup 3"  {"'init' Initial Forms in Arabic lookup 3 subtable"  } ['init' ('arab' <'dflt' > ) ]
Lookup: 1 1 0 "'medi' Medial Forms in Arabic lookup 4"  {"'medi' Medial Forms in Arabic lookup 4 subtable"  } ['medi' ('arab' <'dflt' > ) ]

StartChar: arabiccomma
Encoding: 1548 1548 1
Width: 403
Flags: W
LayerCount: 2
Fore
SplineSet
277 379 m 1,0,1
 239 351 239 351 207 314 c 128,-1,2
 175 277 175 277 158.5 241 c 128,-1,3
 142 205 142 205 144 174.5 c 128,-1,4
 146 144 146 144 175 130 c 1,5,-1
 177 131 l 1,6,7
 185 138 185 138 192.5 142.5 c 128,-1,8
 200 147 200 147 207 151 c 1,9,-1
 209 153 l 1,10,11
 213 155 213 155 214 156 c 1,12,13
 219 158 219 158 222.5 159.5 c 128,-1,14
 226 161 226 161 229 163 c 1,15,-1
 234 164 l 1,16,-1
 235 164 l 1,17,18
 237 165 237 165 247 165 c 0,19,20
 254 165 254 165 260 164 c 128,-1,21
 266 163 266 163 271 161 c 0,22,23
 274 160 274 160 278 158 c 1,24,25
 279 157 279 157 280 157 c 1,26,27
 283 155 283 155 285.5 153 c 128,-1,28
 288 151 288 151 291 149 c 0,29,30
 295 145 295 145 296 143 c 2,31,32
 297 142 297 142 297.5 141 c 128,-1,33
 298 140 298 140 299 139 c 256,34,35
 300 138 300 138 302 134 c 0,36,37
 305 130 305 130 309 120 c 1,38,-1
 317 82 l 1,39,-1
 317 79 l 2,40,41
 317 74 317 74 316.5 70.5 c 128,-1,42
 316 67 316 67 315 63 c 2,43,44
 315 59 315 59 313 51 c 1,45,46
 312 49 312 49 312 48 c 1,47,-1
 311 46 l 1,48,49
 311 44 311 44 310 43 c 1,50,51
 310 41 310 41 308 37 c 0,52,53
 307 35 307 35 306.5 33.5 c 128,-1,54
 306 32 306 32 305 30 c 0,55,56
 303 26 303 26 299 20 c 0,57,58
 296 14 296 14 291 9 c 0,59,60
 285 3 l 128,-1,61
 282 0 282 0 279 -2 c 0,62,63
 277 -3 277 -3 276.5 -3.5 c 128,-1,64
 276 -4 276 -4 274 -5 c 1,65,66
 272 -7 272 -7 269.5 -8.5 c 128,-1,67
 267 -10 267 -10 264 -11 c 1,68,69
 263 -12 263 -12 263 -22 c 256,70,71
 263 -32 263 -32 262 -32 c 1,72,-1
 262 -12 l 1,73,74
 260 -14 260 -14 257 -14.5 c 128,-1,75
 254 -15 254 -15 252 -16 c 1,76,77
 251 -17 251 -17 249 -17 c 1,78,-1
 244 -19 l 1,79,-1
 241 -19 l 1,80,81
 239 -20 239 -20 236 -20 c 0,82,83
 231 -21 231 -21 221 -21 c 2,84,-1
 208 -21 l 1,85,-1
 199 -19 l 2,86,87
 188 -17 188 -17 179 -13 c 2,88,-1
 173 -10 l 1,89,90
 172 -9 172 -9 168 -7 c 2,91,92
 167 -6 167 -6 163 -4 c 2,93,94
 162 -3 162 -3 161 -2.5 c 128,-1,95
 160 -2 160 -2 158 0 c 0,96,97
 140 15 140 15 128 39 c 2,98,-1
 124 50 l 1,99,-1
 124 49 l 1,100,-1
 122 52 l 1,101,102
 120 60 120 60 119 63 c 2,103,-1
 112 88 l 1,104,-1
 111 98 l 1,105,106
 110 100 110 100 110 106 c 0,107,108
 110 107 110 107 109.5 107.5 c 128,-1,109
 109 108 109 108 109 110 c 2,110,-1
 109 143 l 2,111,112
 109 148 109 148 110 151 c 1,113,-1
 110 156 l 1,114,115
 116 193 116 193 132 230 c 128,-1,116
 148 267 148 267 170 300 c 128,-1,117
 192 333 192 333 219.5 360 c 128,-1,118
 247 387 247 387 276 405 c 1,119,-1
 277 379 l 1,0,1
EndSplineSet
EndChar

StartChar: arabicsemicolon
Encoding: 1563 1563 2
Width: 852
Flags: W
LayerCount: 2
Fore
SplineSet
580 371 m 0,0,1
 580 350 580 350 572.5 330.5 c 128,-1,2
 565 311 565 311 550.5 296.5 c 128,-1,3
 536 282 536 282 515 273 c 128,-1,4
 494 264 494 264 467 264 c 0,5,6
 405 264 405 264 349 335 c 256,7,8
 293 406 293 406 293 500 c 0,9,10
 293 597 293 597 346 668 c 0,11,12
 384 721 384 721 438 749 c 1,13,-1
 469 758 l 1,14,15
 429 732 429 732 398 674 c 0,16,17
 373 618 373 618 373 561 c 0,18,19
 373 506 373 506 406 451 c 1,20,-1
 438 471 l 1,21,22
 448 475 448 475 457.5 477.5 c 128,-1,23
 467 480 467 480 475 481 c 0,24,25
 497 481 497 481 516.5 472 c 128,-1,26
 536 463 536 463 550 448 c 128,-1,27
 564 433 564 433 572 413 c 128,-1,28
 580 393 580 393 580 371 c 0,0,1
539 74 m 0,29,30
 539 56 539 56 532 40.5 c 128,-1,31
 525 25 525 25 513.5 13.5 c 128,-1,32
 502 2 502 2 486.5 -5 c 128,-1,33
 471 -12 471 -12 453 -12 c 0,34,35
 421 -12 421 -12 396 15 c 0,36,37
 371 40 371 40 371 74 c 0,38,39
 371 106 371 106 396 131 c 0,40,41
 421 158 421 158 453 158 c 0,42,43
 486 158 486 158 512 132 c 0,44,45
 539 108 539 108 539 74 c 0,29,30
EndSplineSet
EndChar

StartChar: arabicquestionmark
Encoding: 1567 1567 3
Width: 578
Flags: W
LayerCount: 2
Fore
SplineSet
567 896 m 0,0,1
 567 830 567 830 532 786 c 128,-1,2
 497 742 497 742 447 742 c 0,3,4
 410 742 410 742 385 768 c 128,-1,5
 360 794 360 794 360 830 c 0,6,7
 360 883 360 883 404 909 c 2,8,-1
 445 932 l 2,9,10
 470 951 470 951 470 982 c 0,11,12
 470 1022 470 1022 437 1048 c 128,-1,13
 404 1074 404 1074 355 1074 c 0,14,15
 292 1074 292 1074 251.5 1033.5 c 128,-1,16
 211 993 211 993 211 932 c 0,17,18
 211 876 211 876 239 830 c 2,19,-1
 301 706 l 2,20,21
 378 552 378 552 378 416 c 0,22,23
 378 388 378 388 366 305 c 1,24,-1
 336 305 l 1,25,26
 337 329 337 329 340 353 c 0,27,28
 342 374 342 374 342 380 c 0,29,30
 342 462 342 462 300 500 c 2,31,-1
 205 585 l 2,32,33
 79 699 79 699 79 842 c 0,34,35
 79 955 79 955 156 1034.5 c 128,-1,36
 233 1114 233 1114 342 1114 c 0,37,38
 438 1114 438 1114 502.5 1051 c 128,-1,39
 567 988 567 988 567 896 c 0,0,1
439 105 m 256,40,41
 439 89 439 89 396 44.5 c 128,-1,42
 353 0 353 0 338 0 c 0,43,44
 320 0 320 0 277 43 c 128,-1,45
 234 86 234 86 234 103 c 0,46,47
 234 118 234 118 279 163.5 c 128,-1,48
 324 209 324 209 341 209 c 0,49,50
 355 209 355 209 397 165 c 128,-1,51
 439 121 439 121 439 105 c 256,40,41
EndSplineSet
EndChar

StartChar: hamza
Encoding: 1569 1569 4
Width: 460
Flags: W
AnchorPoint: "ArabicBelow" 230 -233 basechar 0
AnchorPoint: "ArabicAbove" 230 649 basechar 0
LayerCount: 2
Fore
SplineSet
444 201 m 1,0,-1
 403 137 l 1,1,-1
 389 137 l 1,2,-1
 365 134 l 1,3,-1
 339 129 l 1,4,-1
 312 119 l 2,5,6
 299 116 299 116 286.5 112 c 128,-1,7
 274 108 274 108 262 103 c 2,8,-1
 219 84 l 2,9,10
 177 64 177 64 147 28 c 1,11,12
 145 22 145 22 133 17 c 1,13,-1
 133 32 l 1,14,-1
 138 66 l 1,15,16
 161 111 161 111 213 136 c 1,17,18
 171 141 171 141 143 158.5 c 128,-1,19
 115 176 115 176 111 209 c 0,20,21
 111 265 111 265 157 326 c 0,22,23
 212 399 212 399 285 399 c 0,24,25
 309 399 309 399 330 381 c 0,26,27
 352 365 352 365 352 339 c 1,28,-1
 319 282 l 1,29,30
 315 298 315 298 290 309 c 2,31,-1
 271 318 l 1,32,-1
 252 322 l 1,33,34
 225 322 225 322 197 307 c 0,35,36
 173 298 173 298 169 280 c 1,37,38
 169 257 169 257 211 227 c 1,39,40
 254 206 254 206 278 206 c 2,41,-1
 342 206 l 1,42,-1
 451 220 l 1,43,-1
 444 201 l 1,0,-1
EndSplineSet
Substitution2: "'isol' Isolated Forms in Arabic lookup 2 subtable" hamzaisolated
Substitution2: "'aalt' Access All Alternates in Latin lookup 0 subtable" hamzaisolated
EndChar

StartChar: alefwithmaddaabove
Encoding: 1570 1570 5
Width: 568
Flags: W
AnchorPoint: "ArabicBelow" 284 -265 basechar 0
AnchorPoint: "ArabicAbove" 284 1545 basechar 0
LayerCount: 2
Fore
SplineSet
567 1289 m 0,0,1
 567 1279 567 1279 550 1240 c 0,2,3
 535 1205 535 1205 507 1183 c 0,4,5
 484 1166 484 1166 451.5 1149 c 128,-1,6
 419 1132 419 1132 377 1115 c 0,7,8
 293 1093 293 1093 236 1093 c 2,9,-1
 132 1104 l 2,10,11
 117 1104 117 1104 97 1093 c 1,12,-1
 68 1070 l 1,13,-1
 48 1046 l 1,14,-1
 44 1055 l 1,15,-1
 40 1073 l 1,16,-1
 41 1093 l 1,17,-1
 48 1110 l 1,18,-1
 59 1132 l 1,19,-1
 77 1159 l 2,20,21
 117 1211 117 1211 159 1211 c 1,22,-1
 225 1198 l 1,23,-1
 285 1190 l 2,24,25
 327 1190 327 1190 370.5 1196 c 128,-1,26
 414 1202 414 1202 448 1218 c 0,27,28
 480 1230 480 1230 503 1244 c 128,-1,29
 526 1258 526 1258 545 1280 c 2,30,-1
 561 1295 l 1,31,32
 567 1295 567 1295 567 1289 c 0,0,1
267 94 m 1,33,-1
 261 69 l 2,34,35
 246 -12 246 -12 221 -15 c 0,36,37
 207 -15 207 -15 207 80 c 2,38,-1
 207 137 l 2,39,40
 207 183 207 183 203 190 c 1,41,42
 192 311 192 311 180 419 c 128,-1,43
 168 527 168 527 154 627 c 2,44,-1
 121 870 l 1,45,-1
 136 914 l 1,46,-1
 216 1050 l 1,47,-1
 216 936 l 1,48,-1
 263 452 l 2,49,50
 271 355 271 355 275.5 293.5 c 128,-1,51
 280 232 280 232 280 201 c 2,52,-1
 267 94 l 1,33,-1
EndSplineSet
Substitution2: "'fina' Terminal Forms in Arabic lookup 5 subtable" alefwithmaddaabovefinal
Substitution2: "'isol' Isolated Forms in Arabic lookup 2 subtable" alefwithmaddaaboveisolated
AlternateSubs2: "'aalt' Access All Alternates in Latin lookup 1 subtable" alefwithmaddaaboveisolated alefwithmaddaabovefinal
EndChar

StartChar: alefwithhamzaabove
Encoding: 1571 1571 6
Width: 381
Flags: W
AnchorPoint: "ArabicBelow" 190 -265 basechar 0
AnchorPoint: "ArabicAbove" 190 1649 basechar 0
LayerCount: 2
Fore
SplineSet
355 1220 m 1,0,-1
 345 1205 l 1,1,-1
 323 1177 l 1,2,-1
 309 1152 l 1,3,4
 280 1152 280 1152 231 1140 c 0,5,6
 177 1128 177 1128 147 1109 c 0,7,8
 130 1099 130 1099 112 1084.5 c 128,-1,9
 94 1070 94 1070 77 1050 c 2,10,-1
 66 1040 l 1,11,12
 60 1052 60 1052 60 1062 c 1,13,-1
 66 1090 l 2,14,15
 71 1113 71 1113 86 1128 c 128,-1,16
 101 1143 101 1143 130 1156 c 1,17,-1
 114 1158 l 1,18,-1
 96 1163 l 1,19,-1
 68 1178 l 2,20,21
 46 1194 46 1194 46 1221 c 0,22,23
 46 1269 46 1269 88 1329 c 0,24,25
 137 1399 137 1399 205 1399 c 0,26,27
 217 1399 217 1399 228.5 1395.5 c 128,-1,28
 240 1392 240 1392 250 1384.5 c 128,-1,29
 260 1377 260 1377 266 1366.5 c 128,-1,30
 272 1356 272 1356 272 1342 c 1,31,-1
 245 1289 l 1,32,33
 237 1301 237 1301 209 1311 c 0,34,35
 180 1323 180 1323 161 1326 c 1,36,37
 148 1326 148 1326 123 1313 c 0,38,39
 105 1305 105 1305 97 1287 c 1,40,41
 97 1261 97 1261 135 1238 c 1,42,-1
 170 1224 l 1,43,-1
 203 1218 l 1,44,45
 237 1218 237 1218 268.5 1221 c 128,-1,46
 300 1224 300 1224 331 1229 c 1,47,-1
 343 1229 l 1,48,-1
 360 1231 l 1,49,-1
 355 1220 l 1,0,-1
267 94 m 1,50,-1
 261 69 l 2,51,52
 246 -12 246 -12 221 -15 c 0,53,54
 207 -15 207 -15 207 80 c 2,55,-1
 207 137 l 2,56,57
 207 183 207 183 203 190 c 1,58,59
 192 311 192 311 180 419 c 128,-1,60
 168 527 168 527 154 627 c 2,61,-1
 121 870 l 1,62,-1
 136 914 l 1,63,-1
 216 1050 l 1,64,-1
 216 936 l 1,65,-1
 263 452 l 2,66,67
 272 355 272 355 275.5 293.5 c 128,-1,68
 279 232 279 232 280 201 c 1,69,-1
 267 94 l 1,50,-1
EndSplineSet
Substitution2: "'fina' Terminal Forms in Arabic lookup 5 subtable" alefwithhamzaabovefinal
Substitution2: "'isol' Isolated Forms in Arabic lookup 2 subtable" alefwithhamzaaboveisolated
AlternateSubs2: "'aalt' Access All Alternates in Latin lookup 1 subtable" alefwithhamzaaboveisolated alefwithhamzaabovefinal
EndChar

StartChar: wawwithhamzaabove
Encoding: 1572 1572 7
Width: 729
Flags: W
AnchorPoint: "ArabicBelow" 364 -614 basechar 0
AnchorPoint: "ArabicAbove" 364 1142 basechar 0
LayerCount: 2
Fore
SplineSet
650 715 m 1,0,1
 649 709 649 709 642 699 c 2,2,-1
 610 656 l 1,3,-1
 597 633 l 1,4,5
 563 633 563 633 511 621 c 0,6,7
 458 611 458 611 430 589 c 2,8,9
 385 564 385 564 352 525 c 1,10,-1
 341 516 l 1,11,12
 335 529 335 529 335 539 c 1,13,-1
 341 569 l 2,14,15
 347 590 347 590 363 609 c 1,16,-1
 382 624 l 1,17,-1
 409 636 l 1,18,-1
 369 646 l 2,19,20
 354 652 354 652 341 662 c 0,21,22
 319 678 319 678 319 706 c 0,23,24
 319 754 319 754 363 819 c 0,25,26
 415 892 415 892 487 892 c 0,27,28
 500 892 500 892 508 890 c 2,29,30
 516 890 516 890 526 883 c 0,31,32
 558 866 558 866 558 832 c 1,33,-1
 529 777 l 1,34,35
 518 794 518 794 482 806 c 2,36,-1
 441 816 l 1,37,38
 429 816 429 816 419 814 c 1,39,-1
 396 801 l 2,40,41
 375 788 375 788 374 775 c 0,42,43
 374 751 374 751 416 724 c 0,44,45
 458 704 458 704 481 704 c 2,46,-1
 650 715 l 1,0,1
719 236 m 0,47,48
 719 68 719 68 599 -139 c 0,49,50
 467 -364 467 -364 313 -364 c 2,51,-1
 274 -361 l 1,52,-1
 231 -351 l 2,53,54
 208 -345 208 -345 182 -334 c 128,-1,55
 156 -323 156 -323 127 -307 c 0,56,57
 12 -253 12 -253 12 -229 c 0,58,59
 12 -220 12 -220 23 -220 c 1,60,-1
 181 -260 l 1,61,-1
 226 -267 l 1,62,63
 342 -267 342 -267 485 -132 c 0,64,65
 584 -36 584 -36 666 106 c 1,66,-1
 643 181 l 1,67,68
 630 157 630 157 617 139 c 128,-1,69
 604 121 604 121 584 110 c 0,70,71
 555 90 555 90 526 90 c 0,72,73
 484 90 484 90 450 135 c 0,74,75
 414 181 414 181 414 232 c 2,76,-1
 417 274 l 2,77,78
 419 284 419 284 421.5 295 c 128,-1,79
 424 306 424 306 428 319 c 0,80,81
 441 359 441 359 474 417 c 0,82,83
 533 521 533 521 571 521 c 0,84,85
 608 521 608 521 661 444 c 0,86,87
 719 347 719 347 719 236 c 0,47,48
630 261 m 1,88,89
 624 315 624 315 602.5 344.5 c 128,-1,90
 581 374 581 374 549 377 c 0,91,92
 504 377 504 377 483 289 c 1,93,94
 486 269 486 269 516 245 c 1,95,-1
 537 235 l 2,96,97
 548 231 548 231 557.5 229 c 128,-1,98
 567 227 567 227 580 227 c 0,99,100
 617 227 617 227 630 261 c 1,88,89
EndSplineSet
Substitution2: "'fina' Terminal Forms in Arabic lookup 5 subtable" wawwithhamzaabovefinal
Substitution2: "'isol' Isolated Forms in Arabic lookup 2 subtable" wawwithhamzaaboveisolated
AlternateSubs2: "'aalt' Access All Alternates in Latin lookup 1 subtable" wawwithhamzaaboveisolated wawwithhamzaabovefinal
EndChar

StartChar: alefwithhamzabelow
Encoding: 1573 1573 8
Width: 390
Flags: W
AnchorPoint: "ArabicBelow" 195 -694 basechar 0
AnchorPoint: "ArabicAbove" 195 1300 basechar 0
LayerCount: 2
Fore
SplineSet
267 94 m 1,0,-1
 261 69 l 2,1,2
 246 -12 246 -12 221 -15 c 0,3,4
 207 -15 207 -15 207 80 c 2,5,-1
 207 137 l 2,6,7
 207 183 207 183 203 190 c 1,8,9
 192 311 192 311 180 419 c 128,-1,10
 168 527 168 527 154 627 c 2,11,-1
 121 870 l 1,12,-1
 136 914 l 1,13,-1
 216 1050 l 1,14,-1
 216 936 l 1,15,-1
 263 452 l 2,16,17
 272 355 272 355 275.5 293.5 c 128,-1,18
 279 232 279 232 280 201 c 1,19,-1
 267 94 l 1,0,-1
369 -262 m 1,20,-1
 358 -279 l 1,21,-1
 336 -309 l 1,22,-1
 322 -333 l 1,23,-1
 302 -333 l 2,24,25
 293 -333 293 -333 283 -335 c 2,26,-1
 240 -346 l 2,27,28
 197 -355 197 -355 161 -373 c 2,29,-1
 132 -390 l 1,30,-1
 110 -410 l 1,31,-1
 79 -444 l 1,32,33
 65 -441 65 -441 60 -421 c 1,34,35
 60 -377 60 -377 161 -329 c 1,36,37
 139 -326 139 -326 124 -321 c 2,38,-1
 109 -316 l 1,39,-1
 91 -307 l 2,40,41
 59 -292 59 -292 59 -263 c 0,42,43
 59 -214 59 -214 100 -155 c 0,44,45
 149 -86 149 -86 218 -86 c 0,46,47
 246 -86 246 -86 263.5 -98.5 c 128,-1,48
 281 -111 281 -111 285 -143 c 1,49,-1
 258 -196 l 1,50,51
 249 -181 249 -181 218 -168 c 1,52,-1
 174 -159 l 1,53,54
 165 -159 165 -159 135 -170 c 1,55,-1
 120 -180 l 1,56,57
 115 -185 115 -185 110 -197 c 1,58,59
 110 -224 110 -224 148 -247 c 0,60,61
 160 -255 160 -255 183 -260 c 2,62,-1
 216 -267 l 1,63,-1
 271 -264 l 1,64,-1
 344 -256 l 1,65,-1
 356 -256 l 1,66,-1
 373 -254 l 1,67,-1
 369 -262 l 1,20,-1
EndSplineSet
Substitution2: "'fina' Terminal Forms in Arabic lookup 5 subtable" alefwithhamzabelowfinal
Substitution2: "'isol' Isolated Forms in Arabic lookup 2 subtable" alefwithhamzabelowisolated
AlternateSubs2: "'aalt' Access All Alternates in Latin lookup 1 subtable" alefwithhamzabelowisolated alefwithhamzabelowfinal
EndChar

StartChar: yehwithhamzaabove
Encoding: 1574 1574 9
Width: 1189
Flags: W
AnchorPoint: "ArabicBelow" 594 -601 basechar 0
AnchorPoint: "ArabicAbove" 594 980 basechar 0
LayerCount: 2
Fore
SplineSet
440 534 m 1,0,-1
 430 516 l 1,1,-1
 399 469 l 1,2,3
 373 469 373 469 311 452 c 2,4,-1
 246 427 l 1,5,-1
 226 417 l 2,6,7
 187 398 187 398 156 361 c 1,8,9
 153 354 153 354 141 350 c 1,10,11
 141 365 141 365 147 397 c 1,12,13
 165 441 165 441 218 467 c 1,14,15
 184 471 184 471 151 492 c 0,16,17
 120 511 120 511 120 540 c 0,18,19
 120 591 120 591 165 657 c 0,20,21
 217 730 217 730 286 730 c 0,22,23
 314 730 314 730 331.5 713 c 128,-1,24
 349 696 349 696 352 670 c 1,25,-1
 345 657 l 1,26,-1
 341 644 l 1,27,-1
 321 613 l 1,28,29
 315 628 315 628 292 640 c 0,30,31
 270 653 270 653 255 653 c 2,32,-1
 229 650 l 2,33,34
 220 649 220 649 204 639 c 0,35,36
 185 630 185 630 178 611 c 1,37,38
 178 586 178 586 216 560 c 2,39,-1
 243 546 l 2,40,41
 263 538 263 538 283 537 c 2,42,-1
 343 537 l 1,43,-1
 447 551 l 1,44,-1
 440 534 l 1,0,-1
1114 579 m 2,45,46
 1114 550 1114 550 1104 519 c 2,47,-1
 1095 492 l 1,48,49
 1071 503 1071 503 1048 510 c 2,50,-1
 1030 515 l 1,51,-1
 1000 519 l 2,52,53
 907 519 907 519 801 428 c 256,54,55
 695 337 695 337 695 258 c 0,56,57
 695 218 695 218 752 194 c 0,58,59
 815 174 815 174 896 174 c 0,60,61
 1000 174 1000 174 1044 144 c 0,62,63
 1073 121 1073 121 1073 80 c 0,64,65
 1073 -10 1073 -10 1041 -66 c 0,66,67
 1011 -122 1011 -122 917 -186 c 0,68,69
 809 -260 809 -260 677 -305 c 0,70,71
 545 -351 545 -351 408 -351 c 0,72,73
 269 -351 269 -351 183 -283 c 0,74,75
 88 -208 88 -208 88 -75 c 0,76,77
 88 38 88 38 154 185 c 0,78,79
 211 309 211 309 239 309 c 0,80,81
 244 309 244 309 249 298 c 1,82,83
 229 246 229 246 215 209.5 c 128,-1,84
 201 173 201 173 192 146 c 0,85,86
 168 74 168 74 168 22 c 0,87,88
 168 -107 168 -107 273 -167 c 0,89,90
 351 -212 351 -212 507 -212 c 0,91,92
 630 -212 630 -212 816 -128 c 0,93,94
 1002 -46 1002 -46 1002 -5 c 1,95,96
 988 22 988 22 969 35 c 1,97,-1
 931 39 l 1,98,-1
 863 42 l 2,99,100
 741 42 741 42 678 71 c 0,101,102
 653 84 653 84 636 114 c 1,103,104
 622 150 622 150 622 187 c 0,105,106
 622 319 622 319 764 494 c 256,107,108
 906 669 906 669 1015 669 c 2,109,-1
 1050 669 l 1,110,-1
 1075 666 l 1,111,112
 1114 654 1114 654 1114 613 c 2,113,-1
 1114 579 l 2,45,46
EndSplineSet
Substitution2: "'fina' Terminal Forms in Arabic lookup 5 subtable" yehwithhamzaabovefinal
Substitution2: "'medi' Medial Forms in Arabic lookup 4 subtable" yehwithhamzaabovemedial
Substitution2: "'init' Initial Forms in Arabic lookup 3 subtable" yehwithhamzaaboveinitial
Substitution2: "'isol' Isolated Forms in Arabic lookup 2 subtable" yehwithhamzaaboveisolated
AlternateSubs2: "'aalt' Access All Alternates in Latin lookup 1 subtable" yehwithhamzaaboveisolated yehwithhamzaaboveinitial yehwithhamzaabovemedial yehwithhamzaabovefinal
EndChar

StartChar: arabicalef
Encoding: 1575 1575 10
Width: 310
Flags: W
AnchorPoint: "ArabicBelow" 155 -265 basechar 0
AnchorPoint: "ArabicAbove" 155 1300 basechar 0
LayerCount: 2
Fore
SplineSet
267 94 m 2,0,1
 255 34 255 34 244.5 10.5 c 128,-1,2
 234 -13 234 -13 221 -15 c 1,3,4
 207 -15 207 -15 207 80 c 2,5,-1
 207 132 l 2,6,7
 207 163 207 163 206 171.5 c 128,-1,8
 205 180 205 180 203 183 c 1,9,10
 192 304 192 304 180 415.5 c 128,-1,11
 168 527 168 527 154 627 c 2,12,-1
 121 870 l 1,13,-1
 136 914 l 1,14,-1
 216 1050 l 1,15,-1
 216 936 l 1,16,-1
 263 452 l 2,17,18
 272 355 272 355 275.5 293.5 c 128,-1,19
 279 232 279 232 280 201 c 1,20,-1
 267 94 l 2,0,1
EndSplineSet
Substitution2: "'fina' Terminal Forms in Arabic lookup 5 subtable" aleffinal
Substitution2: "'isol' Isolated Forms in Arabic lookup 2 subtable" alefisolated
AlternateSubs2: "'aalt' Access All Alternates in Latin lookup 1 subtable" alefisolated aleffinal
EndChar

StartChar: beh
Encoding: 1576 1576 11
Width: 1333
Flags: W
AnchorPoint: "ArabicBelow" 666 -753 basechar 0
AnchorPoint: "ArabicAbove" 666 824 basechar 0
LayerCount: 2
Fore
SplineSet
1313 353 m 0,0,1
 1313 313 1313 313 1281 228 c 0,2,3
 1250 149 1250 149 1211 123 c 0,4,5
 1169 100 1169 100 1096.5 75.5 c 128,-1,6
 1024 51 1024 51 919 25 c 0,7,8
 822 1 822 1 730 -10.5 c 128,-1,9
 638 -22 638 -22 541 -22 c 0,10,11
 358 -22 358 -22 232 29 c 0,12,13
 82 92 82 92 82 225 c 0,14,15
 82 279 82 279 92 315 c 0,16,17
 97 341 97 341 104 360.5 c 128,-1,18
 111 380 111 380 125 408 c 0,19,20
 165 486 165 486 197 486 c 1,21,-1
 199 450 l 1,22,-1
 154 340 l 1,23,24
 154 233 154 233 276 174 c 2,25,-1
 334 154 l 1,26,-1
 405 136 l 2,27,28
 453 129 453 129 494.5 126 c 128,-1,29
 536 123 536 123 574 123 c 0,30,31
 803 123 803 123 1022 180 c 0,32,33
 1240 237 1240 237 1245 272 c 1,34,-1
 1245 287 l 1,35,-1
 1240 311 l 1,36,37
 1240 323 1240 323 1225 344 c 1,38,-1
 1215 366 l 1,39,-1
 1199 396 l 2,40,41
 1193 408 1193 408 1178 426 c 1,42,-1
 1242 574 l 1,43,44
 1313 467 1313 467 1313 353 c 0,0,1
801 -503 m 1,45,-1
 671 -411 l 1,46,-1
 761 -285 l 1,47,-1
 881 -380 l 1,48,-1
 801 -503 l 1,45,-1
EndSplineSet
Substitution2: "'fina' Terminal Forms in Arabic lookup 5 subtable" behfinal
Substitution2: "'medi' Medial Forms in Arabic lookup 4 subtable" behmedial
Substitution2: "'init' Initial Forms in Arabic lookup 3 subtable" behinitial
Substitution2: "'isol' Isolated Forms in Arabic lookup 2 subtable" behisolated
AlternateSubs2: "'aalt' Access All Alternates in Latin lookup 1 subtable" behisolated behinitial behmedial behfinal
EndChar

StartChar: tehmarbuta
Encoding: 1577 1577 12
Width: 468
Flags: W
AnchorPoint: "ArabicBelow" 234 -248 basechar 0
AnchorPoint: "ArabicAbove" 234 1150 basechar 0
LayerCount: 2
Fore
SplineSet
357 697 m 1,0,-1
 320 728 l 1,1,-1
 284 754 l 1,2,-1
 251 775 l 1,3,-1
 229 742 l 1,4,-1
 188 671 l 1,5,-1
 62 766 l 1,6,-1
 135 880 l 1,7,-1
 157 861 l 1,8,-1
 176 847 l 2,9,10
 195 832 195 832 213 819.5 c 128,-1,11
 231 807 231 807 248 797 c 1,12,-1
 311 900 l 1,13,-1
 435 814 l 1,14,-1
 357 697 l 1,0,-1
453 276 m 0,15,16
 453 194 453 194 427 128 c 0,17,18
 404 72 404 72 344 37 c 0,19,20
 282 2 282 2 210 2 c 0,21,22
 126 2 126 2 99 44 c 2,23,-1
 91 61 l 1,24,-1
 86 77 l 1,25,-1
 86 89 l 1,26,-1
 84 108 l 2,27,28
 84 158 84 158 106 218 c 128,-1,29
 128 278 128 278 179 364 c 0,30,31
 262 507 262 507 280 507 c 0,32,33
 318 507 318 507 382 437 c 0,34,35
 453 360 453 360 453 276 c 0,15,16
391 197 m 0,36,37
 391 210 391 210 386 232 c 1,38,-1
 377 255 l 1,39,-1
 360 282 l 1,40,-1
 337 305 l 2,41,42
 329 313 329 313 320.5 319.5 c 128,-1,43
 312 326 312 326 302 333 c 1,44,-1
 296 335 l 1,45,-1
 267 355 l 1,46,-1
 223 308 l 2,47,48
 212 295 212 295 203.5 284 c 128,-1,49
 195 273 195 273 190 265 c 0,50,51
 165 222 165 222 165 199 c 0,52,53
 165 189 165 189 172 176 c 1,54,-1
 180 167 l 1,55,-1
 199 154 l 1,56,-1
 225 149 l 1,57,-1
 247 146 l 1,58,-1
 292 149 l 2,59,60
 305 150 305 150 314 154 c 2,61,-1
 342 166 l 2,62,63
 390 184 390 184 391 197 c 0,36,37
EndSplineSet
Substitution2: "'fina' Terminal Forms in Arabic lookup 5 subtable" tehmarbutafinal
Substitution2: "'isol' Isolated Forms in Arabic lookup 2 subtable" tehmarbutaisolated
AlternateSubs2: "'aalt' Access All Alternates in Latin lookup 1 subtable" tehmarbutaisolated tehmarbutafinal
EndChar

StartChar: teh
Encoding: 1578 1578 13
Width: 1325
Flags: W
AnchorPoint: "ArabicBelow" 662 -272 basechar 0
AnchorPoint: "ArabicAbove" 662 969 basechar 0
LayerCount: 2
Fore
SplineSet
808 516 m 1,0,-1
 772 547 l 2,1,2
 762 555 762 555 753.5 561 c 128,-1,3
 745 567 745 567 738 571 c 2,4,-1
 702 594 l 1,5,-1
 640 490 l 1,6,-1
 514 585 l 1,7,-1
 587 699 l 1,8,9
 617 672 617 672 627 666 c 0,10,11
 648 650 648 650 665.5 638 c 128,-1,12
 683 626 683 626 697 618 c 1,13,-1
 739 680 l 1,14,15
 742 689 742 689 763 719 c 1,16,-1
 887 633 l 1,17,-1
 808 516 l 1,0,-1
1313 353 m 0,18,19
 1313 313 1313 313 1281 228 c 0,20,21
 1250 149 1250 149 1211 123 c 0,22,23
 1169 100 1169 100 1096.5 75.5 c 128,-1,24
 1024 51 1024 51 919 25 c 0,25,26
 822 1 822 1 730 -10.5 c 128,-1,27
 638 -22 638 -22 541 -22 c 0,28,29
 358 -22 358 -22 232 29 c 0,30,31
 82 92 82 92 82 225 c 0,32,33
 82 279 82 279 92 315 c 0,34,35
 97 341 97 341 104 360.5 c 128,-1,36
 111 380 111 380 125 408 c 0,37,38
 165 486 165 486 197 486 c 1,39,-1
 199 450 l 1,40,-1
 154 340 l 1,41,42
 154 233 154 233 276 174 c 2,43,-1
 334 154 l 1,44,-1
 405 136 l 2,45,46
 453 129 453 129 494.5 126 c 128,-1,47
 536 123 536 123 574 123 c 0,48,49
 803 123 803 123 1022 180 c 0,50,51
 1240 237 1240 237 1245 272 c 1,52,-1
 1245 287 l 1,53,-1
 1240 311 l 1,54,55
 1240 323 1240 323 1225 344 c 1,56,-1
 1215 366 l 1,57,-1
 1199 396 l 2,58,59
 1193 408 1193 408 1178 426 c 1,60,-1
 1242 574 l 1,61,62
 1313 467 1313 467 1313 353 c 0,18,19
EndSplineSet
Substitution2: "'fina' Terminal Forms in Arabic lookup 5 subtable" tehfinal
Substitution2: "'medi' Medial Forms in Arabic lookup 4 subtable" tehmedial
Substitution2: "'init' Initial Forms in Arabic lookup 3 subtable" tehinitial
Substitution2: "'isol' Isolated Forms in Arabic lookup 2 subtable" tehisolated
AlternateSubs2: "'aalt' Access All Alternates in Latin lookup 1 subtable" tehisolated tehinitial tehmedial tehfinal
EndChar

StartChar: theh
Encoding: 1579 1579 14
Width: 1337
Flags: W
AnchorPoint: "ArabicBelow" 668 -272 basechar 0
AnchorPoint: "ArabicAbove" 668 1168 basechar 0
LayerCount: 2
Fore
SplineSet
688 715 m 1,0,-1
 565 799 l 1,1,-1
 647 918 l 1,2,-1
 761 830 l 1,3,-1
 688 715 l 1,0,-1
808 516 m 1,4,-1
 772 547 l 2,5,6
 762 555 762 555 753.5 561 c 128,-1,7
 745 567 745 567 738 571 c 2,8,-1
 702 594 l 1,9,-1
 640 490 l 1,10,-1
 514 585 l 1,11,-1
 587 699 l 1,12,13
 617 672 617 672 627 666 c 0,14,15
 648 650 648 650 665.5 638 c 128,-1,16
 683 626 683 626 697 618 c 1,17,-1
 739 680 l 1,18,19
 742 689 742 689 763 719 c 1,20,-1
 887 633 l 1,21,-1
 808 516 l 1,4,-1
1313 353 m 0,22,23
 1313 313 1313 313 1281 228 c 0,24,25
 1250 149 1250 149 1211 123 c 0,26,27
 1169 100 1169 100 1096.5 75.5 c 128,-1,28
 1024 51 1024 51 919 25 c 0,29,30
 822 1 822 1 730 -10.5 c 128,-1,31
 638 -22 638 -22 541 -22 c 0,32,33
 358 -22 358 -22 232 29 c 0,34,35
 82 92 82 92 82 225 c 0,36,37
 82 279 82 279 92 315 c 0,38,39
 97 341 97 341 104 360.5 c 128,-1,40
 111 380 111 380 125 408 c 0,41,42
 165 486 165 486 197 486 c 1,43,-1
 199 450 l 1,44,-1
 154 340 l 1,45,46
 154 233 154 233 276 174 c 2,47,-1
 334 154 l 1,48,-1
 405 136 l 2,49,50
 453 129 453 129 494.5 126 c 128,-1,51
 536 123 536 123 574 123 c 0,52,53
 803 123 803 123 1022 180 c 0,54,55
 1240 237 1240 237 1245 272 c 1,56,-1
 1245 287 l 1,57,-1
 1240 311 l 1,58,59
 1240 323 1240 323 1225 344 c 1,60,-1
 1215 366 l 1,61,-1
 1199 396 l 2,62,63
 1193 408 1193 408 1178 426 c 1,64,-1
 1242 574 l 1,65,66
 1313 467 1313 467 1313 353 c 0,22,23
EndSplineSet
Substitution2: "'fina' Terminal Forms in Arabic lookup 5 subtable" thehfinal
Substitution2: "'medi' Medial Forms in Arabic lookup 4 subtable" thehmedial
Substitution2: "'init' Initial Forms in Arabic lookup 3 subtable" thehinitial
Substitution2: "'isol' Isolated Forms in Arabic lookup 2 subtable" thehisolated
AlternateSubs2: "'aalt' Access All Alternates in Latin lookup 1 subtable" thehisolated thehinitial thehmedial thehfinal
EndChar

StartChar: jeem
Encoding: 1580 1580 15
Width: 1208
Flags: W
AnchorPoint: "ArabicBelow" 604 -1060 basechar 0
AnchorPoint: "ArabicAbove" 604 705 basechar 0
LayerCount: 2
Fore
SplineSet
1161 -645 m 1,0,1
 1161 -678 1161 -678 984 -744 c 0,2,3
 808 -810 808 -810 656 -810 c 0,4,5
 389 -810 389 -810 238 -689 c 0,6,7
 88 -569 88 -569 88 -347 c 0,8,9
 88 -159 88 -159 198 14 c 0,10,11
 307 184 307 184 485 282 c 2,12,-1
 503 292 l 1,13,-1
 342 313 l 1,14,-1
 289 317 l 1,15,-1
 254 317 l 2,16,17
 237 317 237 317 217 310 c 0,18,19
 193 305 193 305 166 289 c 2,20,-1
 135 274 l 1,21,22
 135 324 135 324 175 385 c 0,23,24
 220 455 220 455 298 455 c 2,25,-1
 345 455 l 2,26,27
 365 454 365 454 373.5 453.5 c 128,-1,28
 382 453 382 453 389 452 c 2,29,-1
 461 435 l 1,30,-1
 494 424 l 1,31,-1
 620 406 l 1,32,-1
 703 399 l 1,33,-1
 980 399 l 1,34,-1
 925 276 l 1,35,-1
 878 273 l 1,36,-1
 736 256 l 1,37,-1
 680 245 l 2,38,39
 477 212 477 212 329 73 c 0,40,41
 166 -78 166 -78 166 -278 c 0,42,43
 166 -386 166 -386 227 -477 c 0,44,45
 297 -579 297 -579 446 -636 c 2,46,-1
 506 -654 l 1,47,-1
 578 -666 l 1,48,-1
 657 -674 l 1,49,-1
 741 -677 l 2,50,51
 753 -677 753 -677 775 -678.5 c 128,-1,52
 797 -680 797 -680 829 -680 c 0,53,54
 847 -680 847 -680 868 -679 c 128,-1,55
 889 -678 889 -678 914 -676 c 0,56,57
 930 -675 930 -675 944.5 -674 c 128,-1,58
 959 -673 959 -673 977 -670.5 c 128,-1,59
 995 -668 995 -668 1019.5 -664.5 c 128,-1,60
 1044 -661 1044 -661 1080 -655 c 2,61,-1
 1161 -645 l 1,0,1
614 -357 m 1,62,-1
 485 -265 l 1,63,-1
 574 -139 l 1,64,-1
 695 -234 l 1,65,-1
 614 -357 l 1,62,-1
EndSplineSet
Substitution2: "'fina' Terminal Forms in Arabic lookup 5 subtable" jeemfinal
Substitution2: "'medi' Medial Forms in Arabic lookup 4 subtable" jeemmedial
Substitution2: "'init' Initial Forms in Arabic lookup 3 subtable" jeeminitial
Substitution2: "'isol' Isolated Forms in Arabic lookup 2 subtable" jeemisolated
AlternateSubs2: "'aalt' Access All Alternates in Latin lookup 1 subtable" jeemisolated jeeminitial jeemmedial jeemfinal
EndChar

StartChar: hah
Encoding: 1581 1581 16
Width: 1212
Flags: W
AnchorPoint: "ArabicBelow" 606 -1060 basechar 0
AnchorPoint: "ArabicAbove" 606 705 basechar 0
LayerCount: 2
Fore
SplineSet
1161 -645 m 1,0,1
 1161 -678 1161 -678 984 -744 c 0,2,3
 808 -810 808 -810 656 -810 c 0,4,5
 389 -810 389 -810 238 -689 c 0,6,7
 88 -569 88 -569 88 -347 c 0,8,9
 88 -159 88 -159 198 14 c 0,10,11
 307 184 307 184 485 282 c 2,12,-1
 503 292 l 1,13,-1
 342 313 l 1,14,-1
 289 317 l 1,15,-1
 254 317 l 2,16,17
 237 317 237 317 217 310 c 0,18,19
 193 305 193 305 166 289 c 2,20,-1
 135 274 l 1,21,22
 135 324 135 324 175 385 c 0,23,24
 220 455 220 455 298 455 c 2,25,-1
 345 455 l 2,26,27
 365 454 365 454 373.5 453.5 c 128,-1,28
 382 453 382 453 389 452 c 2,29,-1
 461 435 l 1,30,-1
 494 424 l 1,31,-1
 620 406 l 1,32,-1
 703 399 l 1,33,-1
 980 399 l 1,34,-1
 925 276 l 1,35,-1
 878 273 l 1,36,-1
 736 256 l 1,37,-1
 680 245 l 2,38,39
 477 212 477 212 329 73 c 0,40,41
 166 -78 166 -78 166 -278 c 0,42,43
 166 -386 166 -386 227 -477 c 0,44,45
 297 -579 297 -579 446 -636 c 2,46,-1
 506 -654 l 1,47,-1
 578 -666 l 1,48,-1
 657 -674 l 1,49,-1
 741 -677 l 2,50,51
 760 -676 760 -676 800 -674 c 128,-1,52
 840 -672 840 -672 887 -669.5 c 128,-1,53
 934 -667 934 -667 980.5 -664 c 128,-1,54
 1027 -661 1027 -661 1060 -658 c 2,55,-1
 1094 -655 l 1,56,-1
 1161 -645 l 1,0,1
EndSplineSet
Substitution2: "'fina' Terminal Forms in Arabic lookup 5 subtable" hahfinal
Substitution2: "'medi' Medial Forms in Arabic lookup 4 subtable" hahmedial
Substitution2: "'init' Initial Forms in Arabic lookup 3 subtable" hahinitial
Substitution2: "'isol' Isolated Forms in Arabic lookup 2 subtable" hahisolated
AlternateSubs2: "'aalt' Access All Alternates in Latin lookup 1 subtable" hahisolated hahinitial hahmedial hahfinal
EndChar

StartChar: khah
Encoding: 1582 1582 17
Width: 1225
Flags: W
AnchorPoint: "ArabicBelow" 612 -1060 basechar 0
AnchorPoint: "ArabicAbove" 612 1151 basechar 0
LayerCount: 2
Fore
SplineSet
470 684 m 1,0,-1
 340 775 l 1,1,-1
 430 901 l 1,2,-1
 550 806 l 1,3,-1
 470 684 l 1,0,-1
1161 -645 m 1,4,5
 1161 -678 1161 -678 984 -744 c 0,6,7
 808 -810 808 -810 656 -810 c 0,8,9
 389 -810 389 -810 238 -689 c 0,10,11
 88 -569 88 -569 88 -347 c 0,12,13
 88 -159 88 -159 198 14 c 0,14,15
 307 184 307 184 485 282 c 2,16,-1
 503 292 l 1,17,-1
 342 313 l 1,18,-1
 289 317 l 1,19,-1
 254 317 l 2,20,21
 237 317 237 317 217 310 c 0,22,23
 193 305 193 305 166 289 c 2,24,-1
 135 274 l 1,25,26
 135 324 135 324 175 385 c 0,27,28
 220 455 220 455 298 455 c 2,29,-1
 345 455 l 2,30,31
 365 454 365 454 373.5 453 c 128,-1,32
 382 452 382 452 388 448 c 1,33,-1
 620 406 l 1,34,-1
 703 399 l 1,35,-1
 980 399 l 1,36,-1
 925 276 l 1,37,-1
 878 273 l 1,38,-1
 736 256 l 1,39,-1
 680 245 l 2,40,41
 477 212 477 212 329 73 c 0,42,43
 166 -78 166 -78 166 -278 c 0,44,45
 166 -386 166 -386 227 -477 c 0,46,47
 262 -528 262 -528 316 -569 c 128,-1,48
 370 -610 370 -610 446 -636 c 2,49,-1
 506 -656 l 1,50,-1
 578 -666 l 1,51,-1
 657 -677 l 1,52,-1
 754 -677 l 2,53,54
 778 -677 778 -677 816.5 -675 c 128,-1,55
 855 -673 855 -673 898 -670.5 c 128,-1,56
 941 -668 941 -668 984 -664.5 c 128,-1,57
 1027 -661 1027 -661 1060 -658 c 2,58,-1
 1094 -655 l 1,59,-1
 1161 -645 l 1,4,5
EndSplineSet
Substitution2: "'fina' Terminal Forms in Arabic lookup 5 subtable" khahfinal
Substitution2: "'medi' Medial Forms in Arabic lookup 4 subtable" khahmedial
Substitution2: "'init' Initial Forms in Arabic lookup 3 subtable" khahinitial
Substitution2: "'isol' Isolated Forms in Arabic lookup 2 subtable" khahisolated
AlternateSubs2: "'aalt' Access All Alternates in Latin lookup 1 subtable" khahisolated khahinitial khahmedial khahfinal
EndChar

StartChar: dal
Encoding: 1583 1583 18
Width: 605
Flags: W
AnchorPoint: "ArabicBelow" 302 -263 basechar 0
AnchorPoint: "ArabicAbove" 302 910 basechar 0
LayerCount: 2
Fore
SplineSet
567 219 m 0,0,1
 567 113 567 113 456 50 c 0,2,3
 405 22 405 22 336.5 4.5 c 128,-1,4
 268 -13 268 -13 196 -13 c 0,5,6
 138 -13 138 -13 110.5 -4 c 128,-1,7
 83 5 83 5 77 31 c 1,8,-1
 77 63 l 2,9,10
 77 83 77 83 79 93 c 1,11,12
 79 107 79 107 79.5 115 c 128,-1,13
 80 123 80 123 81 127 c 2,14,-1
 84 146 l 1,15,-1
 91 168 l 1,16,-1
 115 156 l 1,17,-1
 152 144 l 1,18,-1
 190 138 l 1,19,-1
 229 135 l 2,20,21
 287 135 287 135 389 164 c 0,22,23
 505 199 505 199 505 240 c 0,24,25
 505 287 505 287 433 376 c 0,26,27
 362 465 362 465 298 488 c 1,28,-1
 298 611 l 1,29,-1
 300 639 l 2,30,31
 303 657 303 657 315 660 c 1,32,33
 364 660 364 660 454 537 c 0,34,35
 504 469 504 469 536 386 c 0,36,37
 567 306 567 306 567 219 c 0,0,1
EndSplineSet
Substitution2: "'fina' Terminal Forms in Arabic lookup 5 subtable" dalfinal
Substitution2: "'isol' Isolated Forms in Arabic lookup 2 subtable" dalisolated
AlternateSubs2: "'aalt' Access All Alternates in Latin lookup 1 subtable" dalisolated dalfinal
EndChar

StartChar: thal
Encoding: 1584 1584 19
Width: 590
Flags: W
AnchorPoint: "ArabicBelow" 295 -263 basechar 0
AnchorPoint: "ArabicAbove" 295 1349 basechar 0
LayerCount: 2
Fore
SplineSet
280 881 m 1,0,-1
 150 973 l 1,1,-1
 240 1099 l 1,2,-1
 360 1004 l 1,3,-1
 280 881 l 1,0,-1
567 219 m 0,4,5
 567 113 567 113 456 50 c 0,6,7
 405 22 405 22 336.5 4.5 c 128,-1,8
 268 -13 268 -13 196 -13 c 0,9,10
 138 -13 138 -13 110.5 -4 c 128,-1,11
 83 5 83 5 77 31 c 1,12,-1
 77 63 l 2,13,14
 77 83 77 83 79 93 c 1,15,16
 79 107 79 107 79.5 115 c 128,-1,17
 80 123 80 123 81 127 c 2,18,-1
 84 146 l 1,19,-1
 91 168 l 1,20,-1
 115 156 l 1,21,-1
 152 144 l 1,22,-1
 190 138 l 1,23,-1
 229 135 l 2,24,25
 287 135 287 135 389 164 c 0,26,27
 505 199 505 199 505 240 c 0,28,29
 505 287 505 287 433 376 c 0,30,31
 362 465 362 465 298 488 c 1,32,-1
 298 611 l 1,33,-1
 300 639 l 2,34,35
 303 657 303 657 315 660 c 1,36,37
 364 660 364 660 454 537 c 0,38,39
 504 469 504 469 536 386 c 0,40,41
 567 306 567 306 567 219 c 0,4,5
EndSplineSet
Substitution2: "'fina' Terminal Forms in Arabic lookup 5 subtable" thalfinal
Substitution2: "'isol' Isolated Forms in Arabic lookup 2 subtable" thalisolated
AlternateSubs2: "'aalt' Access All Alternates in Latin lookup 1 subtable" thalisolated thalfinal
EndChar

StartChar: reh
Encoding: 1585 1585 20
Width: 716
Flags: W
AnchorPoint: "ArabicBelow" 358 -612 basechar 0
AnchorPoint: "ArabicAbove" 358 696 basechar 0
LayerCount: 2
Fore
SplineSet
708 148 m 0,0,1
 708 -42 708 -42 573 -208 c 0,2,3
 446 -362 446 -362 319 -362 c 0,4,5
 289 -362 289 -362 244 -346.5 c 128,-1,6
 199 -331 199 -331 136 -299 c 0,7,8
 15 -236 15 -236 15 -212 c 0,9,10
 15 -196 15 -196 28 -196 c 0,11,12
 36 -196 36 -196 108 -232 c 0,13,14
 174 -271 174 -271 211 -271 c 0,15,16
 357 -271 357 -271 516 -124 c 0,17,18
 657 8 657 8 657 99 c 0,19,20
 657 120 657 120 645.5 149 c 128,-1,21
 634 178 634 178 608 212 c 2,22,-1
 538 302 l 1,23,-1
 575 446 l 1,24,25
 620 413 620 413 671 299 c 0,26,27
 708 219 708 219 708 148 c 0,0,1
EndSplineSet
Substitution2: "'fina' Terminal Forms in Arabic lookup 5 subtable" rehfinal
Substitution2: "'isol' Isolated Forms in Arabic lookup 2 subtable" rehisolated
AlternateSubs2: "'aalt' Access All Alternates in Latin lookup 1 subtable" rehisolated rehfinal
EndChar

StartChar: zain
Encoding: 1586 1586 21
Width: 724
Flags: W
AnchorPoint: "ArabicBelow" 362 -612 basechar 0
AnchorPoint: "ArabicAbove" 362 1151 basechar 0
LayerCount: 2
Fore
SplineSet
525 684 m 1,0,-1
 395 775 l 1,1,-1
 485 901 l 1,2,-1
 606 806 l 1,3,-1
 525 684 l 1,0,-1
708 148 m 0,4,5
 708 -42 708 -42 573 -208 c 0,6,7
 446 -362 446 -362 319 -362 c 0,8,9
 289 -362 289 -362 244 -346.5 c 128,-1,10
 199 -331 199 -331 136 -299 c 0,11,12
 15 -236 15 -236 15 -212 c 0,13,14
 15 -196 15 -196 28 -196 c 0,15,16
 36 -196 36 -196 108 -232 c 0,17,18
 174 -271 174 -271 211 -271 c 0,19,20
 357 -271 357 -271 516 -124 c 0,21,22
 657 8 657 8 657 99 c 0,23,24
 657 120 657 120 645.5 149 c 128,-1,25
 634 178 634 178 608 212 c 2,26,-1
 538 302 l 1,27,-1
 575 446 l 1,28,29
 620 413 620 413 671 299 c 0,30,31
 708 219 708 219 708 148 c 0,4,5
EndSplineSet
Substitution2: "'fina' Terminal Forms in Arabic lookup 5 subtable" zainfinal
Substitution2: "'isol' Isolated Forms in Arabic lookup 2 subtable" zainisolated
AlternateSubs2: "'aalt' Access All Alternates in Latin lookup 1 subtable" zainisolated zainfinal
EndChar

StartChar: seen
Encoding: 1587 1587 22
Width: 1544
Flags: W
AnchorPoint: "ArabicBelow" 772 -777 basechar 0
AnchorPoint: "ArabicAbove" 772 693 basechar 0
LayerCount: 2
Fore
SplineSet
1521 393 m 1,0,-1
 1529 336 l 2,1,2
 1529 278 1529 278 1516 240 c 2,3,-1
 1500 189 l 1,4,-1
 1488 163 l 1,5,-1
 1455 107 l 2,6,7
 1443 86 1443 86 1431 77 c 2,8,9
 1423 69 1423 69 1406 63 c 1,10,-1
 1368 59 l 2,11,12
 1326 59 1326 59 1284 80 c 1,13,-1
 1212 130 l 1,14,15
 1196 111 1196 111 1170.5 88.5 c 128,-1,16
 1145 66 1145 66 1110 38 c 0,17,18
 1054 0 1054 0 986 0 c 2,19,-1
 950 0 l 1,20,-1
 933 2 l 2,21,22
 908 2 908 2 889 11 c 1,23,24
 889 -276 889 -276 738 -412 c 0,25,26
 614 -527 614 -527 380 -527 c 0,27,28
 243 -527 243 -527 158 -451 c 256,29,30
 73 -375 73 -375 73 -252 c 0,31,32
 73 -136 73 -136 128 -33 c 0,33,34
 173 54 173 54 205 57 c 1,35,-1
 181 -15 l 2,36,37
 158 -63 158 -63 145 -109.5 c 128,-1,38
 132 -156 132 -156 132 -196 c 0,39,40
 132 -265 132 -265 216 -322 c 0,41,42
 254 -348 254 -348 298.5 -363.5 c 128,-1,43
 343 -379 343 -379 397 -379 c 0,44,45
 439 -379 439 -379 464 -378 c 128,-1,46
 489 -377 489 -377 502.5 -376.5 c 128,-1,47
 516 -376 516 -376 521.5 -375 c 128,-1,48
 527 -374 527 -374 530 -374 c 1,49,-1
 600 -358 l 1,50,51
 605 -358 605 -358 615 -355.5 c 128,-1,52
 625 -353 625 -353 657 -338 c 2,53,-1
 688 -324 l 2,54,55
 755 -296 755 -296 790 -247 c 0,56,57
 797 -236 797 -236 802.5 -221.5 c 128,-1,58
 808 -207 808 -207 811 -188 c 2,59,-1
 817 -149 l 1,60,-1
 819 -104 l 2,61,62
 819 -59 819 -59 810 -14 c 0,63,64
 806 13 806 13 799 28 c 2,65,-1
 781 71 l 1,66,-1
 728 161 l 1,67,-1
 795 283 l 1,68,69
 814 253 814 253 829.5 230.5 c 128,-1,70
 845 208 845 208 856 194 c 0,71,72
 900 141 900 141 995 141 c 0,73,74
 1060 141 1060 141 1119 174 c 0,75,76
 1151 195 1151 195 1187 245 c 1,77,-1
 1223 316 l 2,78,79
 1239 349 1239 349 1256 349 c 0,80,81
 1271 349 1271 349 1271 332 c 256,82,83
 1271 315 1271 315 1267 307 c 1,84,-1
 1264 285 l 2,85,86
 1264 243 1264 243 1318 216 c 0,87,88
 1376 192 1376 192 1445 192 c 1,89,-1
 1452 238 l 1,90,91
 1452 249 1452 249 1446 276 c 0,92,93
 1444 286 1444 286 1439 299 c 128,-1,94
 1434 312 1434 312 1426 329 c 1,95,-1
 1501 443 l 1,96,-1
 1521 393 l 1,0,-1
EndSplineSet
Substitution2: "'fina' Terminal Forms in Arabic lookup 5 subtable" seenfinal
Substitution2: "'medi' Medial Forms in Arabic lookup 4 subtable" seenmedial
Substitution2: "'init' Initial Forms in Arabic lookup 3 subtable" seeninitial
Substitution2: "'isol' Isolated Forms in Arabic lookup 2 subtable" seenisolated
AlternateSubs2: "'aalt' Access All Alternates in Latin lookup 1 subtable" seenisolated seeninitial seenmedial seenfinal
EndChar

StartChar: sheen
Encoding: 1588 1588 23
Width: 1550
Flags: W
AnchorPoint: "ArabicBelow" 775 -777 basechar 0
AnchorPoint: "ArabicAbove" 775 1237 basechar 0
LayerCount: 2
Fore
SplineSet
1159 784 m 1,0,-1
 1037 869 l 1,1,-1
 1119 987 l 1,2,-1
 1232 900 l 1,3,-1
 1159 784 l 1,0,-1
1280 585 m 1,4,-1
 1243 616 l 2,5,6
 1210 643 1210 643 1174 664 c 1,7,-1
 1126 585 l 1,8,-1
 1121 574 l 1,9,-1
 1112 560 l 1,10,-1
 986 655 l 1,11,-1
 1059 768 l 1,12,13
 1089 741 1089 741 1099 735 c 2,14,-1
 1134 709 l 1,15,-1
 1168 688 l 1,16,-1
 1186 712 l 1,17,-1
 1211 750 l 1,18,-1
 1221 770 l 1,19,-1
 1234 788 l 1,20,-1
 1359 702 l 1,21,-1
 1280 585 l 1,4,-1
1521 393 m 1,22,-1
 1529 336 l 2,23,24
 1529 309 1529 309 1526.5 285 c 128,-1,25
 1524 261 1524 261 1516 240 c 2,26,-1
 1488 163 l 1,27,-1
 1455 107 l 2,28,29
 1443 86 1443 86 1431 77 c 2,30,31
 1423 69 1423 69 1406 63 c 1,32,-1
 1368 59 l 2,33,34
 1326 59 1326 59 1284 80 c 1,35,-1
 1212 130 l 1,36,37
 1196 111 1196 111 1170.5 88.5 c 128,-1,38
 1145 66 1145 66 1110 38 c 0,39,40
 1054 0 1054 0 986 0 c 2,41,-1
 950 0 l 1,42,-1
 933 2 l 2,43,44
 908 2 908 2 889 11 c 1,45,46
 889 -276 889 -276 738 -412 c 0,47,48
 614 -527 614 -527 380 -527 c 0,49,50
 243 -527 243 -527 158 -451 c 256,51,52
 73 -375 73 -375 73 -252 c 0,53,54
 73 -136 73 -136 128 -33 c 0,55,56
 173 54 173 54 205 57 c 1,57,-1
 181 -15 l 2,58,59
 158 -63 158 -63 145 -109.5 c 128,-1,60
 132 -156 132 -156 132 -196 c 0,61,62
 132 -265 132 -265 216 -322 c 0,63,64
 256 -349 256 -349 302.5 -364 c 128,-1,65
 349 -379 349 -379 406 -379 c 0,66,67
 445 -379 445 -379 468 -378 c 128,-1,68
 491 -377 491 -377 503.5 -376.5 c 128,-1,69
 516 -376 516 -376 521.5 -375 c 128,-1,70
 527 -374 527 -374 530 -374 c 1,71,-1
 602 -358 l 1,72,73
 604 -358 604 -358 607 -357 c 128,-1,74
 610 -356 610 -356 618.5 -352.5 c 128,-1,75
 627 -349 627 -349 643 -342.5 c 128,-1,76
 659 -336 659 -336 688 -324 c 0,77,78
 755 -296 755 -296 790 -247 c 0,79,80
 797 -236 797 -236 802.5 -221.5 c 128,-1,81
 808 -207 808 -207 811 -188 c 2,82,-1
 818 -149 l 1,83,-1
 818 -108 l 2,84,85
 818 -73 818 -73 816 -52.5 c 128,-1,86
 814 -32 814 -32 810 -14 c 0,87,88
 806 13 806 13 799 28 c 2,89,-1
 781 71 l 1,90,-1
 728 161 l 1,91,-1
 795 283 l 1,92,93
 814 253 814 253 829.5 230.5 c 128,-1,94
 845 208 845 208 856 194 c 0,95,96
 900 141 900 141 995 141 c 0,97,98
 1060 141 1060 141 1119 174 c 0,99,100
 1151 195 1151 195 1187 245 c 1,101,-1
 1223 316 l 2,102,103
 1239 349 1239 349 1256 349 c 0,104,105
 1271 349 1271 349 1271 332 c 256,106,107
 1271 315 1271 315 1267 307 c 1,108,-1
 1264 285 l 2,109,110
 1264 243 1264 243 1318 216 c 0,111,112
 1376 192 1376 192 1445 192 c 1,113,-1
 1452 238 l 1,114,115
 1452 249 1452 249 1446 276 c 0,116,117
 1444 286 1444 286 1439 299 c 128,-1,118
 1434 312 1434 312 1426 329 c 1,119,-1
 1501 443 l 1,120,-1
 1521 393 l 1,22,-1
EndSplineSet
Substitution2: "'fina' Terminal Forms in Arabic lookup 5 subtable" sheenfinal
Substitution2: "'medi' Medial Forms in Arabic lookup 4 subtable" sheenmedial
Substitution2: "'init' Initial Forms in Arabic lookup 3 subtable" sheeninitial
Substitution2: "'isol' Isolated Forms in Arabic lookup 2 subtable" sheenisolated
AlternateSubs2: "'aalt' Access All Alternates in Latin lookup 1 subtable" sheenisolated sheeninitial sheenmedial sheenfinal
EndChar

StartChar: sad
Encoding: 1589 1589 24
Width: 1888
Flags: W
AnchorPoint: "ArabicBelow" 944 -781 basechar 0
AnchorPoint: "ArabicAbove" 944 793 basechar 0
LayerCount: 2
Fore
SplineSet
1874 371 m 0,0,1
 1874 245 1874 245 1741 148 c 2,2,-1
 1671 106 l 2,3,4
 1630 88 1630 88 1601 76.5 c 128,-1,5
 1572 65 1572 65 1542.5 55 c 128,-1,6
 1513 45 1513 45 1477.5 35 c 128,-1,7
 1442 25 1442 25 1388 10 c 1,8,-1
 1254 -4 l 1,9,-1
 1097 -4 l 1,10,-1
 1039 -105 l 2,11,12
 1026 -131 1026 -131 1013 -136 c 1,13,14
 1007 -136 1007 -136 1004 -110 c 0,15,16
 1004 -83 1004 -83 1005 -73 c 128,-1,17
 1006 -63 1006 -63 1008 -55 c 1,18,19
 1008 -50 1008 -50 1010.5 -41.5 c 128,-1,20
 1013 -33 1013 -33 1024 -3 c 1,21,-1
 976 -3 l 1,22,-1
 945 5 l 2,23,24
 915 15 915 15 906.5 19 c 128,-1,25
 898 23 898 23 896 25 c 1,26,27
 896 -266 896 -266 742 -408 c 0,28,29
 610 -531 610 -531 380 -531 c 0,30,31
 73 -531 73 -531 73 -256 c 0,32,33
 73 -140 73 -140 128 -37 c 0,34,35
 173 50 173 50 205 53 c 1,36,-1
 181 -19 l 2,37,38
 158 -67 158 -67 145 -113.5 c 128,-1,39
 132 -160 132 -160 132 -200 c 0,40,41
 132 -269 132 -269 216 -326 c 0,42,43
 256 -353 256 -353 307 -372 c 128,-1,44
 358 -391 358 -391 415 -391 c 0,45,46
 464 -391 464 -391 500 -386.5 c 128,-1,47
 536 -382 536 -382 560 -376 c 128,-1,48
 584 -370 584 -370 598 -364 c 128,-1,49
 612 -358 612 -358 618 -355 c 1,50,51
 619 -355 619 -355 619 -354 c 1,52,-1
 620 -354 l 1,53,54
 634 -350 634 -350 650 -343.5 c 128,-1,55
 666 -337 666 -337 684 -329 c 0,56,57
 757 -300 757 -300 788 -251 c 0,58,59
 795 -240 795 -240 800.5 -225.5 c 128,-1,60
 806 -211 806 -211 809 -192 c 2,61,-1
 815 -153 l 1,62,-1
 817 -108 l 2,63,64
 817 -85 817 -85 816 -68 c 128,-1,65
 815 -51 815 -51 813 -39 c 0,66,67
 810 -16 810 -16 808 -2 c 128,-1,68
 806 12 806 12 799 27 c 2,69,70
 791 59 791 59 774.5 91 c 128,-1,71
 758 123 758 123 735 157 c 1,72,-1
 806 279 l 1,73,74
 837 209 837 209 892 177 c 0,75,76
 962 137 962 137 1093 137 c 0,77,78
 1132 137 1132 137 1245 241 c 2,79,-1
 1377 365 l 2,80,81
 1425 410 1425 410 1461 437 c 0,82,83
 1528 488 1528 488 1590 515.5 c 128,-1,84
 1652 543 1652 543 1706 543 c 256,85,86
 1760 543 1760 543 1817 489 c 0,87,88
 1874 436 1874 436 1874 371 c 0,0,1
1765 298 m 0,89,90
 1765 314 1765 314 1724 349 c 0,91,92
 1675 389 1675 389 1633 389 c 0,93,94
 1535 389 1535 389 1435 316 c 2,95,-1
 1227 139 l 1,96,97
 1423 139 1423 139 1594 193 c 256,98,99
 1765 247 1765 247 1765 298 c 0,89,90
EndSplineSet
Substitution2: "'fina' Terminal Forms in Arabic lookup 5 subtable" sadfinal
Substitution2: "'medi' Medial Forms in Arabic lookup 4 subtable" sadmedial
Substitution2: "'init' Initial Forms in Arabic lookup 3 subtable" sadinitial
Substitution2: "'isol' Isolated Forms in Arabic lookup 2 subtable" sadisolated
AlternateSubs2: "'aalt' Access All Alternates in Latin lookup 1 subtable" sadisolated sadinitial sadmedial sadfinal
EndChar

StartChar: dad
Encoding: 1590 1590 25
Width: 1888
Flags: W
AnchorPoint: "ArabicBelow" 944 -777 basechar 0
AnchorPoint: "ArabicAbove" 944 1161 basechar 0
LayerCount: 2
Fore
SplineSet
1364 693 m 1,0,-1
 1234 784 l 1,1,-1
 1324 911 l 1,2,-1
 1445 816 l 1,3,-1
 1364 693 l 1,0,-1
1874 375 m 0,4,5
 1874 249 1874 249 1741 152 c 2,6,-1
 1671 110 l 2,7,8
 1630 92 1630 92 1601 80.5 c 128,-1,9
 1572 69 1572 69 1542.5 59 c 128,-1,10
 1513 49 1513 49 1477.5 39 c 128,-1,11
 1442 29 1442 29 1388 14 c 1,12,-1
 1254 0 l 1,13,-1
 1097 0 l 1,14,-1
 1039 -101 l 2,15,16
 1026 -127 1026 -127 1013 -132 c 1,17,18
 1007 -132 1007 -132 1004 -106 c 0,19,20
 1004 -79 1004 -79 1005 -69 c 128,-1,21
 1006 -59 1006 -59 1008 -51 c 1,22,23
 1008 -46 1008 -46 1010.5 -37.5 c 128,-1,24
 1013 -29 1013 -29 1024 1 c 1,25,-1
 976 1 l 1,26,-1
 914 19 l 2,27,28
 902 23 902 23 896 29 c 1,29,30
 896 -262 896 -262 742 -404 c 0,31,32
 610 -527 610 -527 380 -527 c 0,33,34
 73 -527 73 -527 73 -252 c 0,35,36
 73 -136 73 -136 128 -33 c 0,37,38
 173 54 173 54 205 57 c 1,39,-1
 181 -15 l 2,40,41
 158 -63 158 -63 145 -109.5 c 128,-1,42
 132 -156 132 -156 132 -196 c 0,43,44
 132 -265 132 -265 216 -322 c 0,45,46
 256 -349 256 -349 302.5 -364 c 128,-1,47
 349 -379 349 -379 406 -379 c 2,48,-1
 538 -372 l 1,49,50
 575 -364 575 -364 592 -359.5 c 128,-1,51
 609 -355 609 -355 620 -350 c 2,52,53
 634 -346 634 -346 650 -339.5 c 128,-1,54
 666 -333 666 -333 684 -325 c 0,55,56
 757 -296 757 -296 788 -247 c 0,57,58
 795 -236 795 -236 800.5 -221.5 c 128,-1,59
 806 -207 806 -207 809 -188 c 2,60,-1
 815 -149 l 1,61,-1
 817 -104 l 2,62,63
 817 -81 817 -81 816 -62 c 128,-1,64
 815 -43 815 -43 813 -20 c 1,65,66
 810 -8 810 -8 808 4 c 128,-1,67
 806 16 806 16 799 31 c 2,68,69
 791 63 791 63 774.5 95 c 128,-1,70
 758 127 758 127 735 161 c 1,71,-1
 806 283 l 1,72,73
 837 213 837 213 892 181 c 0,74,75
 962 141 962 141 1093 141 c 0,76,77
 1132 141 1132 141 1245 245 c 2,78,-1
 1377 369 l 2,79,80
 1425 414 1425 414 1461 441 c 0,81,82
 1528 492 1528 492 1590 519.5 c 128,-1,83
 1652 547 1652 547 1706 547 c 256,84,85
 1760 547 1760 547 1817 493 c 0,86,87
 1874 440 1874 440 1874 375 c 0,4,5
1765 302 m 0,88,89
 1765 318 1765 318 1724 353 c 0,90,91
 1675 393 1675 393 1633 393 c 0,92,93
 1535 393 1535 393 1435 320 c 2,94,-1
 1227 143 l 1,95,96
 1423 143 1423 143 1594 197 c 256,97,98
 1765 251 1765 251 1765 302 c 0,88,89
EndSplineSet
Substitution2: "'fina' Terminal Forms in Arabic lookup 5 subtable" dadfinal
Substitution2: "'medi' Medial Forms in Arabic lookup 4 subtable" dadmedial
Substitution2: "'init' Initial Forms in Arabic lookup 3 subtable" dadinitial
Substitution2: "'isol' Isolated Forms in Arabic lookup 2 subtable" dadisolated
AlternateSubs2: "'aalt' Access All Alternates in Latin lookup 1 subtable" dadisolated dadinitial dadmedial dadfinal
EndChar

StartChar: tah
Encoding: 1591 1591 26
Width: 1114
Flags: W
AnchorPoint: "ArabicBelow" 557 -250 basechar 0
AnchorPoint: "ArabicAbove" 557 1420 basechar 0
LayerCount: 2
Fore
SplineSet
1084 377 m 2,0,1
 1075 320 1075 320 1047 260 c 0,2,3
 1019 195 1019 195 995 174 c 0,4,5
 988 167 988 167 958 149 c 2,6,-1
 889 115 l 2,7,8
 844 96 844 96 795.5 78 c 128,-1,9
 747 60 747 60 693 48 c 2,10,-1
 598 27 l 1,11,-1
 357 0 l 1,12,-1
 241 0 l 2,13,14
 201 0 201 0 134 58 c 0,15,16
 113 78 113 78 98.5 93 c 128,-1,17
 84 108 84 108 84 122 c 0,18,19
 84 130 84 130 89 138 c 0,20,21
 93 143 93 143 152 145 c 2,22,-1
 218 143 l 2,23,24
 338 143 338 143 395 176 c 0,25,26
 466 218 466 218 466 342 c 0,27,28
 466 445 466 445 458.5 537.5 c 128,-1,29
 451 630 451 630 438 730 c 0,30,31
 411 935 411 935 369 1048 c 1,32,-1
 452 1170 l 1,33,34
 477 1103 477 1103 501.5 1069.5 c 128,-1,35
 526 1036 526 1036 559 1020 c 1,36,-1
 487 911 l 1,37,-1
 525 671 l 1,38,-1
 534 463 l 2,39,40
 534 414 534 414 521 346 c 2,41,42
 521 327 521 327 516 309 c 2,43,-1
 507 267 l 1,44,-1
 590 358 l 1,45,-1
 673 430 l 2,46,47
 806 532 806 532 912 532 c 0,48,49
 994 532 994 532 1042 500 c 128,-1,50
 1090 468 1090 468 1090 411 c 1,51,-1
 1084 377 l 2,0,1
998 307 m 1,52,53
 998 325 998 325 994 332 c 2,54,-1
 973 366 l 1,55,56
 942 400 942 400 889 400 c 0,57,58
 760 400 760 400 616 289 c 0,59,60
 505 201 505 201 497 165 c 1,61,62
 497 157 497 157 514 152 c 1,63,-1
 549 152 l 1,64,-1
 620 163 l 2,65,66
 647 168 647 168 681.5 176.5 c 128,-1,67
 716 185 716 185 759 198 c 0,68,69
 907 243 907 243 998 307 c 1,52,53
EndSplineSet
Substitution2: "'fina' Terminal Forms in Arabic lookup 5 subtable" tahfinal
Substitution2: "'medi' Medial Forms in Arabic lookup 4 subtable" tahmedial
Substitution2: "'init' Initial Forms in Arabic lookup 3 subtable" tahinitial
Substitution2: "'isol' Isolated Forms in Arabic lookup 2 subtable" tahisolated
AlternateSubs2: "'aalt' Access All Alternates in Latin lookup 1 subtable" tahisolated tahinitial tahmedial tahfinal
EndChar

StartChar: zah
Encoding: 1592 1592 27
Width: 1109
Flags: W
AnchorPoint: "ArabicBelow" 554 -250 basechar 0
AnchorPoint: "ArabicAbove" 554 1420 basechar 0
LayerCount: 2
Fore
SplineSet
827 768 m 1,0,-1
 697 859 l 1,1,-1
 786 986 l 1,2,-1
 907 891 l 1,3,-1
 827 768 l 1,0,-1
1084 377 m 2,4,5
 1075 320 1075 320 1047 260 c 0,6,7
 1019 195 1019 195 995 174 c 0,8,9
 988 167 988 167 958 149 c 2,10,-1
 889 115 l 2,11,12
 844 96 844 96 795.5 78 c 128,-1,13
 747 60 747 60 693 48 c 2,14,-1
 598 27 l 1,15,-1
 357 0 l 1,16,-1
 241 0 l 2,17,18
 201 0 201 0 134 58 c 0,19,20
 117 77 117 77 100 92 c 128,-1,21
 83 107 83 107 83 122 c 0,22,23
 83 130 83 130 89 138 c 0,24,25
 92 143 92 143 133 143 c 2,26,-1
 152 143 l 1,27,-1
 218 143 l 2,28,29
 338 143 338 143 395 176 c 0,30,31
 466 218 466 218 466 342 c 0,32,33
 466 526 466 526 439 730 c 0,34,35
 425 836 425 836 407 914.5 c 128,-1,36
 389 993 389 993 369 1048 c 1,37,-1
 452 1170 l 1,38,39
 477 1103 477 1103 501.5 1069.5 c 128,-1,40
 526 1036 526 1036 559 1020 c 1,41,-1
 487 911 l 1,42,-1
 525 671 l 1,43,-1
 534 463 l 2,44,45
 534 414 534 414 521 346 c 2,46,47
 521 327 521 327 516 309 c 2,48,-1
 507 267 l 1,49,-1
 590 358 l 1,50,-1
 673 430 l 2,51,52
 806 532 806 532 912 532 c 0,53,54
 994 532 994 532 1042 500 c 128,-1,55
 1090 468 1090 468 1090 411 c 1,56,-1
 1084 377 l 2,4,5
998 307 m 1,57,58
 998 315 998 315 994.5 326 c 128,-1,59
 991 337 991 337 973 366 c 1,60,61
 942 400 942 400 889 400 c 0,62,63
 759 400 759 400 617 288 c 0,64,65
 504 201 504 201 497 165 c 1,66,67
 497 157 497 157 514 152 c 1,68,-1
 549 152 l 1,69,-1
 620 163 l 2,70,71
 647 168 647 168 681.5 176.5 c 128,-1,72
 716 185 716 185 759 198 c 0,73,74
 907 243 907 243 998 307 c 1,57,58
EndSplineSet
Substitution2: "'fina' Terminal Forms in Arabic lookup 5 subtable" zahfinal
Substitution2: "'medi' Medial Forms in Arabic lookup 4 subtable" zahmedial
Substitution2: "'init' Initial Forms in Arabic lookup 3 subtable" zahinitial
Substitution2: "'isol' Isolated Forms in Arabic lookup 2 subtable" zahisolated
AlternateSubs2: "'aalt' Access All Alternates in Latin lookup 1 subtable" zahisolated zahinitial zahmedial zahfinal
EndChar

StartChar: ain
Encoding: 1593 1593 28
Width: 1216
Flags: W
AnchorPoint: "ArabicBelow" 608 -1058 basechar 0
AnchorPoint: "ArabicAbove" 608 956 basechar 0
LayerCount: 2
Fore
SplineSet
1150 -666 m 1,0,1
 1150 -693 1150 -693 986 -747 c 0,2,3
 799 -808 799 -808 602 -808 c 0,4,5
 360 -808 360 -808 227 -702 c 0,6,7
 86 -590 86 -590 86 -358 c 0,8,9
 86 -267 86 -267 114 -174.5 c 128,-1,10
 142 -82 142 -82 190 18 c 2,11,-1
 204 48 l 1,12,-1
 317 208 l 1,13,-1
 230 252 l 2,14,15
 141 306 141 306 141 357 c 0,16,17
 141 443 141 443 210 565 c 0,18,19
 292 706 292 706 391 706 c 0,20,21
 441 706 441 706 504 646 c 0,22,23
 550 600 550 600 550 579 c 1,24,-1
 393 587 l 2,25,26
 339 587 339 587 278 538 c 0,27,28
 216 490 216 490 216 453 c 0,29,30
 216 426 216 426 289 375 c 0,31,32
 363 325 363 325 411 325 c 0,33,34
 428 325 428 325 454 332.5 c 128,-1,35
 480 340 480 340 519 356.5 c 128,-1,36
 558 373 558 373 611.5 398 c 128,-1,37
 665 423 665 423 739 459 c 1,38,39
 739 455 739 455 737.5 448.5 c 128,-1,40
 736 442 736 442 731 429.5 c 128,-1,41
 726 417 726 417 717 397.5 c 128,-1,42
 708 378 708 378 694 349 c 1,43,-1
 510 234 l 2,44,45
 473 207 473 207 432 173 c 128,-1,46
 391 139 391 139 349 102 c 0,47,48
 268 27 268 27 215 -86 c 0,49,50
 188 -144 188 -144 175.5 -196.5 c 128,-1,51
 163 -249 163 -249 163 -300 c 0,52,53
 163 -374 163 -374 192 -437 c 0,54,55
 240 -539 240 -539 364 -599 c 0,56,57
 524 -677 524 -677 805 -677 c 2,58,-1
 867 -677 l 2,59,60
 913 -674 913 -674 953.5 -671 c 128,-1,61
 994 -668 994 -668 1027 -665 c 128,-1,62
 1060 -662 1060 -662 1084 -660.5 c 128,-1,63
 1108 -659 1108 -659 1120 -659 c 0,64,65
 1137 -659 1137 -659 1142.5 -661 c 128,-1,66
 1148 -663 1148 -663 1150 -666 c 1,0,1
EndSplineSet
Substitution2: "'fina' Terminal Forms in Arabic lookup 5 subtable" ainfinal
Substitution2: "'medi' Medial Forms in Arabic lookup 4 subtable" ainmedial
Substitution2: "'init' Initial Forms in Arabic lookup 3 subtable" aininitial
Substitution2: "'isol' Isolated Forms in Arabic lookup 2 subtable" ainisolated
AlternateSubs2: "'aalt' Access All Alternates in Latin lookup 1 subtable" ainisolated aininitial ainmedial ainfinal
EndChar

StartChar: ghain
Encoding: 1594 1594 29
Width: 1172
Flags: W
AnchorPoint: "ArabicBelow" 586 -1058 basechar 0
AnchorPoint: "ArabicAbove" 586 1349 basechar 0
LayerCount: 2
Fore
SplineSet
357 881 m 1,0,-1
 227 973 l 1,1,-1
 316 1099 l 1,2,-1
 437 1004 l 1,3,-1
 357 881 l 1,0,-1
1150 -666 m 1,4,5
 1150 -693 1150 -693 986 -747 c 0,6,7
 799 -808 799 -808 602 -808 c 0,8,9
 360 -808 360 -808 227 -702 c 0,10,11
 86 -590 86 -590 86 -358 c 0,12,13
 86 -267 86 -267 114 -174.5 c 128,-1,14
 142 -82 142 -82 190 18 c 2,15,-1
 204 48 l 1,16,-1
 317 208 l 1,17,-1
 230 252 l 2,18,19
 141 306 141 306 141 357 c 0,20,21
 141 443 141 443 210 565 c 0,22,23
 292 706 292 706 391 706 c 0,24,25
 441 706 441 706 504 646 c 0,26,27
 550 600 550 600 550 579 c 1,28,-1
 393 587 l 2,29,30
 339 587 339 587 278 538 c 0,31,32
 216 490 216 490 216 453 c 0,33,34
 216 426 216 426 289 375 c 0,35,36
 363 325 363 325 411 325 c 0,37,38
 428 325 428 325 454 332.5 c 128,-1,39
 480 340 480 340 519 356.5 c 128,-1,40
 558 373 558 373 611.5 398 c 128,-1,41
 665 423 665 423 739 459 c 1,42,43
 739 455 739 455 737.5 448.5 c 128,-1,44
 736 442 736 442 731 429.5 c 128,-1,45
 726 417 726 417 717 397.5 c 128,-1,46
 708 378 708 378 694 349 c 1,47,-1
 510 234 l 2,48,49
 473 207 473 207 432 173 c 128,-1,50
 391 139 391 139 349 102 c 0,51,52
 268 27 268 27 215 -86 c 0,53,54
 188 -144 188 -144 175.5 -196.5 c 128,-1,55
 163 -249 163 -249 163 -300 c 0,56,57
 163 -374 163 -374 192 -437 c 0,58,59
 240 -539 240 -539 364 -599 c 0,60,61
 524 -677 524 -677 805 -677 c 2,62,-1
 867 -677 l 2,63,64
 925 -673 925 -673 959 -669.5 c 128,-1,65
 993 -666 993 -666 1018 -664 c 128,-1,66
 1043 -662 1043 -662 1065 -660.5 c 128,-1,67
 1087 -659 1087 -659 1120 -659 c 0,68,69
 1137 -659 1137 -659 1142.5 -661 c 128,-1,70
 1148 -663 1148 -663 1150 -666 c 1,4,5
EndSplineSet
Substitution2: "'fina' Terminal Forms in Arabic lookup 5 subtable" ghainfinal
Substitution2: "'medi' Medial Forms in Arabic lookup 4 subtable" ghainmedial
Substitution2: "'init' Initial Forms in Arabic lookup 3 subtable" ghaininitial
Substitution2: "'isol' Isolated Forms in Arabic lookup 2 subtable" ghainisolated
AlternateSubs2: "'aalt' Access All Alternates in Latin lookup 1 subtable" ghainisolated ghaininitial ghainmedial ghainfinal
EndChar

StartChar: tatweel
Encoding: 1600 1600 30
Width: 350
Flags: W
LayerCount: 2
Fore
SplineSet
369 141 m 1,0,-1
 369 0 l 1,1,-1
 -13 0 l 1,2,-1
 -13 141 l 1,3,-1
 369 141 l 1,0,-1
EndSplineSet
EndChar

StartChar: feh
Encoding: 1601 1601 31
Width: 1354
Flags: W
AnchorPoint: "ArabicBelow" 677 -277 basechar 0
AnchorPoint: "ArabicAbove" 677 1269 basechar 0
LayerCount: 2
Fore
SplineSet
1134 801 m 1,0,-1
 1004 892 l 1,1,-1
 1093 1019 l 1,2,-1
 1214 923 l 1,3,-1
 1134 801 l 1,0,-1
1342 311 m 0,4,5
 1342 247 1342 247 1315 177 c 0,6,7
 1303 147 1303 147 1284 122 c 0,8,9
 1274 109 1274 109 1264.5 99 c 128,-1,10
 1255 89 1255 89 1240 77 c 1,11,12
 1220 67 1220 67 1194 56 c 128,-1,13
 1168 45 1168 45 1134 33 c 0,14,15
 1073 15 1073 15 988 0 c 0,16,17
 826 -27 826 -27 605 -27 c 0,18,19
 493 -27 493 -27 407 -15 c 128,-1,20
 321 -3 321 -3 252 24 c 0,21,22
 82 92 82 92 82 256 c 0,23,24
 82 307 82 307 92 340 c 0,25,26
 95 359 95 359 104 383 c 0,27,28
 122 422 122 422 135 448 c 128,-1,29
 148 474 148 474 158 489 c 128,-1,30
 168 504 168 504 175 510.5 c 128,-1,31
 182 517 182 517 187 517 c 0,32,33
 198 517 198 517 198 500 c 0,34,35
 198 488 198 488 193.5 474.5 c 128,-1,36
 189 461 189 461 187 459 c 1,37,38
 154 376 154 376 154 342 c 0,39,40
 154 242 154 242 283 179 c 0,41,42
 347 152 347 152 449 138 c 0,43,44
 484 133 484 133 520 129.5 c 128,-1,45
 556 126 556 126 592 126 c 2,46,-1
 611 126 l 1,47,-1
 639 126 l 2,48,49
 653 126 653 126 673 126 c 0,50,51
 694 126 694 126 723 126.5 c 128,-1,52
 752 127 752 127 792 127.5 c 128,-1,53
 832 128 832 128 885 129 c 0,54,55
 912 129 912 129 940.5 131 c 128,-1,56
 969 133 969 133 999 138 c 2,57,-1
 1061 149 l 2,58,59
 1208 173 1208 173 1275 227 c 1,60,-1
 1275 318 l 1,61,62
 1274 320 1274 320 1272.5 326.5 c 128,-1,63
 1271 333 1271 333 1264 360 c 2,64,-1
 1253 389 l 1,65,-1
 1235 346 l 2,66,67
 1231 336 1231 336 1226 328 c 128,-1,68
 1221 320 1221 320 1216 313 c 0,69,70
 1177 256 1177 256 1119 256 c 0,71,72
 1041 256 1041 256 1011 313 c 0,73,74
 997 346 997 346 997 400 c 0,75,76
 997 494 997 494 1054 589 c 256,77,78
 1111 684 1111 684 1172 684 c 0,79,80
 1219 684 1219 684 1285 569 c 0,81,82
 1312 512 1312 512 1327 446 c 128,-1,83
 1342 380 1342 380 1342 311 c 0,4,5
1216 464 m 2,84,85
 1210 476 1210 476 1203 483 c 0,86,87
 1166 532 1166 532 1137 532 c 0,88,89
 1115 532 1115 532 1075 477 c 2,90,-1
 1061 452 l 1,91,92
 1065 407 1065 407 1119 407 c 2,93,-1
 1157 407 l 1,94,-1
 1189 413 l 2,95,96
 1218 422 1218 422 1234 435 c 1,97,-1
 1216 464 l 2,84,85
EndSplineSet
Substitution2: "'fina' Terminal Forms in Arabic lookup 5 subtable" fehfinal
Substitution2: "'medi' Medial Forms in Arabic lookup 4 subtable" fehmedial
Substitution2: "'init' Initial Forms in Arabic lookup 3 subtable" fehinitial
Substitution2: "'isol' Isolated Forms in Arabic lookup 2 subtable" fehisolated
AlternateSubs2: "'aalt' Access All Alternates in Latin lookup 1 subtable" fehisolated fehinitial fehmedial fehfinal
EndChar

StartChar: qaf
Encoding: 1602 1602 32
Width: 1014
Flags: W
AnchorPoint: "ArabicBelow" 507 -504 basechar 0
AnchorPoint: "ArabicAbove" 507 1331 basechar 0
LayerCount: 2
Fore
SplineSet
764 878 m 1,0,-1
 728 909 l 2,1,2
 714 920 714 920 697 931.5 c 128,-1,3
 680 943 680 943 658 956 c 1,4,-1
 596 852 l 1,5,-1
 470 947 l 1,6,-1
 543 1061 l 1,7,-1
 583 1028 l 2,8,9
 603 1012 603 1012 621 1000 c 128,-1,10
 639 988 639 988 656 978 c 1,11,-1
 719 1081 l 1,12,-1
 843 995 l 1,13,-1
 764 878 l 1,0,-1
997 249 m 0,14,15
 997 12 997 12 810 -132 c 0,16,17
 736 -190 736 -190 630 -223 c 0,18,19
 609 -230 609 -230 584.5 -235.5 c 128,-1,20
 560 -241 560 -241 531 -245 c 0,21,22
 503 -250 503 -250 478 -252 c 128,-1,23
 453 -254 453 -254 421 -254 c 0,24,25
 265 -254 265 -254 170 -177 c 0,26,27
 77 -101 77 -101 77 46 c 0,28,29
 77 165 77 165 143 296 c 0,30,31
 198 402 198 402 228 402 c 0,32,33
 231 402 231 402 231 398 c 1,34,35
 229 389 229 389 222.5 371.5 c 128,-1,36
 216 354 216 354 209 336 c 128,-1,37
 202 318 202 318 196.5 303.5 c 128,-1,38
 191 289 191 289 191 287 c 0,39,40
 191 286 191 286 190 287 c 128,-1,41
 189 288 189 288 189 289 c 1,42,43
 152 214 152 214 152 130 c 0,44,45
 152 35 152 35 220 -30 c 0,46,47
 296 -106 296 -106 430 -106 c 0,48,49
 626 -106 626 -106 795 0 c 0,50,51
 947 96 947 96 947 181 c 0,52,53
 947 215 947 215 932 259 c 0,54,55
 915 304 915 304 901 307 c 1,56,57
 890 290 890 290 876 274 c 128,-1,58
 862 258 862 258 844.5 245 c 128,-1,59
 827 232 827 232 806 224 c 128,-1,60
 785 216 785 216 761 216 c 0,61,62
 699 216 699 216 655 248 c 0,63,64
 613 279 613 279 613 340 c 0,65,66
 613 383 613 383 625 431 c 0,67,68
 633 455 633 455 639 471 c 128,-1,69
 645 487 645 487 649.5 498.5 c 128,-1,70
 654 510 654 510 658 517 c 128,-1,71
 662 524 662 524 666 530 c 0,72,73
 727 645 727 645 799 645 c 0,74,75
 868 645 868 645 935 500 c 0,76,77
 997 361 997 361 997 249 c 0,14,15
856 393 m 1,78,79
 844 432 844 432 823 459 c 0,80,81
 794 497 794 497 757 497 c 0,82,83
 738 497 738 497 713 475 c 0,84,85
 692 454 692 454 689 426 c 0,86,87
 689 402 689 402 711 380 c 1,88,-1
 711 379 l 2,89,90
 711 374 711 374 729.5 370.5 c 128,-1,91
 748 367 748 367 772 367 c 0,92,93
 797 367 797 367 821 372.5 c 128,-1,94
 845 378 845 378 856 393 c 1,78,79
EndSplineSet
Substitution2: "'fina' Terminal Forms in Arabic lookup 5 subtable" qaffinal
Substitution2: "'medi' Medial Forms in Arabic lookup 4 subtable" qafmedial
Substitution2: "'init' Initial Forms in Arabic lookup 3 subtable" qafinitial
Substitution2: "'isol' Isolated Forms in Arabic lookup 2 subtable" qafisolated
AlternateSubs2: "'aalt' Access All Alternates in Latin lookup 1 subtable" qafisolated qafinitial qafmedial qaffinal
EndChar

StartChar: arabickaf
Encoding: 1603 1603 33
Width: 1275
Flags: W
AnchorPoint: "ArabicBelow" 637 -276 basechar 0
AnchorPoint: "ArabicAbove" 637 1387 basechar 0
LayerCount: 2
Fore
SplineSet
794 613 m 0,0,1
 794 578 794 578 743 496 c 0,2,3
 694 414 694 414 662 402 c 1,4,5
 633 399 633 399 598 377 c 1,6,-1
 549 358 l 1,7,8
 542 358 542 358 538 368 c 1,9,10
 538 383 538 383 620 444 c 256,11,12
 702 505 702 505 702 545 c 0,13,14
 702 551 702 551 626 567 c 256,15,16
 550 583 550 583 550 638 c 0,17,18
 550 696 550 696 606 800 c 256,19,20
 662 904 662 904 735 931 c 1,21,-1
 715 819 l 1,22,23
 710 817 710 817 700.5 809 c 128,-1,24
 691 801 691 801 662 777 c 0,25,26
 634 749 634 749 627 724 c 1,27,28
 627 721 627 721 647 713.5 c 128,-1,29
 667 706 667 706 709 700 c 0,30,31
 752 694 752 694 773 673 c 128,-1,32
 794 652 794 652 794 613 c 0,0,1
1219 179 m 1,33,34
 1204 158 1204 158 1190.5 145.5 c 128,-1,35
 1177 133 1177 133 1166.5 126 c 128,-1,36
 1156 119 1156 119 1148 115 c 128,-1,37
 1140 111 1140 111 1137 108 c 0,38,39
 1123 98 1123 98 1102 89 c 128,-1,40
 1081 80 1081 80 1053 70 c 0,41,42
 1031 62 1031 62 992 50.5 c 128,-1,43
 953 39 953 39 896 22 c 2,44,-1
 684 -12 l 2,45,46
 624 -19 624 -19 572.5 -22.5 c 128,-1,47
 521 -26 521 -26 475 -26 c 0,48,49
 272 -26 272 -26 160 74 c 0,50,51
 75 150 75 150 75 251 c 0,52,53
 75 332 75 332 114 422 c 256,54,55
 153 512 153 512 184 512 c 0,56,57
 197 512 197 512 197 497 c 0,58,59
 197 481 197 481 184.5 452.5 c 128,-1,60
 172 424 172 424 155 388 c 1,61,-1
 148 364 l 1,62,63
 148 223 148 223 301 160 c 0,64,65
 412 115 412 115 583 115 c 0,66,67
 619 115 619 115 656 116.5 c 128,-1,68
 693 118 693 118 734 122.5 c 128,-1,69
 775 127 775 127 822.5 134 c 128,-1,70
 870 141 870 141 927 152 c 0,71,72
 941 154 941 154 953 157 c 128,-1,73
 965 160 965 160 985 168 c 0,74,75
 1004 173 1004 173 1020.5 177.5 c 128,-1,76
 1037 182 1037 182 1052 187 c 0,77,78
 1059 190 1059 190 1068 193.5 c 128,-1,79
 1077 197 1077 197 1090 202.5 c 128,-1,80
 1103 208 1103 208 1121 217 c 128,-1,81
 1139 226 1139 226 1165 240 c 1,82,-1
 1196 267 l 1,83,-1
 1183 402 l 2,84,85
 1183 417 1183 417 1181 451.5 c 128,-1,86
 1179 486 1179 486 1176.5 529 c 128,-1,87
 1174 572 1174 572 1170.5 618 c 128,-1,88
 1167 664 1167 664 1164 702 c 128,-1,89
 1161 740 1161 740 1157 789 c 1,90,-1
 1157 788 l 1,91,92
 1157 843 1157 843 1126 998 c 1,93,-1
 1217 1137 l 1,94,-1
 1242 904 l 1,95,-1
 1256 576 l 2,96,97
 1256 516 1256 516 1258.5 468.5 c 128,-1,98
 1261 421 1261 421 1263 386 c 2,99,-1
 1263 291 l 1,100,-1
 1219 179 l 1,33,34
EndSplineSet
Substitution2: "'fina' Terminal Forms in Arabic lookup 5 subtable" arabickaffinal
Substitution2: "'medi' Medial Forms in Arabic lookup 4 subtable" kafmedial
Substitution2: "'init' Initial Forms in Arabic lookup 3 subtable" kafinitial
Substitution2: "'isol' Isolated Forms in Arabic lookup 2 subtable" kafisolated
AlternateSubs2: "'aalt' Access All Alternates in Latin lookup 1 subtable" kafisolated kafinitial kafmedial arabickaffinal
EndChar

StartChar: lam
Encoding: 1604 1604 34
Width: 886
Flags: W
AnchorPoint: "ArabicBelow" 443 -402 basechar 0
AnchorPoint: "ArabicAbove" 443 1428 basechar 0
LayerCount: 2
Fore
SplineSet
786 914 m 1,0,-1
 831 576 l 1,1,-1
 847 251 l 2,2,3
 847 53 847 53 686 -60 c 0,4,5
 655 -81 655 -81 618 -98.5 c 128,-1,6
 581 -116 581 -116 542 -128 c 0,7,8
 465 -152 465 -152 375 -152 c 0,9,10
 306 -152 306 -152 251.5 -133.5 c 128,-1,11
 197 -115 197 -115 158.5 -79.5 c 128,-1,12
 120 -44 120 -44 100 6 c 128,-1,13
 80 56 80 56 80 119 c 0,14,15
 80 218 80 218 138 338 c 0,16,17
 196 464 196 464 229 470 c 1,18,-1
 223 421 l 1,19,20
 154 272 154 272 154 188 c 0,21,22
 154 105 154 105 219 49 c 0,23,24
 283 -6 283 -6 388 -6 c 2,25,-1
 441 -6 l 2,26,27
 452 -6 452 -6 463.5 -5 c 128,-1,28
 475 -4 475 -4 498 -2 c 1,29,-1
 604 29 l 2,30,31
 626 35 626 35 645 45 c 0,32,33
 682 60 682 60 717 84 c 0,34,35
 758 109 758 109 772 137 c 1,36,37
 781 164 781 164 781 238 c 0,38,39
 781 320 781 320 770 431 c 128,-1,40
 759 542 759 542 739 688 c 0,41,42
 716 847 716 847 697.5 934 c 128,-1,43
 679 1021 679 1021 664 1057 c 1,44,-1
 753 1178 l 1,45,46
 774 1111 774 1111 783 1099 c 2,47,48
 792 1081 792 1081 809 1061 c 2,49,-1
 852 1022 l 1,50,-1
 786 914 l 1,0,-1
EndSplineSet
Substitution2: "'fina' Terminal Forms in Arabic lookup 5 subtable" lamfinal
Substitution2: "'medi' Medial Forms in Arabic lookup 4 subtable" lammedial
Substitution2: "'init' Initial Forms in Arabic lookup 3 subtable" laminitial
Substitution2: "'isol' Isolated Forms in Arabic lookup 2 subtable" lamisolated
AlternateSubs2: "'aalt' Access All Alternates in Latin lookup 1 subtable" lamisolated laminitial lammedial lamfinal
EndChar

StartChar: meem
Encoding: 1605 1605 35
Width: 679
Flags: W
AnchorPoint: "ArabicBelow" 339 -1027 basechar 0
AnchorPoint: "ArabicAbove" 339 757 basechar 0
LayerCount: 2
Fore
SplineSet
600 110 m 1,0,1
 586 122 586 122 564.5 131 c 128,-1,2
 543 140 543 140 514 143 c 0,3,4
 458 149 458 149 429.5 151.5 c 128,-1,5
 401 154 401 154 381 154 c 0,6,7
 363 154 363 154 344 151.5 c 128,-1,8
 325 149 325 149 291 143 c 0,9,10
 273 140 273 140 255.5 134 c 128,-1,11
 238 128 238 128 216 117 c 0,12,13
 131 81 131 81 131 35 c 2,14,-1
 151 -113 l 1,15,-1
 251 -483 l 2,16,17
 272 -570 272 -570 272 -622 c 1,18,19
 264 -671 264 -671 259 -701 c 128,-1,20
 254 -731 254 -731 250 -747.5 c 128,-1,21
 246 -764 246 -764 243 -770 c 128,-1,22
 240 -776 240 -776 236 -777 c 1,23,-1
 221 -709 l 2,24,25
 218 -677 218 -677 211.5 -646 c 128,-1,26
 205 -615 205 -615 197 -583 c 2,27,-1
 97 -181 l 1,28,-1
 79 -40 l 2,29,30
 79 38 79 38 112 110 c 0,31,32
 125 134 125 134 134 148.5 c 128,-1,33
 143 163 143 163 150.5 172 c 128,-1,34
 158 181 158 181 163.5 186.5 c 128,-1,35
 169 192 169 192 174 197 c 0,36,37
 203 223 203 223 263 256 c 1,38,-1
 362 282 l 1,39,-1
 435 282 l 2,40,41
 461 282 461 282 505 276 c 1,42,-1
 467 312 l 2,43,44
 443 331 443 331 410 351 c 0,45,46
 360 380 360 380 324 380 c 0,47,48
 286 380 286 380 261.5 365 c 128,-1,49
 237 350 237 350 214 333 c 1,50,-1
 232 419 l 1,51,52
 278 507 278 507 355 507 c 256,53,54
 432 507 432 507 549 402 c 0,55,56
 588 366 588 366 616 332 c 2,57,-1
 664 267 l 1,58,-1
 600 110 l 1,0,1
EndSplineSet
Substitution2: "'fina' Terminal Forms in Arabic lookup 5 subtable" meemfinal
Substitution2: "'medi' Medial Forms in Arabic lookup 4 subtable" meemmedial
Substitution2: "'init' Initial Forms in Arabic lookup 3 subtable" meeminitial
Substitution2: "'isol' Isolated Forms in Arabic lookup 2 subtable" meemisolated
AlternateSubs2: "'aalt' Access All Alternates in Latin lookup 1 subtable" meemisolated meeminitial meemmedial meemfinal
EndChar

StartChar: noon
Encoding: 1606 1606 36
Width: 852
Flags: W
AnchorPoint: "ArabicBelow" 426 -367 basechar 0
AnchorPoint: "ArabicAbove" 426 1236 basechar 0
LayerCount: 2
Fore
SplineSet
397 768 m 1,0,-1
 267 859 l 1,1,-1
 357 986 l 1,2,-1
 477 891 l 1,3,-1
 397 768 l 1,0,-1
828 379 m 1,4,5
 828 136 828 136 677 -3 c 0,6,7
 551 -117 551 -117 364 -117 c 0,8,9
 252 -117 252 -117 176 -62 c 0,10,11
 82 8 82 8 82 148 c 0,12,13
 82 178 82 178 84.5 205 c 128,-1,14
 87 232 87 232 92 255 c 2,15,-1
 124 360 l 2,16,17
 166 463 166 463 191 463 c 0,18,19
 200 463 200 463 200.5 452 c 128,-1,20
 201 441 201 441 197 423.5 c 128,-1,21
 193 406 193 406 186 385.5 c 128,-1,22
 179 365 179 365 173 346 c 0,23,24
 146 263 146 263 146 225 c 0,25,26
 146 143 146 143 212 80 c 1,27,28
 226 70 226 70 244.5 60 c 128,-1,29
 263 50 263 50 287 40 c 0,30,31
 335 27 335 27 380 27 c 0,32,33
 491 27 491 27 616 87 c 0,34,35
 770 160 770 160 770 274 c 0,36,37
 770 309 770 309 761 346 c 128,-1,38
 752 383 752 383 730 428 c 2,39,-1
 633 594 l 1,40,-1
 669 733 l 1,41,42
 694 704 694 704 720.5 659.5 c 128,-1,43
 747 615 747 615 775 552 c 2,44,-1
 806 465 l 1,45,-1
 828 379 l 1,4,5
EndSplineSet
Substitution2: "'fina' Terminal Forms in Arabic lookup 5 subtable" noonfinal
Substitution2: "'medi' Medial Forms in Arabic lookup 4 subtable" noonmedial
Substitution2: "'init' Initial Forms in Arabic lookup 3 subtable" nooninitial
Substitution2: "'isol' Isolated Forms in Arabic lookup 2 subtable" noonisolated
AlternateSubs2: "'aalt' Access All Alternates in Latin lookup 1 subtable" noonisolated nooninitial noonmedial noonfinal
EndChar

StartChar: heh
Encoding: 1607 1607 37
Width: 476
Flags: W
AnchorPoint: "ArabicBelow" 238 -248 basechar 0
AnchorPoint: "ArabicAbove" 238 757 basechar 0
LayerCount: 2
Fore
SplineSet
453 276 m 0,0,1
 453 194 453 194 427 128 c 0,2,3
 404 72 404 72 344 37 c 0,4,5
 282 2 282 2 210 2 c 0,6,7
 168 2 168 2 139.5 14.5 c 128,-1,8
 111 27 111 27 91 61 c 1,9,-1
 84 108 l 1,10,11
 84 158 84 158 106 218 c 128,-1,12
 128 278 128 278 179 364 c 0,13,14
 262 507 262 507 280 507 c 0,15,16
 318 507 318 507 382 437 c 0,17,18
 453 360 453 360 453 276 c 0,0,1
391 197 m 1,19,20
 391 207 391 207 385.5 218 c 128,-1,21
 380 229 380 229 371 255 c 1,22,-1
 338 305 l 1,23,24
 332 311 332 311 323 318 c 128,-1,25
 314 325 314 325 302 333 c 2,26,-1
 267 355 l 1,27,-1
 223 308 l 2,28,29
 212 295 212 295 203.5 284 c 128,-1,30
 195 273 195 273 190 265 c 0,31,32
 165 222 165 222 165 199 c 0,33,34
 165 197 165 197 164.5 191.5 c 128,-1,35
 164 186 164 186 168 179 c 128,-1,36
 172 172 172 172 181 164 c 128,-1,37
 190 156 190 156 210 149 c 1,38,39
 210 150 210 150 215.5 147.5 c 128,-1,40
 221 145 221 145 231.5 142 c 128,-1,41
 242 139 242 139 257 137.5 c 128,-1,42
 272 136 272 136 290 139 c 0,43,44
 298 141 298 141 315.5 144 c 128,-1,45
 333 147 333 147 347 150 c 1,46,47
 371 159 371 159 380.5 174.5 c 128,-1,48
 390 190 390 190 391 197 c 1,19,20
EndSplineSet
Substitution2: "'fina' Terminal Forms in Arabic lookup 5 subtable" hehfinal
Substitution2: "'medi' Medial Forms in Arabic lookup 4 subtable" hehmedial
Substitution2: "'init' Initial Forms in Arabic lookup 3 subtable" hehinitial
Substitution2: "'isol' Isolated Forms in Arabic lookup 2 subtable" hehisolated
AlternateSubs2: "'aalt' Access All Alternates in Latin lookup 1 subtable" hehisolated hehinitial hehmedial hehfinal
EndChar

StartChar: waw
Encoding: 1608 1608 38
Width: 752
Flags: W
AnchorPoint: "ArabicBelow" 376 -610 basechar 0
AnchorPoint: "ArabicAbove" 376 767 basechar 0
LayerCount: 2
Fore
SplineSet
728 229 m 0,0,1
 728 135 728 135 701 43 c 128,-1,2
 674 -49 674 -49 617 -143 c 0,3,4
 484 -360 484 -360 327 -360 c 0,5,6
 257 -360 257 -360 133 -293 c 256,7,8
 9 -226 9 -226 9 -202 c 0,9,10
 9 -195 9 -195 22 -188 c 1,11,-1
 141 -236 l 1,12,-1
 195 -254 l 2,13,14
 216 -260 216 -260 236 -260 c 0,15,16
 335 -260 335 -260 433 -192 c 0,17,18
 556 -108 556 -108 665 73 c 1,19,-1
 673 102 l 1,20,21
 673 114 673 114 662 141 c 2,22,-1
 649 174 l 1,23,24
 627 132 627 132 592 103 c 0,25,26
 560 80 560 80 532 80 c 0,27,28
 489 80 489 80 451 124 c 0,29,30
 419 168 419 168 419 225 c 0,31,32
 419 312 419 312 479 414 c 0,33,34
 540 517 540 517 579 517 c 0,35,36
 615 517 615 517 669 439 c 0,37,38
 728 341 728 341 728 229 c 0,0,1
642 247 m 1,39,40
 636 298 636 298 610 333 c 0,41,42
 591 363 591 363 554 371 c 1,43,44
 536 371 536 371 514 344 c 1,45,46
 498 316 498 316 490 282 c 1,47,48
 490 258 490 258 523 237 c 0,49,50
 556 219 556 219 585 219 c 0,51,52
 618 219 618 219 642 247 c 1,39,40
EndSplineSet
Substitution2: "'fina' Terminal Forms in Arabic lookup 5 subtable" wawfinal
Substitution2: "'isol' Isolated Forms in Arabic lookup 2 subtable" wawisolated
AlternateSubs2: "'aalt' Access All Alternates in Latin lookup 1 subtable" wawisolated wawfinal
EndChar

StartChar: alefmaksura
Encoding: 1609 1609 39
Width: 1147
Flags: W
AnchorPoint: "ArabicBelow" 573 -601 basechar 0
AnchorPoint: "ArabicAbove" 573 919 basechar 0
LayerCount: 2
Fore
SplineSet
1114 579 m 2,0,1
 1114 550 1114 550 1104 519 c 2,2,-1
 1095 492 l 1,3,4
 1071 503 1071 503 1048 510 c 2,5,-1
 1000 519 l 1,6,7
 907 519 907 519 801 428 c 256,8,9
 695 337 695 337 695 258 c 0,10,11
 695 218 695 218 752 194 c 0,12,13
 815 174 815 174 896 174 c 0,14,15
 1000 174 1000 174 1044 144 c 0,16,17
 1073 121 1073 121 1073 80 c 0,18,19
 1073 -10 1073 -10 1041 -66 c 0,20,21
 1011 -122 1011 -122 917 -186 c 0,22,23
 809 -260 809 -260 677 -305 c 0,24,25
 545 -351 545 -351 408 -351 c 0,26,27
 269 -351 269 -351 183 -283 c 0,28,29
 88 -208 88 -208 88 -75 c 0,30,31
 88 38 88 38 154 185 c 0,32,33
 211 309 211 309 239 309 c 0,34,35
 244 309 244 309 249 298 c 1,36,37
 229 246 229 246 215 209.5 c 128,-1,38
 201 173 201 173 192 146 c 0,39,40
 168 74 168 74 168 22 c 0,41,42
 168 -107 168 -107 273 -167 c 0,43,44
 351 -212 351 -212 507 -212 c 0,45,46
 630 -212 630 -212 816 -128 c 0,47,48
 1002 -46 1002 -46 1002 -5 c 1,49,50
 988 22 988 22 969 35 c 1,51,-1
 931 39 l 1,52,-1
 863 42 l 2,53,54
 741 42 741 42 678 71 c 0,55,56
 653 84 653 84 636 114 c 1,57,58
 622 150 622 150 622 187 c 0,59,60
 622 319 622 319 764 494 c 0,61,62
 833 579 833 579 893.5 624 c 128,-1,63
 954 669 954 669 1008 669 c 2,64,-1
 1015 669 l 1,65,-1
 1075 666 l 1,66,67
 1114 654 1114 654 1114 613 c 2,68,-1
 1114 579 l 2,0,1
EndSplineSet
Substitution2: "'fina' Terminal Forms in Arabic lookup 5 subtable" alefmaksurafinal
Substitution2: "'isol' Isolated Forms in Arabic lookup 2 subtable" alefmaksuraisolated
AlternateSubs2: "'aalt' Access All Alternates in Latin lookup 1 subtable" alefmaksuraisolated alefmaksurafinal
EndChar

StartChar: yeh
Encoding: 1610 1610 40
Width: 1172
Flags: W
AnchorPoint: "ArabicBelow" 586 -943 basechar 0
AnchorPoint: "ArabicAbove" 586 919 basechar 0
LayerCount: 2
Fore
SplineSet
1114 579 m 2,0,1
 1114 550 1114 550 1104 519 c 2,2,-1
 1095 492 l 1,3,4
 1071 503 1071 503 1048 510 c 2,5,-1
 1000 519 l 1,6,7
 907 519 907 519 801 428 c 256,8,9
 695 337 695 337 695 258 c 0,10,11
 695 218 695 218 752 194 c 0,12,13
 815 174 815 174 896 174 c 0,14,15
 1000 174 1000 174 1044 144 c 0,16,17
 1073 121 1073 121 1073 80 c 0,18,19
 1073 -10 1073 -10 1041 -66 c 0,20,21
 1011 -122 1011 -122 917 -186 c 0,22,23
 809 -260 809 -260 677 -305 c 0,24,25
 545 -351 545 -351 408 -351 c 0,26,27
 269 -351 269 -351 183 -283 c 0,28,29
 88 -208 88 -208 88 -75 c 0,30,31
 88 38 88 38 154 185 c 0,32,33
 211 309 211 309 239 309 c 0,34,35
 244 309 244 309 249 298 c 1,36,37
 229 246 229 246 215 209.5 c 128,-1,38
 201 173 201 173 192 146 c 0,39,40
 168 74 168 74 168 22 c 0,41,42
 168 -107 168 -107 273 -167 c 0,43,44
 351 -212 351 -212 507 -212 c 0,45,46
 630 -212 630 -212 816 -128 c 0,47,48
 1002 -46 1002 -46 1002 -5 c 1,49,50
 988 22 988 22 969 35 c 1,51,-1
 931 39 l 1,52,-1
 863 42 l 2,53,54
 741 42 741 42 678 71 c 0,55,56
 653 84 653 84 636 114 c 1,57,58
 622 150 622 150 622 187 c 0,59,60
 622 319 622 319 764 494 c 256,61,62
 906 669 906 669 1015 669 c 2,63,-1
 1075 666 l 1,64,65
 1114 654 1114 654 1114 613 c 2,66,-1
 1114 579 l 2,0,1
613 -667 m 1,67,-1
 507 -589 l 1,68,-1
 444 -693 l 1,69,-1
 318 -598 l 1,70,-1
 391 -485 l 1,71,-1
 504 -567 l 1,72,-1
 567 -464 l 1,73,-1
 691 -550 l 1,74,-1
 613 -667 l 1,67,-1
EndSplineSet
Substitution2: "'fina' Terminal Forms in Arabic lookup 5 subtable" yehfinal
Substitution2: "'medi' Medial Forms in Arabic lookup 4 subtable" yehmedial
Substitution2: "'init' Initial Forms in Arabic lookup 3 subtable" yehinitial
Substitution2: "'isol' Isolated Forms in Arabic lookup 2 subtable" yehisolated
AlternateSubs2: "'aalt' Access All Alternates in Latin lookup 1 subtable" yehisolated yehinitial yehmedial yehfinal
EndChar

StartChar: fathatan
Encoding: 1611 1611 41
Width: 0
Flags: W
AnchorPoint: "ArabicAboveLigature" 230 1275 mark 0
AnchorPoint: "ArabicAbove" 230 1275 mark 0
LayerCount: 2
Fore
SplineSet
398 2164 m 1,0,1
 398 2098 398 2098 363 2078 c 2,2,-1
 60 1906 l 1,3,4
 63 1944 63 1944 74 1965 c 0,5,6
 86 1985 86 1985 126 2007 c 2,7,-1
 398 2164 l 1,0,1
398 2018 m 1,8,9
 398 1952 398 1952 363 1932 c 2,10,-1
 60 1760 l 1,11,12
 63 1798 63 1798 74 1819 c 0,13,14
 86 1839 86 1839 126 1861 c 2,15,-1
 398 2018 l 1,8,9
EndSplineSet
AlternateSubs2: "'aalt' Access All Alternates in Latin lookup 1 subtable" fathatanisolated fathatanlow
EndChar

StartChar: dammatan
Encoding: 1612 1612 42
Width: 0
Flags: W
AnchorPoint: "ArabicAboveLigature" 230 1275 mark 0
AnchorPoint: "ArabicAbove" 230 1275 mark 0
LayerCount: 2
Fore
SplineSet
396 1582 m 0,0,1
 396 1565 396 1565 395.5 1550 c 128,-1,2
 395 1535 395 1535 394 1523 c 1,3,4
 374 1534 374 1534 351 1548.5 c 128,-1,5
 328 1563 328 1563 302 1582 c 1,6,7
 176 1453 176 1453 62 1437 c 1,8,9
 105 1526 105 1526 105 1566 c 0,10,11
 105 1621 105 1621 56 1621 c 0,12,13
 14 1621 14 1621 7 1545 c 1,14,15
 -3 1574 -3 1574 -3 1597 c 256,16,17
 -3 1620 -3 1620 3.5 1640 c 128,-1,18
 10 1660 10 1660 21.5 1675 c 128,-1,19
 33 1690 33 1690 48 1698.5 c 128,-1,20
 63 1707 63 1707 81 1707 c 0,21,22
 148 1707 148 1707 148 1607 c 2,23,-1
 142 1515 l 1,24,25
 207 1540 207 1540 266 1605 c 1,26,27
 200 1648 200 1648 200 1699 c 0,28,29
 200 1752 200 1752 240 1798 c 0,30,31
 280 1846 280 1846 322 1846 c 0,32,33
 344 1846 344 1846 367 1819 c 0,34,35
 390 1793 390 1793 390 1766 c 0,36,37
 390 1736 390 1736 379 1708 c 0,38,-1
 357 1652 l 1,39,40
 396 1622 396 1622 396 1582 c 0,0,1
320 1726 m 0,41,42
 320 1779 320 1779 279 1779 c 0,43,44
 253 1779 253 1779 253 1756 c 0,45,46
 253 1730 253 1730 316 1687 c 1,47,48
 320 1696 320 1696 320 1726 c 0,41,42
EndSplineSet
AlternateSubs2: "'aalt' Access All Alternates in Latin lookup 1 subtable" dammatanisolated dammatanlow
EndChar

StartChar: kasratan
Encoding: 1613 1613 43
Width: 0
Flags: W
AnchorPoint: "ArabicBelowLigature" 165 -500 mark 0
AnchorPoint: "ArabicBelow" 165 -500 mark 0
LayerCount: 2
Fore
SplineSet
339 -620 m 1,0,1
 339 -686 339 -686 304 -706 c 2,2,-1
 1 -878 l 1,3,4
 4 -840 4 -840 15 -818 c 1,5,6
 28 -800 28 -800 67 -777 c 2,7,-1
 339 -620 l 1,0,1
339 -767 m 1,8,9
 339 -833 339 -833 304 -853 c 2,10,-1
 1 -1025 l 1,11,12
 4 -987 4 -987 15 -965 c 1,13,14
 28 -947 28 -947 67 -924 c 2,15,-1
 339 -767 l 1,8,9
EndSplineSet
AlternateSubs2: "'aalt' Access All Alternates in Latin lookup 1 subtable" kasratanisolated kasratanlow
EndChar

StartChar: fatha
Encoding: 1614 1614 44
Width: 0
Flags: W
AnchorPoint: "ArabicAboveLigature" 230 1275 mark 0
AnchorPoint: "ArabicAbove" 230 1275 mark 0
LayerCount: 2
Fore
SplineSet
283 1910 m 1,0,1
 283 1856 283 1856 254 1839 c 2,2,-1
 5 1698 l 1,3,4
 7 1732 7 1732 16 1747 c 0,5,6
 26 1762 26 1762 59 1781 c 2,7,-1
 283 1910 l 1,0,1
EndSplineSet
AlternateSubs2: "'aalt' Access All Alternates in Latin lookup 1 subtable" fathaisolated fathalow
EndChar

StartChar: damma
Encoding: 1615 1615 45
Width: 0
Flags: W
AnchorPoint: "ArabicAboveLigature" 230 1275 mark 0
AnchorPoint: "ArabicAbove" 230 1275 mark 0
LayerCount: 2
Fore
SplineSet
280 1883 m 1,0,-1
 273 1802 l 1,1,-1
 208 1845 l 1,2,3
 109 1727 109 1727 46 1727 c 0,4,5
 28 1727 28 1727 -2 1737 c 1,6,7
 40 1760 40 1760 83.5 1791.5 c 128,-1,8
 127 1823 127 1823 173 1865 c 1,9,10
 123 1903 123 1903 123 1938 c 0,11,12
 123 1988 123 1988 159 2041 c 0,13,14
 185 2076 185 2076 218 2076 c 0,15,16
 273 2076 273 2076 273 2004 c 0,17,18
 273 1962 273 1962 248 1908 c 1,19,20
 254 1904 254 1904 262 1897.5 c 128,-1,21
 270 1891 270 1891 280 1883 c 1,0,-1
223 1956 m 0,22,23
 223 1974 223 1974 209.5 1990 c 128,-1,24
 196 2006 196 2006 179 2006 c 0,25,26
 164 2006 164 2006 164 1989 c 0,27,28
 164 1964 164 1964 218 1928 c 1,29,30
 223 1948 223 1948 223 1956 c 0,22,23
EndSplineSet
AlternateSubs2: "'aalt' Access All Alternates in Latin lookup 1 subtable" dammaisolated dammalow
EndChar

StartChar: kasra
Encoding: 1616 1616 46
Width: 0
Flags: W
AnchorPoint: "ArabicBelowLigature" 165 -500 mark 0
AnchorPoint: "ArabicBelow" 165 -500 mark 0
LayerCount: 2
Fore
SplineSet
351 -620 m 1,0,1
 351 -686 351 -686 316 -706 c 2,2,-1
 13 -878 l 1,3,4
 16 -840 16 -840 27 -818 c 1,5,6
 40 -800 40 -800 79 -777 c 2,7,-1
 351 -620 l 1,0,1
EndSplineSet
AlternateSubs2: "'aalt' Access All Alternates in Latin lookup 1 subtable" kasraisolated kasralow
EndChar

StartChar: shadda
Encoding: 1617 1617 47
Width: 0
Flags: W
AnchorPoint: "ArabicAboveLigature" 300 1650 mark 0
AnchorPoint: "ArabicAbove" 300 1650 mark 0
LayerCount: 2
Fore
SplineSet
355 1683 m 0,0,1
 355 1515 355 1515 251 1515 c 0,2,3
 215 1515 215 1515 187 1536 c 1,4,5
 179 1501 179 1501 148 1476 c 0,6,7
 116 1450 116 1450 83 1450 c 0,8,9
 1 1450 1 1450 1 1558 c 0,10,11
 1 1583 1 1583 23 1659 c 1,12,-1
 46 1663 l 1,13,14
 46 1552 46 1552 85 1552 c 0,15,16
 149 1552 149 1552 175 1714 c 1,17,-1
 193 1720 l 1,18,19
 216 1622 216 1622 251 1622 c 0,20,21
 309 1622 309 1622 318 1769 c 1,22,-1
 341 1779 l 1,23,24
 355 1718 355 1718 355 1683 c 0,0,1
EndSplineSet
AlternateSubs2: "'aalt' Access All Alternates in Latin lookup 1 subtable" shaddaisolated shaddalow
EndChar

StartChar: sukun
Encoding: 1618 1618 48
Width: 0
Flags: W
AnchorPoint: "ArabicAboveLigature" 230 1275 mark 0
AnchorPoint: "ArabicAbove" 230 1275 mark 0
LayerCount: 2
Fore
SplineSet
260 1614 m 0,0,1
 260 1549 260 1549 214 1500 c 0,2,3
 167 1450 167 1450 109 1450 c 0,4,5
 2 1450 2 1450 2 1571 c 0,6,7
 2 1655 2 1655 40 1708 c 0,8,9
 77 1762 77 1762 139 1762 c 0,10,11
 186 1762 186 1762 223 1716 c 0,12,13
 260 1673 260 1673 260 1614 c 0,0,1
205 1590 m 0,14,15
 205 1616 205 1616 162 1647 c 0,16,17
 121 1676 121 1676 94 1676 c 0,18,19
 35 1676 35 1676 35 1608 c 0,20,21
 35 1549 35 1549 127 1549 c 0,22,23
 205 1549 205 1549 205 1590 c 0,14,15
EndSplineSet
AlternateSubs2: "'aalt' Access All Alternates in Latin lookup 1 subtable" sukunisolated sukunlow
EndChar

StartChar: arabicindicdigitzero
Encoding: 1632 1632 49
Width: 466
Flags: W
LayerCount: 2
Fore
SplineSet
362 449 m 1,0,-1
 292 205 l 1,1,-1
 98 325 l 1,2,-1
 168 569 l 1,3,-1
 362 449 l 1,0,-1
EndSplineSet
EndChar

StartChar: arabicindicdigitone
Encoding: 1633 1633 50
Width: 502
Flags: W
LayerCount: 2
Fore
SplineSet
404 134 m 2,0,1
 404 83 404 83 401 46.5 c 128,-1,2
 398 10 398 10 393 -15 c 1,3,-1
 393 -16 l 1,4,5
 385 -66 385 -66 367 -66 c 0,6,7
 355 -66 355 -66 342 0 c 0,8,9
 319 147 319 147 302.5 235 c 128,-1,10
 286 323 286 323 272 359 c 0,11,12
 258 394 258 394 246 425 c 128,-1,13
 234 456 234 456 222 484 c 0,14,15
 211 510 211 510 199 533.5 c 128,-1,16
 187 557 187 557 174 581 c 2,17,-1
 104 701 l 1,18,19
 105 714 105 714 106 723 c 128,-1,20
 107 732 107 732 109 738 c 0,21,22
 113 750 113 750 119.5 770.5 c 128,-1,23
 126 791 126 791 138 827 c 0,24,25
 171 917 171 917 177 919 c 1,26,27
 191 914 191 914 236 847 c 0,28,29
 265 805 265 805 291.5 749 c 128,-1,30
 318 693 318 693 344 618 c 0,31,32
 357 573 357 573 367.5 526 c 128,-1,33
 378 479 378 479 387 428 c 0,34,35
 395 377 395 377 399 329 c 128,-1,36
 403 281 403 281 403 235 c 2,37,-1
 403 199 l 1,38,-1
 404 134 l 2,0,1
EndSplineSet
EndChar

StartChar: arabicindicdigittwo
Encoding: 1634 1634 51
Width: 724
Flags: W
LayerCount: 2
Fore
SplineSet
183 720 m 1,0,-1
 183 792 l 2,1,2
 185 812 185 812 189 834.5 c 128,-1,3
 193 857 193 857 204 875 c 0,4,5
 228 915 228 915 281.5 931 c 128,-1,6
 335 947 335 947 400 950 c 128,-1,7
 465 953 465 953 531 948 c 128,-1,8
 597 943 597 943 673 930 c 1,9,10
 654 809 654 809 648 782 c 1,11,12
 632 788 632 788 569 795.5 c 128,-1,13
 506 803 506 803 484 802 c 128,-1,14
 462 801 462 801 454 800 c 0,15,16
 401 795 401 795 373 777.5 c 128,-1,17
 345 760 345 760 335.5 734.5 c 128,-1,18
 326 709 326 709 330.5 676.5 c 128,-1,19
 335 644 335 644 347.5 609 c 128,-1,20
 360 574 360 574 375.5 538 c 128,-1,21
 391 502 391 502 404 470 c 0,22,23
 405 467 405 467 407 462.5 c 128,-1,24
 409 458 409 458 413 444.5 c 128,-1,25
 417 431 417 431 424.5 404.5 c 128,-1,26
 432 378 432 378 444 331 c 2,27,-1
 460 233 l 1,28,-1
 467 155 l 1,29,-1
 470 73 l 2,30,31
 470 -78 470 -78 440 -78 c 0,32,33
 420 -78 420 -78 402 19 c 0,34,35
 388 95 388 95 369 178 c 0,36,37
 362 211 362 211 348 248 c 2,38,-1
 329 311 l 2,39,40
 297 402 297 402 265.5 475 c 128,-1,41
 234 548 234 548 209 631 c 2,42,-1
 183 720 l 1,0,-1
EndSplineSet
EndChar

StartChar: arabicindicdigitthree
Encoding: 1635 1635 52
Width: 939
Flags: W
LayerCount: 2
Fore
SplineSet
765 964 m 1,0,1
 766 964 766 964 766.5 964.5 c 128,-1,2
 767 965 767 965 768 965 c 1,3,-1
 765 964 l 1,0,1
768 944 m 1,4,5
 771 944 771 944 776 940 c 1,6,-1
 779 927 l 1,7,-1
 781 898 l 2,8,9
 781 856 781 856 773 813 c 128,-1,10
 765 770 765 770 748 720 c 0,11,12
 714 618 714 618 669 602 c 1,13,-1
 668 601 l 1,14,15
 659 599 659 599 650 597.5 c 128,-1,16
 641 596 641 596 637 596 c 0,17,18
 601 596 601 596 568 613 c 1,19,-1
 567 613 l 1,20,-1
 530 630 l 1,21,-1
 510 640 l 1,22,-1
 496 651 l 1,23,-1
 483 649 l 1,24,25
 459 619 459 619 436 599.5 c 128,-1,26
 413 580 413 580 392 569 c 2,27,-1
 353 555 l 1,28,-1
 346 538 l 1,29,-1
 361 472 l 1,30,-1
 376 395 l 1,31,-1
 383 330 l 1,32,-1
 390 273 l 1,33,-1
 390 117 l 2,34,35
 390 61 390 61 389 22.5 c 128,-1,36
 388 -16 388 -16 384 -40.5 c 128,-1,37
 380 -65 380 -65 374 -75.5 c 128,-1,38
 368 -86 368 -86 358 -86 c 0,39,40
 340 -86 340 -86 325 66 c 0,41,42
 309 230 309 230 272 348 c 0,43,44
 259 394 259 394 246.5 434 c 128,-1,45
 234 474 234 474 221 508 c 0,46,47
 208 545 208 545 197.5 573.5 c 128,-1,48
 187 602 187 602 178 623 c 1,49,-1
 177 624 l 1,50,-1
 123 732 l 1,51,-1
 100 778 l 1,52,-1
 122 831 l 2,53,54
 137 862 137 862 152.5 887 c 128,-1,55
 168 912 168 912 184 933 c 1,56,-1
 242 858 l 2,57,58
 319 762 319 762 369 762 c 0,59,60
 384 762 384 762 401 772 c 0,61,62
 455 815 455 815 487 872 c 2,63,-1
 553 981 l 1,64,65
 563 981 563 981 563 950 c 2,66,-1
 563 923 l 1,67,-1
 565 896 l 1,68,-1
 565 894 l 1,69,70
 570 875 570 875 600 846 c 1,71,-1
 600 845 l 1,72,73
 616 833 616 833 633 826 c 128,-1,74
 650 819 650 819 669 819 c 0,75,76
 695 819 695 819 718 848 c 2,77,-1
 721 852 l 1,78,-1
 746 918 l 2,79,80
 754 936 754 936 768 944 c 1,4,5
EndSplineSet
EndChar

StartChar: arabicindicdigitfour
Encoding: 1636 1636 53
Width: 630
Flags: W
LayerCount: 2
Fore
SplineSet
462 -64 m 1,0,-1
 457 -64 l 2,1,2
 402 -64 402 -64 289 -24 c 0,3,4
 116 28 116 28 116 107 c 0,5,6
 116 125 116 125 128.5 154 c 128,-1,7
 141 183 141 183 164 218 c 2,8,-1
 286 386 l 1,9,-1
 288 396 l 1,10,11
 288 416 288 416 188 484 c 0,12,13
 165 498 165 498 145.5 515 c 128,-1,14
 126 532 126 532 112 547 c 1,15,16
 111 555 111 555 110.5 561 c 128,-1,17
 110 567 110 567 109 575 c 0,18,19
 109 598 109 598 115.5 622.5 c 128,-1,20
 122 647 122 647 134 675 c 1,21,-1
 134 674 l 1,22,23
 158 720 158 720 193.5 764.5 c 128,-1,24
 229 809 229 809 274 850 c 0,25,26
 312 882 312 882 344 904 c 128,-1,27
 376 926 376 926 396 933 c 1,28,29
 390 896 390 896 385.5 864 c 128,-1,30
 381 832 381 832 376 795 c 1,31,-1
 311 775 l 1,32,33
 237 740 237 740 226 703 c 1,34,35
 226 670 226 670 309 621 c 0,36,37
 343 605 343 605 374.5 589.5 c 128,-1,38
 406 574 406 574 439 559 c 1,39,-1
 440 551 l 2,40,41
 440 533 440 533 423 501.5 c 128,-1,42
 406 470 406 470 377 433 c 2,43,-1
 295 346 l 2,44,45
 273 324 273 324 251 286 c 0,46,47
 239 266 239 266 237 247.5 c 128,-1,48
 235 229 235 229 240 215 c 1,49,-1
 244 209 l 1,50,51
 251 204 251 204 267 195.5 c 128,-1,52
 283 187 283 187 311 176 c 2,53,-1
 426 134 l 2,54,55
 444 129 444 129 462 124.5 c 128,-1,56
 480 120 480 120 499 115 c 0,57,58
 505 113 505 113 510 111 c 128,-1,59
 515 109 515 109 521 107 c 1,60,-1
 462 -64 l 1,0,-1
EndSplineSet
EndChar

StartChar: arabicindicdigitfive
Encoding: 1637 1637 54
Width: 740
Flags: W
LayerCount: 2
Fore
SplineSet
555 359 m 1,0,1
 560 364 560 364 560.5 367 c 128,-1,2
 561 370 561 370 561 374 c 0,3,4
 561 390 561 390 542.5 420.5 c 128,-1,5
 524 451 524 451 487 502 c 1,6,-1
 486 502 l 1,7,8
 388 624 388 624 313 624 c 0,9,10
 288 624 288 624 244 547 c 0,11,12
 202 472 202 472 202 411 c 2,13,-1
 202 410 l 1,14,-1
 206 368 l 1,15,16
 213 346 213 346 261 319 c 1,17,-1
 263 319 l 1,18,-1
 282 312 l 1,19,-1
 283 311 l 1,20,-1
 314 304 l 1,21,-1
 316 304 l 1,22,-1
 374 300 l 1,23,-1
 396 300 l 1,24,-1
 421 301 l 1,25,-1
 422 301 l 2,26,27
 442 303 442 303 448 306 c 1,28,-1
 473 313 l 2,29,30
 500 320 500 320 520.5 332 c 128,-1,31
 541 344 541 344 556 359 c 1,32,-1
 555 359 l 1,0,1
640 494 m 2,33,34
 640 423 640 423 616 321 c 0,35,36
 593 225 593 225 563 198 c 0,37,38
 513 159 513 159 442 130 c 0,39,40
 425 124 425 124 408 119.5 c 128,-1,41
 391 115 391 115 372 110 c 2,42,-1
 338 105 l 1,43,-1
 305 103 l 2,44,45
 262 103 262 103 221 116.5 c 128,-1,46
 180 130 180 130 143 172 c 0,47,48
 103 215 103 215 103 305 c 0,49,50
 103 454 103 454 206 641 c 0,51,52
 307 823 307 823 390 823 c 0,53,54
 447 823 447 823 522 737 c 0,55,56
 596 651 596 651 635 542 c 1,57,-1
 639 516 l 1,58,-1
 640 494 l 2,33,34
EndSplineSet
EndChar

StartChar: arabicindicdigitsix
Encoding: 1638 1638 55
Width: 770
Flags: W
LayerCount: 2
Fore
SplineSet
634 -57 m 2,0,1
 632 -57 632 -57 632 -55 c 1,2,3
 635 -57 635 -57 636 -57 c 1,4,-1
 634 -57 l 2,0,1
675 150 m 2,5,6
 674 138 674 138 668 107 c 128,-1,7
 662 76 662 76 652 31 c 0,8,9
 630 -43 630 -43 632 -55 c 1,10,11
 621 -48 621 -48 602 -19.5 c 128,-1,12
 583 9 583 9 560 54 c 0,13,14
 522 129 522 129 502 210 c 128,-1,15
 482 291 482 291 482 375 c 2,16,-1
 482 474 l 2,17,18
 485 519 485 519 485.5 549 c 128,-1,19
 486 579 486 579 486 591 c 0,20,21
 487 603 487 603 489.5 625 c 128,-1,22
 492 647 492 647 495 673 c 1,23,-1
 471 698 l 1,24,25
 460 696 460 696 445.5 693 c 128,-1,26
 431 690 431 690 419 688 c 0,27,28
 415 687 415 687 410 687 c 0,29,30
 406 687 406 687 403 686 c 0,31,32
 371 681 371 681 351 678 c 128,-1,33
 331 675 331 675 312 675 c 0,34,35
 230 675 230 675 201 691 c 0,36,37
 145 714 145 714 115 766 c 1,38,-1
 117 763 l 1,39,40
 115 768 115 768 113 775.5 c 128,-1,41
 111 783 111 783 109 789 c 1,42,-1
 107 819 l 2,43,44
 107 859 107 859 133 965 c 1,45,-1
 191 928 l 2,46,47
 236 907 236 907 280.5 896 c 128,-1,48
 325 885 325 885 375 885 c 0,49,50
 406 885 406 885 450 893 c 128,-1,51
 494 901 494 901 546 915 c 1,52,-1
 548 915 l 1,53,-1
 542 885 l 1,54,-1
 542 886 l 1,55,-1
 528 808 l 2,56,57
 527 794 527 794 526 779 c 128,-1,58
 525 764 525 764 524 750 c 2,59,-1
 513 643 l 1,60,-1
 518 643 l 1,61,-1
 518 599 l 1,62,-1
 523 552 l 1,63,-1
 527 516 l 1,64,-1
 545 435 l 2,65,66
 557 388 557 388 574.5 341.5 c 128,-1,67
 592 295 592 295 615 251 c 0,68,69
 630 223 630 223 643 201.5 c 128,-1,70
 656 180 656 180 675 155 c 1,71,-1
 675 150 l 2,5,6
EndSplineSet
EndChar

StartChar: arabicindicdigitseven
Encoding: 1639 1639 56
Width: 919
Flags: W
LayerCount: 2
Fore
SplineSet
814 763 m 1,0,1
 800 749 800 749 776 715.5 c 128,-1,2
 752 682 752 682 720 628 c 0,3,4
 691 579 691 579 661.5 514.5 c 128,-1,5
 632 450 632 450 601 369 c 2,6,-1
 568 271 l 1,7,-1
 510 87 l 2,8,9
 478 -11 478 -11 466 -15 c 1,10,11
 453 -15 453 -15 428 73 c 0,12,13
 416 119 416 119 404 158.5 c 128,-1,14
 392 198 392 198 379 234 c 0,15,16
 368 267 368 267 355.5 297 c 128,-1,17
 343 327 343 327 329 355 c 2,18,-1
 289 442 l 2,19,20
 278 463 278 463 269 480.5 c 128,-1,21
 260 498 260 498 250 514 c 0,22,23
 232 546 232 546 212 576 c 128,-1,24
 192 606 192 606 170 634 c 1,25,-1
 170 635 l 1,26,-1
 119 692 l 1,27,-1
 100 710 l 1,28,-1
 126 784 l 2,29,30
 140 823 140 823 152 849.5 c 128,-1,31
 164 876 164 876 174 889 c 1,32,-1
 217 844 l 1,33,-1
 243 809 l 1,34,-1
 275 759 l 2,35,36
 286 742 286 742 296.5 721 c 128,-1,37
 307 700 307 700 320 674 c 2,38,-1
 418 438 l 1,39,-1
 479 279 l 1,40,-1
 501 279 l 1,41,-1
 544 409 l 1,42,-1
 569 484 l 1,43,-1
 598 562 l 1,44,-1
 626 633 l 1,45,-1
 655 698 l 2,46,47
 670 736 670 736 694.5 776 c 128,-1,48
 719 816 719 816 751 861 c 0,49,50
 770 887 770 887 780.5 901.5 c 128,-1,51
 791 916 791 916 796 921 c 1,52,53
 796 916 796 916 799 895 c 0,54,55
 802 875 802 875 814 763 c 1,0,1
EndSplineSet
EndChar

StartChar: arabicindicdigiteight
Encoding: 1640 1640 57
Width: 903
Flags: W
LayerCount: 2
Fore
SplineSet
793 104 m 2,0,1
 777 47 777 47 764 13.5 c 128,-1,2
 751 -20 751 -20 740 -34 c 1,3,-1
 697 13 l 2,4,5
 681 33 681 33 668 53.5 c 128,-1,6
 655 74 655 74 644 94 c 0,7,8
 637 105 637 105 625.5 127.5 c 128,-1,9
 614 150 614 150 597 186 c 2,10,-1
 558 273 l 1,11,-1
 501 417 l 1,12,-1
 441 573 l 1,13,-1
 419 573 l 1,14,-1
 394 500 l 1,15,-1
 350 382 l 1,16,-1
 315 293 l 1,17,-1
 263 171 l 2,18,19
 246 128 246 128 221.5 84 c 128,-1,20
 197 40 197 40 166 -5 c 0,21,22
 121 -70 121 -70 117 -71 c 1,23,24
 105 -62 105 -62 105 58 c 2,25,-1
 103 115 l 1,26,-1
 195 232 l 1,27,-1
 196 233 l 1,28,29
 223 281 223 281 252 343 c 128,-1,30
 281 405 281 405 313 486 c 2,31,-1
 386 703 l 2,32,33
 439 867 439 867 452 867 c 0,34,35
 469 867 469 867 495 780 c 0,36,37
 514 697 514 697 536 634 c 128,-1,38
 558 571 558 571 590 509 c 0,39,40
 625 431 625 431 655.5 372.5 c 128,-1,41
 686 314 686 314 712 276 c 2,42,-1
 806 152 l 1,43,-1
 793 104 l 2,0,1
EndSplineSet
EndChar

StartChar: arabicindicdigitnine
Encoding: 1641 1641 58
Width: 757
Flags: W
LayerCount: 2
Fore
SplineSet
420 579 m 1,0,1
 412 641 412 641 400 663 c 1,2,3
 374 739 374 739 321 752 c 1,4,-1
 317 752 l 2,5,6
 294 752 294 752 257 709 c 2,7,-1
 256 708 l 1,8,9
 225 665 225 665 225 642 c 1,10,11
 231 628 231 628 251.5 616.5 c 128,-1,12
 272 605 272 605 309 586 c 1,13,-1
 311 586 l 1,14,15
 380 562 380 562 398 562 c 2,16,-1
 400 562 l 1,17,-1
 410 564 l 1,18,-1
 420 579 l 1,0,1
660 111 m 2,19,20
 660 82 660 82 636 -5 c 0,21,22
 610 -95 610 -95 608 -97 c 1,23,24
 584 -92 584 -92 522 52 c 2,25,-1
 499 115 l 1,26,-1
 477 185 l 2,27,28
 469 217 469 217 461 258 c 128,-1,29
 453 299 453 299 445 350 c 1,30,-1
 434 360 l 1,31,-1
 419 363 l 1,32,-1
 370 369 l 2,33,34
 315 369 315 369 258 378 c 0,35,36
 201 388 201 388 154 434 c 1,37,-1
 153 434 l 1,38,39
 107 478 107 478 103 539 c 0,40,41
 103 593 103 593 126.5 657 c 128,-1,42
 150 721 150 721 198 794 c 0,43,44
 294 939 294 939 360 939 c 0,45,46
 427 939 427 939 476 842 c 0,47,48
 529 738 529 738 529 544 c 0,49,50
 529 450 529 450 544.5 368.5 c 128,-1,51
 560 287 560 287 595 217 c 0,52,53
 603 200 603 200 615 180.5 c 128,-1,54
 627 161 627 161 642 138 c 1,55,-1
 643 137 l 1,56,-1
 659 119 l 1,57,-1
 660 111 l 2,19,20
EndSplineSet
EndChar

StartChar: arabicpercentsign
Encoding: 1642 1642 59
Width: 567
Flags: W
LayerCount: 2
Fore
SplineSet
197 869 m 1,0,-1
 31 869 l 1,1,-1
 31 1049 l 1,2,-1
 197 1049 l 1,3,-1
 197 869 l 1,0,-1
520 1049 m 1,4,-1
 109 8 l 1,5,-1
 16 8 l 1,6,-1
 427 1049 l 1,7,-1
 520 1049 l 1,4,-1
508 -7 m 1,8,-1
 341 -7 l 1,9,-1
 341 172 l 1,10,-1
 508 172 l 1,11,-1
 508 -7 l 1,8,-1
EndSplineSet
EndChar

StartChar: arabicfivepointedstar
Encoding: 1645 1645 60
Width: 815
Flags: W
LayerCount: 2
Fore
SplineSet
765 1190 m 1,0,-1
 547 1029 l 1,1,-1
 629 770 l 1,2,-1
 408 928 l 1,3,-1
 187 770 l 1,4,-1
 269 1029 l 1,5,-1
 51 1190 l 1,6,-1
 322 1190 l 1,7,-1
 408 1450 l 1,8,-1
 494 1190 l 1,9,-1
 765 1190 l 1,0,-1
EndSplineSet
EndChar

StartChar: shaddawithdammatanisolated
Encoding: 64606 64606 62
Width: 482
Flags: W
LayerCount: 2
Fore
SplineSet
482 1788 m 0,0,1
 482 1779 482 1779 475 1769 c 1,2,3
 451 1775 451 1775 381 1800 c 1,4,5
 248 1730 248 1730 174 1730 c 0,6,7
 132 1730 132 1730 92 1743 c 1,8,9
 156 1777 156 1777 156 1818 c 0,10,11
 156 1872 156 1872 106 1872 c 1,12,13
 113 1872 113 1872 104 1870.5 c 128,-1,14
 95 1869 95 1869 70 1865 c 1,15,16
 94 1941 94 1941 141 1941 c 0,17,18
 166 1941 166 1941 184.5 1919 c 128,-1,19
 203 1897 203 1897 203 1865 c 0,20,21
 203 1841 203 1841 186 1792 c 1,22,23
 258 1800 258 1800 319 1837 c 1,24,25
 266 1873 266 1873 266 1915 c 0,26,27
 266 1951 266 1951 309 1988 c 0,28,29
 352 2027 352 2027 393 2027 c 0,30,31
 415 2027 415 2027 438 2003 c 0,32,33
 461 1977 461 1977 461 1953 c 0,34,35
 461 1925 461 1925 436 1874 c 1,36,37
 482 1846 482 1846 482 1788 c 0,0,1
455 1677 m 0,38,39
 455 1640 455 1640 447 1609 c 128,-1,40
 439 1578 439 1578 425 1556 c 128,-1,41
 411 1534 411 1534 391.5 1521.5 c 128,-1,42
 372 1509 372 1509 350 1509 c 0,43,44
 330 1509 330 1509 282 1532 c 2,45,-1
 278 1534 l 1,46,47
 233 1450 233 1450 174 1450 c 0,48,49
 94 1450 94 1450 94 1554 c 0,50,51
 94 1583 94 1583 117 1650 c 1,52,-1
 137 1652 l 1,53,54
 141 1552 141 1552 186 1552 c 0,55,56
 233 1552 233 1552 272 1687 c 1,57,-1
 291 1689 l 1,58,59
 307 1616 307 1616 356 1616 c 0,60,61
 407 1616 407 1616 430 1726 c 1,62,-1
 450 1726 l 1,63,64
 452 1715 452 1715 453.5 1703 c 128,-1,65
 455 1691 455 1691 455 1677 c 0,38,39
395 1941 m 0,66,67
 395 1982 395 1982 364 1982 c 0,68,69
 334 1982 334 1982 334 1958 c 256,70,71
 334 1934 334 1934 381 1902 c 1,72,73
 395 1928 395 1928 395 1941 c 0,66,67
EndSplineSet
Ligature2: "'liga' Standard Ligatures in Arabic lookup 7 subtable" shadda dammatan
AlternateSubs2: "'aalt' Access All Alternates in Latin lookup 1 subtable" shaddawithdammatanisolated shaddawithdammatanisolatedlow
EndChar

StartChar: shaddawithkasratanisolated
Encoding: 64607 64607 63
Width: 420
Flags: W
LayerCount: 2
Fore
SplineSet
420 1940 m 0,0,1
 420 1772 420 1772 316 1772 c 0,2,3
 280 1772 280 1772 252 1793 c 1,4,5
 244 1758 244 1758 213 1733 c 0,6,7
 181 1707 181 1707 148 1707 c 0,8,9
 66 1707 66 1707 66 1815 c 0,10,11
 66 1840 66 1840 88 1916 c 1,12,-1
 111 1920 l 1,13,14
 111 1809 111 1809 150 1809 c 0,15,16
 214 1809 214 1809 240 1971 c 1,17,-1
 258 1977 l 1,18,19
 281 1879 281 1879 316 1879 c 0,20,21
 374 1879 374 1879 383 2026 c 1,22,-1
 406 2036 l 1,23,24
 420 1975 420 1975 420 1940 c 0,0,1
412 1773 m 1,25,26
 397 1707 397 1707 353 1687 c 2,27,-1
 70 1560 l 1,28,29
 98 1633 98 1633 156 1659 c 2,30,-1
 412 1773 l 1,25,26
412 1656 m 1,31,32
 397 1594 397 1594 346 1572 c 2,33,-1
 70 1450 l 1,34,35
 90 1520 90 1520 142 1542 c 2,36,-1
 412 1656 l 1,31,32
EndSplineSet
Ligature2: "'liga' Standard Ligatures in Arabic lookup 7 subtable" shadda kasratan
AlternateSubs2: "'aalt' Access All Alternates in Latin lookup 1 subtable" shaddawithkasratanisolated shaddawithkasratanisolatedlow
EndChar

StartChar: shaddawithfathaisolated
Encoding: 64608 64608 64
Width: 414
Flags: W
LayerCount: 2
Fore
SplineSet
408 1845 m 1,0,1
 398 1784 398 1784 359 1769 c 2,2,-1
 64 1653 l 1,3,4
 91 1722 91 1722 150 1745 c 2,5,-1
 408 1845 l 1,0,1
414 1673 m 0,6,7
 414 1638 414 1638 406 1608.5 c 128,-1,8
 398 1579 398 1579 384 1557 c 128,-1,9
 370 1535 370 1535 350.5 1523 c 128,-1,10
 331 1511 331 1511 308 1511 c 0,11,12
 290 1511 290 1511 246 1534 c 2,13,-1
 242 1536 l 1,14,15
 204 1450 204 1450 138 1450 c 0,16,17
 60 1450 60 1450 60 1548 c 1,18,19
 60 1543 60 1543 66 1609 c 1,20,-1
 95 1628 l 1,21,22
 105 1550 105 1550 148 1550 c 0,23,24
 203 1550 203 1550 236 1683 c 1,25,-1
 258 1689 l 1,26,27
 283 1616 283 1616 316 1616 c 0,28,29
 373 1616 373 1616 381 1738 c 1,30,-1
 408 1747 l 1,31,32
 414 1714 414 1714 414 1673 c 0,6,7
EndSplineSet
Ligature2: "'liga' Standard Ligatures in Arabic lookup 7 subtable" shadda fatha
AlternateSubs2: "'aalt' Access All Alternates in Latin lookup 1 subtable" shaddawithfathaisolated shaddawithfathaisolatedlow
EndChar

StartChar: shaddawithdammaisolated
Encoding: 64609 64609 65
Width: 424
Flags: W
LayerCount: 2
Fore
SplineSet
424 1763 m 1,0,1
 381 1769 381 1769 314 1792 c 1,2,3
 192 1694 192 1694 129 1694 c 0,4,5
 107 1694 107 1694 64 1714 c 1,6,7
 130 1736 130 1736 182.5 1760 c 128,-1,8
 235 1784 235 1784 273 1812 c 1,9,10
 224 1849 224 1849 224 1896 c 0,11,12
 224 1938 224 1938 262 1979 c 0,13,14
 301 2019 301 2019 344 2019 c 0,15,16
 366 2019 366 2019 392 1995 c 0,17,18
 418 1972 418 1972 418 1952 c 0,19,20
 418 1907 418 1907 382 1864 c 1,21,22
 390 1860 390 1860 399 1854.5 c 128,-1,23
 408 1849 408 1849 417 1842 c 0,24,25
 424 1835 424 1835 424 1800 c 2,26,-1
 424 1763 l 1,0,1
418 1720 m 1,27,28
 418 1505 418 1505 310 1505 c 0,29,30
 268 1505 268 1505 240 1530 c 1,31,32
 208 1450 208 1450 136 1450 c 0,33,34
 58 1450 58 1450 58 1548 c 0,35,36
 58 1592 58 1592 80 1632 c 1,37,-1
 101 1634 l 1,38,39
 107 1552 107 1552 148 1552 c 0,40,41
 194 1552 194 1552 236 1671 c 1,42,-1
 260 1677 l 1,43,44
 272 1610 272 1610 314 1610 c 0,45,46
 370 1610 370 1610 394 1714 c 1,47,-1
 418 1720 l 1,27,28
353 1927 m 0,48,49
 353 1976 353 1976 310 1976 c 0,50,51
 285 1976 285 1976 285 1946 c 0,52,53
 285 1922 285 1922 344 1884 c 1,54,55
 353 1908 353 1908 353 1927 c 0,48,49
EndSplineSet
Ligature2: "'liga' Standard Ligatures in Arabic lookup 7 subtable" shadda damma
AlternateSubs2: "'aalt' Access All Alternates in Latin lookup 1 subtable" shaddawithdammaisolated shaddawithdammaisolatedlow
EndChar

StartChar: shaddawithkasraisolated
Encoding: 64610 64610 66
Width: 420
Flags: W
LayerCount: 2
Fore
SplineSet
420 1830 m 0,0,1
 420 1662 420 1662 316 1662 c 0,2,3
 280 1662 280 1662 252 1683 c 1,4,5
 244 1648 244 1648 213 1623 c 0,6,7
 181 1597 181 1597 148 1597 c 0,8,9
 66 1597 66 1597 66 1705 c 0,10,11
 66 1730 66 1730 88 1806 c 1,12,-1
 111 1810 l 1,13,14
 111 1699 111 1699 150 1699 c 0,15,16
 214 1699 214 1699 240 1861 c 1,17,-1
 258 1867 l 1,18,19
 281 1769 281 1769 316 1769 c 0,20,21
 374 1769 374 1769 383 1916 c 1,22,-1
 406 1926 l 1,23,24
 420 1865 420 1865 420 1830 c 0,0,1
412 1663 m 1,25,26
 397 1597 397 1597 353 1577 c 2,27,-1
 70 1450 l 1,28,29
 98 1523 98 1523 156 1549 c 2,30,-1
 412 1663 l 1,25,26
EndSplineSet
Ligature2: "'liga' Standard Ligatures in Arabic lookup 7 subtable" shadda kasra
AlternateSubs2: "'aalt' Access All Alternates in Latin lookup 1 subtable" shaddawithkasraisolated shaddawithkasraisolatedlow
EndChar

StartChar: shaddawithfathamedial
Encoding: 64754 64754 67
Width: 1284
Flags: W
LayerCount: 2
Fore
SplineSet
807 1552 m 1,0,1
 807 1486 807 1486 772 1466 c 2,2,-1
 469 1294 l 1,3,4
 472 1332 472 1332 483 1353 c 0,5,6
 495 1373 495 1373 535 1395 c 2,7,-1
 807 1552 l 1,0,1
819 1263 m 0,8,9
 819 1095 819 1095 715 1095 c 0,10,11
 679 1095 679 1095 651 1116 c 1,12,13
 643 1081 643 1081 612 1056 c 0,14,15
 580 1030 580 1030 547 1030 c 0,16,17
 465 1030 465 1030 465 1138 c 0,18,19
 465 1163 465 1163 487 1239 c 1,20,-1
 510 1243 l 1,21,22
 510 1132 510 1132 549 1132 c 0,23,24
 613 1132 613 1132 639 1294 c 1,25,-1
 657 1300 l 1,26,27
 680 1202 680 1202 715 1202 c 0,28,29
 773 1202 773 1202 782 1349 c 1,30,-1
 805 1359 l 1,31,32
 819 1298 819 1298 819 1263 c 0,8,9
1354 129 m 1,33,-1
 0 129 l 1,34,-1
 0 250 l 1,35,-1
 1354 250 l 1,36,-1
 1354 129 l 1,33,-1
EndSplineSet
Ligature2: "'liga' Standard Ligatures in Arabic lookup 6 subtable" tatweel shadda fatha
EndChar

StartChar: shaddawithdammamedial
Encoding: 64755 64755 68
Width: 1284
Flags: W
LayerCount: 2
Fore
SplineSet
813 1503 m 1,0,-1
 805 1404 l 1,1,-1
 725 1456 l 1,2,3
 605 1312 605 1312 528 1312 c 0,4,5
 509 1312 509 1312 469 1324 c 1,6,7
 571 1381 571 1381 682 1480 c 1,8,9
 621 1525 621 1525 621 1570 c 0,10,11
 621 1630 621 1630 666 1695 c 0,12,13
 696 1738 696 1738 737 1738 c 0,14,15
 805 1738 805 1738 805 1650 c 0,16,17
 805 1599 805 1599 774 1533 c 1,18,19
 787 1522 787 1522 813 1503 c 1,0,-1
819 1263 m 0,20,21
 819 1095 819 1095 715 1095 c 0,22,23
 679 1095 679 1095 651 1116 c 1,24,25
 643 1081 643 1081 612 1056 c 0,26,27
 580 1030 580 1030 547 1030 c 0,28,29
 465 1030 465 1030 465 1138 c 0,30,31
 465 1163 465 1163 487 1239 c 1,32,-1
 510 1243 l 1,33,34
 510 1132 510 1132 549 1132 c 0,35,36
 613 1132 613 1132 639 1294 c 1,37,-1
 657 1300 l 1,38,39
 680 1202 680 1202 715 1202 c 0,40,41
 773 1202 773 1202 782 1349 c 1,42,-1
 805 1359 l 1,43,44
 819 1298 819 1298 819 1263 c 0,20,21
743 1591 m 0,45,46
 743 1614 743 1614 727 1633 c 128,-1,47
 711 1652 711 1652 690 1652 c 0,48,49
 672 1652 672 1652 672 1632 c 0,50,51
 672 1601 672 1601 737 1557 c 1,52,53
 743 1576 743 1576 743 1591 c 0,45,46
1354 129 m 1,54,-1
 0 129 l 1,55,-1
 0 250 l 1,56,-1
 1354 250 l 1,57,-1
 1354 129 l 1,54,-1
EndSplineSet
Ligature2: "'liga' Standard Ligatures in Arabic lookup 6 subtable" tatweel shadda damma
EndChar

StartChar: shaddawithkasramedial
Encoding: 64756 64756 69
Width: 1284
Flags: W
LayerCount: 2
Fore
SplineSet
819 1491 m 0,0,1
 819 1323 819 1323 715 1323 c 0,2,3
 679 1323 679 1323 651 1344 c 1,4,5
 643 1309 643 1309 612 1284 c 0,6,7
 580 1258 580 1258 547 1258 c 0,8,9
 465 1258 465 1258 465 1366 c 0,10,11
 465 1391 465 1391 487 1467 c 1,12,-1
 510 1471 l 1,13,14
 510 1360 510 1360 549 1360 c 0,15,16
 613 1360 613 1360 639 1522 c 1,17,-1
 657 1528 l 1,18,19
 680 1430 680 1430 715 1430 c 0,20,21
 773 1430 773 1430 782 1577 c 1,22,-1
 805 1587 l 1,23,24
 819 1526 819 1526 819 1491 c 0,0,1
807 1288 m 1,25,26
 807 1222 807 1222 772 1202 c 2,27,-1
 469 1030 l 1,28,29
 472 1068 472 1068 483 1089 c 0,30,31
 495 1109 495 1109 535 1131 c 2,32,-1
 807 1288 l 1,25,26
1354 129 m 1,33,-1
 0 129 l 1,34,-1
 0 250 l 1,35,-1
 1354 250 l 1,36,-1
 1354 129 l 1,33,-1
EndSplineSet
Ligature2: "'liga' Standard Ligatures in Arabic lookup 6 subtable" tatweel shadda kasra
EndChar

StartChar: ornateleftparenthesis
Encoding: 64830 64830 70
Width: 1135
Flags: W
LayerCount: 2
Fore
SplineSet
1075 -612 m 0,0,1
 1075 -627 1075 -627 1051 -627 c 0,2,3
 975 -627 975 -627 822 -476 c 0,4,5
 621 -280 621 -280 508 23 c 1,6,7
 299 26 299 26 299 78 c 1,8,9
 436 222 436 222 436 301 c 1,10,11
 374 301 374 301 302.5 227.5 c 128,-1,12
 231 154 231 154 221 154 c 0,13,14
 183 154 183 154 166 317 c 1,15,16
 55 371 55 371 55 412 c 0,17,18
 55 458 55 458 160 520 c 1,19,20
 171 676 171 676 209 676 c 1,21,22
 362 532 362 532 436 532 c 1,23,24
 429 609 429 609 358 678 c 128,-1,25
 287 747 287 747 287 756 c 0,26,27
 287 772 287 772 348 791 c 0,28,29
 417 812 417 812 502 815 c 1,30,31
 574 1032 574 1032 697 1203 c 0,32,33
 792 1336 792 1336 901 1422 c 0,34,35
 988 1491 988 1491 1024 1491 c 0,36,37
 1044 1491 1044 1491 1044 1468 c 0,38,39
 1044 1458 1044 1458 971 1377 c 0,40,41
 881 1276 881 1276 824 1169 c 0,42,43
 735 1005 735 1005 705 805 c 1,44,45
 805 789 805 789 805 760 c 1,46,47
 664 618 664 618 664 539 c 1,48,49
 736 539 736 539 879 686 c 1,50,51
 897 686 897 686 916 633 c 128,-1,52
 935 580 935 580 938 522 c 1,53,54
 1044 467 1044 467 1044 422 c 0,55,56
 1044 385 1044 385 944 326 c 1,57,58
 936 166 936 166 889 166 c 1,59,-1
 821 231 l 2,60,61
 752 299 752 299 668 307 c 1,62,63
 668 236 668 236 741.5 164 c 128,-1,64
 815 92 815 92 815 80 c 0,65,66
 815 57 815 57 707 35 c 1,67,68
 739 -128 739 -128 837.5 -301.5 c 128,-1,69
 936 -475 936 -475 1055 -578 c 0,70,71
 1075 -595 1075 -595 1075 -612 c 0,0,1
956 1417 m 1,72,73
 678 1229 678 1229 528 768 c 1,74,75
 407 762 407 762 387 759 c 0,76,77
 362 755 362 755 362 743 c 1,78,-1
 401 705 l 2,79,80
 449 660 449 660 479 600 c 1,81,82
 524 682 524 682 553 682 c 0,83,84
 572 682 572 682 618 600 c 1,85,86
 628 624 628 624 683 673 c 0,87,88
 731 716 731 716 731 750 c 0,89,90
 731 760 731 760 701 766 c 2,91,-1
 655 774 l 1,92,93
 714 1018 714 1018 753 1109 c 0,94,95
 812 1247 812 1247 956 1417 c 1,72,73
989 428 m 0,96,97
 989 454 989 454 897 485 c 1,98,99
 886 612 886 612 872 612 c 0,100,101
 864 612 864 612 818 565 c 0,102,103
 766 512 766 512 713 492 c 1,104,105
 809 450 809 450 809 418 c 0,106,107
 809 385 809 385 717 350 c 1,108,109
 783 328 783 328 834 280 c 2,110,-1
 879 238 l 1,111,112
 897 238 897 238 897 354 c 1,113,114
 989 406 989 406 989 428 c 0,96,97
680 418 m 0,115,116
 680 471 680 471 642 509 c 128,-1,117
 604 547 604 547 551 547 c 0,118,119
 497 547 497 547 459.5 509 c 128,-1,120
 422 471 422 471 422 418 c 0,121,122
 422 366 422 366 459.5 329.5 c 128,-1,123
 497 293 497 293 551 293 c 0,124,125
 604 293 604 293 642 329.5 c 128,-1,126
 680 366 680 366 680 418 c 0,115,116
387 348 m 1,127,128
 293 390 293 390 293 422 c 0,129,130
 293 456 293 456 385 489 c 1,131,132
 358 498 358 498 304 553 c 0,133,134
 257 602 257 602 221 602 c 0,135,136
 203 602 203 602 203 485 c 1,137,138
 111 433 111 433 111 412 c 0,139,140
 111 387 111 387 203 354 c 1,141,142
 214 227 214 227 227 227 c 0,143,144
 235 227 235 227 282 274 c 0,145,146
 334 328 334 328 387 348 c 1,127,128
1001 -571 m 1,147,148
 888 -469 888 -469 800 -315 c 0,149,150
 694 -130 694 -130 664 68 c 1,151,152
 743 75 743 75 743 90 c 1,153,-1
 700 131 l 2,154,155
 649 178 649 178 618 240 c 1,156,157
 581 158 581 158 551 158 c 0,158,159
 511 158 511 158 483 240 c 1,160,161
 455 173 455 173 410 127 c 2,162,-1
 373 86 l 1,163,164
 373 78 373 78 465 68 c 0,165,166
 490 68 490 68 535 72 c 1,167,168
 672 -359 672 -359 1001 -571 c 1,147,148
EndSplineSet
EndChar

StartChar: ornaterightparenthesis
Encoding: 64831 64831 71
Width: 1135
Flags: W
LayerCount: 2
Fore
SplineSet
1079 453 m 0,0,1
 1079 405 1079 405 975 344 c 1,2,3
 964 188 964 188 926 188 c 1,4,5
 773 332 773 332 698 332 c 1,6,7
 706 255 706 255 777 186.5 c 128,-1,8
 848 118 848 118 848 109 c 0,9,10
 848 93 848 93 787 73 c 0,11,12
 718 52 718 52 633 49 c 1,13,14
 561 -168 561 -168 438 -339 c 0,15,16
 343 -472 343 -472 234 -558 c 0,17,18
 147 -627 147 -627 111 -627 c 0,19,20
 90 -627 90 -627 90 -606 c 0,21,22
 90 -596 90 -596 163 -514 c 0,23,24
 253 -412 253 -412 311 -306 c 0,25,26
 399 -142 399 -142 430 59 c 1,27,28
 330 76 330 76 330 104 c 1,29,30
 471 247 471 247 471 326 c 1,31,32
 398 326 398 326 256 178 c 1,33,34
 237 178 237 178 218.5 230.5 c 128,-1,35
 200 283 200 283 197 342 c 1,36,37
 90 398 90 398 90 442 c 0,38,39
 90 480 90 480 190 539 c 1,40,41
 200 698 200 698 246 698 c 1,42,-1
 314 633 l 2,43,44
 383 565 383 565 467 557 c 1,45,46
 467 629 467 629 393 701 c 128,-1,47
 319 773 319 773 319 784 c 0,48,49
 319 807 319 807 428 829 c 1,50,51
 396 993 396 993 297.5 1166 c 128,-1,52
 199 1339 199 1339 80 1442 c 0,53,54
 59 1460 59 1460 59 1475 c 0,55,56
 59 1491 59 1491 84 1491 c 0,57,58
 160 1491 160 1491 313 1341 c 0,59,60
 514 1144 514 1144 627 842 c 1,61,62
 836 839 836 839 836 786 c 1,63,64
 698 642 698 642 698 563 c 1,65,66
 760 563 760 563 832 637 c 128,-1,67
 904 711 904 711 913 711 c 0,68,69
 951 711 951 711 969 547 c 1,70,71
 1079 493 1079 493 1079 453 c 0,0,1
762 778 m 1,72,73
 762 787 762 787 670 797 c 0,74,75
 645 797 645 797 600 793 c 1,76,77
 460 1223 460 1223 133 1436 c 1,78,79
 247 1331 247 1331 335 1178 c 0,80,81
 441 993 441 993 471 797 c 1,82,83
 391 790 391 790 391 774 c 1,84,-1
 434 733 l 2,85,86
 486 687 486 687 516 625 c 1,87,88
 555 707 555 707 584 707 c 0,89,90
 624 707 624 707 651 625 c 1,91,92
 679 691 679 691 724 737 c 2,93,-1
 762 778 l 1,72,73
1024 453 m 0,94,95
 1024 476 1024 476 932 510 c 1,96,97
 921 637 921 637 907 637 c 0,98,99
 899 637 899 637 853 590 c 0,100,101
 801 536 801 536 748 516 c 1,102,103
 842 474 842 474 842 442 c 0,104,105
 842 408 842 408 750 375 c 1,106,107
 777 366 777 366 830 311 c 0,108,109
 877 262 877 262 913 262 c 0,110,111
 932 262 932 262 932 379 c 1,112,113
 1024 433 1024 433 1024 453 c 0,94,95
713 446 m 0,114,115
 713 498 713 498 675 534.5 c 128,-1,116
 637 571 637 571 584 571 c 256,117,118
 531 571 531 571 493 534.5 c 128,-1,119
 455 498 455 498 455 446 c 0,120,121
 455 393 455 393 493 355 c 128,-1,122
 531 317 531 317 584 317 c 256,123,124
 637 317 637 317 675 355 c 128,-1,125
 713 393 713 393 713 446 c 0,114,115
422 373 m 1,126,127
 326 413 326 413 326 446 c 0,128,129
 326 481 326 481 418 514 c 1,130,131
 351 536 351 536 300 584 c 2,132,-1
 256 627 l 1,133,134
 238 627 238 627 238 510 c 1,135,136
 145 458 145 458 145 436 c 0,137,138
 145 410 145 410 238 379 c 1,139,140
 249 252 249 252 262 252 c 0,141,142
 270 252 270 252 317 299 c 0,143,144
 369 353 369 353 422 373 c 1,126,127
772 121 m 1,145,-1
 733 160 l 2,146,147
 686 204 686 204 655 264 c 1,148,149
 612 182 612 182 582 182 c 0,150,151
 562 182 562 182 516 264 c 1,152,153
 494 209 494 209 446 160 c 2,154,-1
 403 115 l 1,155,156
 403 105 403 105 434 98 c 0,157,158
 456 94 456 94 479 90 c 1,159,160
 422 -153 422 -153 382 -246 c 0,161,162
 323 -382 323 -382 178 -553 c 1,163,164
 458 -364 458 -364 606 96 c 1,165,166
 727 102 727 102 749.5 105.5 c 128,-1,167
 772 109 772 109 772 121 c 1,145,-1
EndSplineSet
EndChar

StartChar: allahisolated
Encoding: 65010 65010 72
Width: 1245
Flags: W
LayerCount: 2
Fore
SplineSet
771 1176 m 2,0,1
 771 1171 771 1171 768.5 1162.5 c 128,-1,2
 766 1154 766 1154 762 1145 c 128,-1,3
 758 1136 758 1136 752.5 1129 c 128,-1,4
 747 1122 747 1122 742 1121 c 1,5,-1
 742 1152 l 2,6,7
 742 1210 742 1210 693 1280 c 1,8,-1
 726 1328 l 1,9,10
 747 1298 747 1298 759 1264 c 0,11,12
 764 1250 764 1250 768 1231 c 128,-1,13
 772 1212 772 1212 772 1196 c 2,14,-1
 771 1176 l 2,0,1
871 1000 m 2,15,16
 868 984 868 984 859 960 c 0,17,18
 841 907 841 907 801 907 c 0,19,20
 763 907 763 907 744 923 c 1,21,22
 740 919 740 919 733 912.5 c 128,-1,23
 726 906 726 906 717.5 899.5 c 128,-1,24
 709 893 709 893 699.5 887.5 c 128,-1,25
 690 882 690 882 681 880 c 2,26,-1
 653 876 l 1,27,28
 598 876 598 876 598 936 c 0,29,30
 598 977 598 977 616 1022 c 0,31,32
 631 1064 631 1064 649 1064 c 1,33,-1
 654 1041 l 1,34,35
 654 1038 654 1038 651.5 1029 c 128,-1,36
 649 1020 649 1020 640 986 c 1,37,38
 640 952 640 952 671 945 c 1,39,40
 718 945 718 945 735 1019 c 0,41,42
 741 1062 741 1062 764 1062 c 1,43,-1
 764 1057 l 1,44,-1
 764 1050 l 1,45,-1
 764 1038 l 1,46,-1
 764 1017 l 2,47,48
 764 978 764 978 814 978 c 0,49,50
 827 978 827 978 834 1000 c 1,51,52
 834 1019 834 1019 833.5 1025 c 128,-1,53
 833 1031 833 1031 832 1033 c 1,54,55
 832 1067 832 1067 878 1110 c 1,56,-1
 871 1000 l 2,15,16
1141 316 m 0,57,58
 1141 190 1141 190 1119 130 c 0,59,60
 1083 22 1083 22 987 22 c 0,61,62
 935 22 935 22 891 60 c 0,63,64
 856 92 856 92 828 146 c 2,65,-1
 816 179 l 2,66,67
 809 195 809 195 797 205 c 1,68,69
 788 133 788 133 727 72 c 0,70,71
 650 -2 650 -2 552 -2 c 0,72,73
 459 -2 459 -2 422 82 c 0,74,75
 397 136 397 136 397 252 c 1,76,-1
 357 220 l 1,77,-1
 310 192 l 1,78,79
 287 183 287 183 272 178 c 128,-1,80
 257 173 257 173 247 170 c 128,-1,81
 237 167 237 167 231 166.5 c 128,-1,82
 225 166 225 166 219 166 c 0,83,84
 168 166 168 166 125 175 c 0,85,86
 82 185 82 185 75 210 c 1,87,88
 75 242 75 242 115 318 c 0,89,90
 131 348 131 348 146 372 c 128,-1,91
 161 396 161 396 177 413 c 0,92,93
 185 422 185 422 195 431.5 c 128,-1,94
 205 441 205 441 220 452 c 128,-1,95
 235 463 235 463 256.5 477.5 c 128,-1,96
 278 492 278 492 309 511 c 2,97,-1
 364 536 l 1,98,99
 364 565 364 565 388 607 c 1,100,-1
 439 671 l 1,101,-1
 446 355 l 2,102,103
 446 246 446 246 455 212 c 0,104,105
 462 180 462 180 495 156 c 0,106,107
 526 135 526 135 583 135 c 0,108,109
 674 135 674 135 715 185 c 0,110,111
 734 210 734 210 745 243 c 1,112,-1
 755 322 l 1,113,-1
 755 371 l 1,114,-1
 750 453 l 1,115,-1
 750 470 l 2,116,117
 750 481 750 481 748 491 c 128,-1,118
 746 501 746 501 741 524 c 2,119,-1
 720 691 l 1,120,-1
 790 825 l 1,121,122
 795 823 795 823 804 781 c 1,123,-1
 814 611 l 1,124,-1
 814 546 l 1,125,-1
 819 453 l 2,126,127
 819 347 819 347 848 272 c 0,128,129
 890 163 890 163 976 163 c 0,130,131
 1028 163 1028 163 1050 185 c 0,132,133
 1059 194 1059 194 1065.5 215.5 c 128,-1,134
 1072 237 1072 237 1072 261 c 2,135,-1
 1072 300 l 2,136,137
 1071 309 1071 309 1069.5 317.5 c 128,-1,138
 1068 326 1068 326 1065.5 342.5 c 128,-1,139
 1063 359 1063 359 1057.5 388 c 128,-1,140
 1052 417 1052 417 1043.5 467 c 128,-1,141
 1035 517 1035 517 1021.5 591 c 128,-1,142
 1008 665 1008 665 989 773 c 1,143,-1
 1060 919 l 1,144,-1
 1095 731 l 2,145,146
 1120 547 1120 547 1130.5 446 c 128,-1,147
 1141 345 1141 345 1141 316 c 0,57,58
380 457 m 1,148,149
 350 448 350 448 323 436 c 0,150,151
 304 425 304 425 298 422 c 128,-1,152
 292 419 292 419 290 417 c 0,153,154
 284 413 284 413 279.5 409.5 c 128,-1,155
 275 406 275 406 272 404 c 0,156,157
 250 387 250 387 230.5 367 c 128,-1,158
 211 347 211 347 194 325 c 1,159,-1
 234 307 l 1,160,-1
 311 307 l 1,161,-1
 361 318 l 1,162,-1
 384 327 l 1,163,-1
 380 457 l 1,148,149
EndSplineSet
Ligature2: "'liga' Standard Ligatures in Arabic lookup 6 subtable" laminitial lammedial hehfinal
EndChar

StartChar: fathatanisolated
Encoding: 65136 65136 73
Width: 408
Flags: W
LayerCount: 2
Fore
SplineSet
408 2054 m 1,0,1
 408 1988 408 1988 373 1968 c 2,2,-1
 70 1796 l 1,3,4
 73 1834 73 1834 84 1855 c 0,5,6
 96 1875 96 1875 136 1897 c 2,7,-1
 408 2054 l 1,0,1
408 1908 m 1,8,9
 408 1842 408 1842 373 1822 c 2,10,-1
 70 1650 l 1,11,12
 73 1688 73 1688 84 1709 c 0,13,14
 96 1729 96 1729 136 1751 c 2,15,-1
 408 1908 l 1,8,9
EndSplineSet
EndChar

StartChar: tatweelwithfathatanabove
Encoding: 65137 65137 74
Width: 1284
Flags: W
LayerCount: 2
Fore
SplineSet
811 1434 m 1,0,1
 811 1368 811 1368 776 1348 c 2,2,-1
 473 1176 l 1,3,4
 476 1214 476 1214 487 1235 c 0,5,6
 499 1255 499 1255 539 1277 c 2,7,-1
 811 1434 l 1,0,1
811 1288 m 1,8,9
 811 1222 811 1222 776 1202 c 2,10,-1
 473 1030 l 1,11,12
 476 1068 476 1068 487 1089 c 0,13,14
 499 1109 499 1109 539 1131 c 2,15,-1
 811 1288 l 1,8,9
1354 129 m 1,16,-1
 0 129 l 1,17,-1
 0 250 l 1,18,-1
 1354 250 l 1,19,-1
 1354 129 l 1,16,-1
EndSplineSet
Ligature2: "'liga' Standard Ligatures in Arabic lookup 6 subtable" tatweel fathatan
EndChar

StartChar: dammatanisolated
Encoding: 65138 65138 75
Width: 463
Flags: W
LayerCount: 2
Fore
SplineSet
463 1582 m 0,0,1
 463 1565 463 1565 462.5 1550 c 128,-1,2
 462 1535 462 1535 461 1523 c 1,3,4
 441 1534 441 1534 418 1548.5 c 128,-1,5
 395 1563 395 1563 369 1582 c 1,6,7
 243 1453 243 1453 129 1437 c 1,8,9
 172 1526 172 1526 172 1566 c 0,10,11
 172 1621 172 1621 123 1621 c 0,12,13
 81 1621 81 1621 74 1545 c 1,14,15
 64 1574 64 1574 64 1597 c 256,16,17
 64 1620 64 1620 70.5 1640 c 128,-1,18
 77 1660 77 1660 88.5 1675 c 128,-1,19
 100 1690 100 1690 115 1698.5 c 128,-1,20
 130 1707 130 1707 148 1707 c 0,21,22
 215 1707 215 1707 215 1607 c 2,23,-1
 209 1515 l 1,24,25
 274 1540 274 1540 333 1605 c 1,26,27
 267 1648 267 1648 267 1699 c 0,28,29
 267 1752 267 1752 307 1798 c 0,30,31
 347 1846 347 1846 389 1846 c 0,32,33
 411 1846 411 1846 434 1819 c 0,34,35
 457 1793 457 1793 457 1766 c 0,36,37
 457 1736 457 1736 446 1708 c 128,-1,38
 424 1652 l 1,39,40
 463 1622 463 1622 463 1582 c 0,0,1
387 1726 m 0,41,42
 387 1779 387 1779 346 1779 c 0,43,44
 320 1779 320 1779 320 1756 c 0,45,46
 320 1730 320 1730 383 1687 c 1,47,48
 387 1696 387 1696 387 1726 c 0,41,42
EndSplineSet
EndChar

StartChar: kasratanisolated
Encoding: 65140 65140 76
Width: 408
Flags: W
LayerCount: 2
Fore
SplineSet
408 -620 m 1,0,1
 408 -686 408 -686 373 -706 c 2,2,-1
 70 -878 l 1,3,4
 73 -840 73 -840 84 -818 c 1,5,6
 97 -800 97 -800 136 -777 c 2,7,-1
 408 -620 l 1,0,1
408 -767 m 1,8,9
 408 -833 408 -833 373 -853 c 2,10,-1
 70 -1025 l 1,11,12
 73 -987 73 -987 84 -965 c 1,13,14
 97 -947 97 -947 136 -924 c 2,15,-1
 408 -767 l 1,8,9
EndSplineSet
EndChar

StartChar: fathaisolated
Encoding: 65142 65142 77
Width: 408
Flags: W
LayerCount: 2
Fore
SplineSet
408 1708 m 1,0,1
 408 1642 408 1642 373 1622 c 2,2,-1
 70 1450 l 1,3,4
 73 1488 73 1488 84 1509 c 0,5,6
 96 1529 96 1529 136 1551 c 2,7,-1
 408 1708 l 1,0,1
EndSplineSet
EndChar

StartChar: fathamedial
Encoding: 65143 65143 78
Width: 1284
Flags: W
LayerCount: 2
Fore
SplineSet
811 1288 m 1,0,1
 811 1222 811 1222 776 1202 c 2,2,-1
 473 1030 l 1,3,4
 476 1068 476 1068 487 1089 c 0,5,6
 499 1109 499 1109 539 1131 c 2,7,-1
 811 1288 l 1,0,1
1354 129 m 1,8,-1
 0 129 l 1,9,-1
 0 250 l 1,10,-1
 1354 250 l 1,11,-1
 1354 129 l 1,8,-1
EndSplineSet
Ligature2: "'liga' Standard Ligatures in Arabic lookup 6 subtable" tatweel fatha
EndChar

StartChar: dammaisolated
Encoding: 65144 65144 79
Width: 414
Flags: W
LayerCount: 2
Fore
SplineSet
414 1641 m 1,0,-1
 406 1542 l 1,1,-1
 326 1594 l 1,2,3
 206 1450 206 1450 129 1450 c 0,4,5
 110 1450 110 1450 70 1462 c 1,6,7
 172 1519 172 1519 283 1618 c 1,8,9
 222 1663 222 1663 222 1708 c 0,10,11
 222 1768 222 1768 267 1833 c 0,12,13
 297 1876 297 1876 338 1876 c 0,14,15
 406 1876 406 1876 406 1788 c 0,16,17
 406 1737 406 1737 375 1671 c 1,18,19
 388 1660 388 1660 414 1641 c 1,0,-1
344 1729 m 0,20,21
 344 1752 344 1752 328 1771 c 128,-1,22
 312 1790 312 1790 291 1790 c 0,23,24
 273 1790 273 1790 273 1770 c 0,25,26
 273 1739 273 1739 338 1695 c 1,27,28
 344 1714 344 1714 344 1729 c 0,20,21
EndSplineSet
EndChar

StartChar: dammamedial
Encoding: 65145 65145 80
Width: 1284
Flags: W
LayerCount: 2
Fore
SplineSet
814 1221 m 1,0,-1
 806 1122 l 1,1,-1
 726 1174 l 1,2,3
 606 1030 606 1030 529 1030 c 0,4,5
 510 1030 510 1030 470 1042 c 1,6,7
 572 1099 572 1099 683 1198 c 1,8,9
 622 1243 622 1243 622 1288 c 0,10,11
 622 1348 622 1348 667 1413 c 0,12,13
 697 1456 697 1456 738 1456 c 0,14,15
 806 1456 806 1456 806 1368 c 0,16,17
 806 1317 806 1317 775 1251 c 1,18,19
 788 1240 788 1240 814 1221 c 1,0,-1
744 1309 m 0,20,21
 744 1332 744 1332 728 1351 c 128,-1,22
 712 1370 712 1370 691 1370 c 0,23,24
 673 1370 673 1370 673 1350 c 0,25,26
 673 1319 673 1319 738 1275 c 1,27,28
 744 1294 744 1294 744 1309 c 0,20,21
1354 129 m 1,29,-1
 0 129 l 1,30,-1
 0 250 l 1,31,-1
 1354 250 l 1,32,-1
 1354 129 l 1,29,-1
EndSplineSet
Ligature2: "'liga' Standard Ligatures in Arabic lookup 6 subtable" tatweel damma
EndChar

StartChar: kasraisolated
Encoding: 65146 65146 81
Width: 408
Flags: W
LayerCount: 2
Fore
SplineSet
408 -620 m 1,0,1
 408 -686 408 -686 373 -706 c 2,2,-1
 70 -878 l 1,3,4
 73 -840 73 -840 84 -818 c 1,5,6
 97 -800 97 -800 136 -777 c 2,7,-1
 408 -620 l 1,0,1
EndSplineSet
EndChar

StartChar: kasramedial
Encoding: 65147 65147 82
Width: 1284
Flags: W
LayerCount: 2
Fore
SplineSet
811 -71 m 1,0,1
 811 -137 811 -137 776 -157 c 2,2,-1
 473 -329 l 1,3,4
 476 -291 476 -291 487 -269 c 1,5,6
 500 -251 500 -251 539 -228 c 2,7,-1
 811 -71 l 1,0,1
1354 129 m 1,8,-1
 0 129 l 1,9,-1
 0 250 l 1,10,-1
 1354 250 l 1,11,-1
 1354 129 l 1,8,-1
EndSplineSet
Ligature2: "'liga' Standard Ligatures in Arabic lookup 6 subtable" tatweel kasra
EndChar

StartChar: shaddaisolated
Encoding: 65148 65148 83
Width: 420
Flags: W
LayerCount: 2
Fore
SplineSet
420 1683 m 0,0,1
 420 1515 420 1515 316 1515 c 0,2,3
 280 1515 280 1515 252 1536 c 1,4,5
 244 1501 244 1501 213 1476 c 0,6,7
 181 1450 181 1450 148 1450 c 0,8,9
 66 1450 66 1450 66 1558 c 0,10,11
 66 1583 66 1583 88 1659 c 1,12,-1
 111 1663 l 1,13,14
 111 1552 111 1552 150 1552 c 0,15,16
 214 1552 214 1552 240 1714 c 1,17,-1
 258 1720 l 1,18,19
 281 1622 281 1622 316 1622 c 0,20,21
 374 1622 374 1622 383 1769 c 1,22,-1
 406 1779 l 1,23,24
 420 1718 420 1718 420 1683 c 0,0,1
EndSplineSet
EndChar

StartChar: shaddamedial
Encoding: 65149 65149 84
Width: 1284
Flags: W
LayerCount: 2
Fore
SplineSet
819 1263 m 0,0,1
 819 1095 819 1095 715 1095 c 0,2,3
 679 1095 679 1095 651 1116 c 1,4,5
 643 1081 643 1081 612 1056 c 0,6,7
 580 1030 580 1030 547 1030 c 0,8,9
 465 1030 465 1030 465 1138 c 0,10,11
 465 1163 465 1163 487 1239 c 1,12,-1
 510 1243 l 1,13,14
 510 1132 510 1132 549 1132 c 0,15,16
 613 1132 613 1132 639 1294 c 1,17,-1
 657 1300 l 1,18,19
 680 1202 680 1202 715 1202 c 0,20,21
 773 1202 773 1202 782 1349 c 1,22,-1
 805 1359 l 1,23,24
 819 1298 819 1298 819 1263 c 0,0,1
1354 129 m 1,25,-1
 0 129 l 1,26,-1
 0 250 l 1,27,-1
 1354 250 l 1,28,-1
 1354 129 l 1,25,-1
EndSplineSet
Ligature2: "'liga' Standard Ligatures in Arabic lookup 6 subtable" tatweel shadda
EndChar

StartChar: sukunisolated
Encoding: 65150 65150 85
Width: 332
Flags: W
LayerCount: 2
Fore
SplineSet
332 1614 m 0,0,1
 332 1549 332 1549 286 1500 c 0,2,3
 239 1450 239 1450 181 1450 c 0,4,5
 74 1450 74 1450 74 1571 c 0,6,7
 74 1655 74 1655 112 1708 c 0,8,9
 149 1762 149 1762 211 1762 c 0,10,11
 258 1762 258 1762 295 1716 c 0,12,13
 332 1673 332 1673 332 1614 c 0,0,1
277 1590 m 0,14,15
 277 1616 277 1616 234 1647 c 0,16,17
 193 1676 193 1676 166 1676 c 0,18,19
 107 1676 107 1676 107 1608 c 0,20,21
 107 1549 107 1549 199 1549 c 0,22,23
 277 1549 277 1549 277 1590 c 0,14,15
EndSplineSet
EndChar

StartChar: sukunmedial
Encoding: 65151 65151 86
Width: 1284
Flags: W
LayerCount: 2
Fore
SplineSet
771 1194 m 0,0,1
 771 1129 771 1129 725 1080 c 0,2,3
 678 1030 678 1030 620 1030 c 0,4,5
 513 1030 513 1030 513 1151 c 0,6,7
 513 1235 513 1235 551 1288 c 0,8,9
 588 1342 588 1342 650 1342 c 0,10,11
 697 1342 697 1342 734 1296 c 0,12,13
 771 1253 771 1253 771 1194 c 0,0,1
716 1170 m 0,14,15
 716 1196 716 1196 673 1227 c 0,16,17
 632 1256 632 1256 605 1256 c 0,18,19
 546 1256 546 1256 546 1188 c 0,20,21
 546 1129 546 1129 638 1129 c 0,22,23
 716 1129 716 1129 716 1170 c 0,14,15
1354 129 m 1,24,-1
 0 129 l 1,25,-1
 0 250 l 1,26,-1
 1354 250 l 1,27,-1
 1354 129 l 1,24,-1
EndSplineSet
Ligature2: "'liga' Standard Ligatures in Arabic lookup 6 subtable" tatweel sukun
EndChar

StartChar: hamzaisolated
Encoding: 65152 65152 87
Width: 716
Flags: W
AnchorPoint: "ArabicBelow" 358 -224 basechar 0
AnchorPoint: "ArabicAbove" 358 635 basechar 0
LayerCount: 2
Fore
SplineSet
364 138 m 1,0,1
 335 138 335 138 286 126 c 0,2,3
 232 114 232 114 202 95 c 0,4,5
 185 85 185 85 166 69.5 c 128,-1,6
 147 54 147 54 121 26 c 1,7,8
 117 30 117 30 117 42 c 0,9,10
 117 47 117 47 118.5 55 c 128,-1,11
 120 63 120 63 122 76 c 0,12,13
 127 99 127 99 141.5 114 c 128,-1,14
 156 129 156 129 185 142 c 1,15,-1
 169 144 l 1,16,-1
 123 164 l 1,17,18
 101 180 101 180 101 207 c 0,19,20
 101 255 101 255 143 315 c 0,21,22
 192 385 192 385 260 385 c 0,23,24
 272 385 272 385 283.5 381.5 c 128,-1,25
 295 378 295 378 305 370.5 c 128,-1,26
 315 363 315 363 321 352.5 c 128,-1,27
 327 342 327 342 327 328 c 1,28,-1
 300 275 l 1,29,30
 292 287 292 287 264 297 c 0,31,32
 235 309 235 309 216 312 c 1,33,34
 203 312 203 312 178 299 c 0,35,36
 160 291 160 291 152 273 c 1,37,38
 152 247 152 247 190 224 c 1,39,-1
 225 210 l 1,40,-1
 258 204 l 1,41,42
 292 204 292 204 323.5 207 c 128,-1,43
 355 210 355 210 386 215 c 1,44,-1
 398 215 l 1,45,-1
 364 138 l 1,0,1
EndSplineSet
EndChar

StartChar: alefwithmaddaaboveisolated
Encoding: 65153 65153 88
Width: 420
Flags: W
AnchorPoint: "ArabicBelow" 210 -265 basechar 0
AnchorPoint: "ArabicAbove" 210 1545 basechar 0
LayerCount: 2
Fore
SplineSet
567 1289 m 1,0,1
 567 1279 567 1279 550 1240 c 0,2,3
 535 1205 535 1205 507 1183 c 0,4,5
 484 1166 484 1166 451.5 1149 c 128,-1,6
 419 1132 419 1132 377 1115 c 0,7,8
 293 1093 293 1093 236 1093 c 2,9,-1
 132 1104 l 2,10,11
 117 1104 117 1104 97 1093 c 1,12,-1
 68 1070 l 1,13,-1
 48 1046 l 1,14,-1
 44 1055 l 1,15,-1
 59 1132 l 1,16,-1
 77 1159 l 2,17,18
 117 1211 117 1211 159 1211 c 1,19,-1
 225 1198 l 1,20,-1
 285 1190 l 2,21,22
 327 1190 327 1190 370.5 1196 c 128,-1,23
 414 1202 414 1202 448 1218 c 0,24,25
 480 1230 480 1230 503 1244 c 128,-1,26
 526 1258 526 1258 545 1280 c 2,27,-1
 561 1295 l 1,28,-1
 567 1289 l 1,0,1
261 69 m 2,29,30
 246 -12 246 -12 221 -15 c 0,31,32
 207 -15 207 -15 207 80 c 2,33,-1
 207 137 l 2,34,35
 207 183 207 183 203 190 c 1,36,37
 192 311 192 311 180 419 c 128,-1,38
 168 527 168 527 154 627 c 2,39,-1
 121 870 l 1,40,-1
 216 1050 l 1,41,-1
 216 936 l 1,42,-1
 263 452 l 2,43,44
 272 355 272 355 275.5 293.5 c 128,-1,45
 279 232 279 232 280 201 c 1,46,-1
 261 69 l 2,29,30
EndSplineSet
EndChar

StartChar: alefwithmaddaabovefinal
Encoding: 65154 65154 89
Width: 459
Flags: W
AnchorPoint: "ArabicBelow" 229 -250 basechar 0
AnchorPoint: "ArabicAbove" 229 1623 basechar 0
LayerCount: 2
Fore
SplineSet
569 1368 m 1,0,1
 569 1355 569 1355 550 1318 c 2,2,3
 548 1311 548 1311 544 1303.5 c 128,-1,4
 540 1296 540 1296 533 1288 c 0,5,6
 518 1268 518 1268 508 1262 c 0,7,8
 486 1245 486 1245 454 1228 c 128,-1,9
 422 1211 422 1211 379 1194 c 0,10,11
 301 1172 301 1172 238 1172 c 2,12,-1
 133 1183 l 2,13,14
 119 1183 119 1183 99 1172 c 1,15,-1
 69 1148 l 1,16,-1
 49 1134 l 1,17,-1
 42 1152 l 1,18,19
 42 1185 42 1185 80 1238 c 0,20,21
 117 1289 117 1289 161 1289 c 1,22,-1
 227 1276 l 1,23,-1
 287 1269 l 2,24,25
 332 1269 332 1269 372 1276 c 128,-1,26
 412 1283 412 1283 445.5 1295.5 c 128,-1,27
 479 1308 479 1308 505 1324.5 c 128,-1,28
 531 1341 531 1341 547 1359 c 2,29,-1
 563 1373 l 1,30,-1
 569 1368 l 1,0,1
443 0 m 2,31,32
 331 0 331 0 256 75 c 0,33,34
 223 113 223 113 205.5 169 c 128,-1,35
 188 225 188 225 188 291 c 2,36,-1
 163 607 l 2,37,38
 152 740 152 740 139.5 829.5 c 128,-1,39
 127 919 127 919 113 971 c 1,40,-1
 185 1112 l 1,41,42
 193 1089 193 1089 202.5 1035.5 c 128,-1,43
 212 982 212 982 218 894 c 2,44,-1
 239 580 l 1,45,-1
 239 486 l 1,46,-1
 250 367 l 2,47,48
 256 325 256 325 262.5 297 c 128,-1,49
 269 269 269 269 277 249.5 c 128,-1,50
 285 230 285 230 296 216 c 128,-1,51
 307 202 307 202 321 190 c 0,52,53
 373 141 373 141 452 141 c 2,54,-1
 490 141 l 1,55,-1
 490 0 l 1,56,-1
 443 0 l 2,31,32
EndSplineSet
EndChar

StartChar: alefwithhamzaaboveisolated
Encoding: 65155 65155 90
Width: 401
Flags: W
AnchorPoint: "ArabicBelow" 200 -265 basechar 0
AnchorPoint: "ArabicAbove" 200 1649 basechar 0
LayerCount: 2
Fore
SplineSet
323 1177 m 1,0,-1
 309 1152 l 1,1,2
 280 1152 280 1152 231 1140 c 0,3,4
 177 1128 177 1128 147 1109 c 0,5,6
 130 1099 130 1099 111 1083.5 c 128,-1,7
 92 1068 92 1068 66 1040 c 1,8,9
 60 1052 60 1052 60 1062 c 1,10,-1
 66 1090 l 2,11,12
 71 1113 71 1113 86 1128 c 128,-1,13
 101 1143 101 1143 130 1156 c 1,14,-1
 96 1163 l 1,15,-1
 68 1178 l 2,16,17
 46 1194 46 1194 46 1221 c 0,18,19
 46 1269 46 1269 88 1329 c 0,20,21
 137 1399 137 1399 205 1399 c 0,22,23
 217 1399 217 1399 228.5 1395.5 c 128,-1,24
 240 1392 240 1392 250 1384.5 c 128,-1,25
 260 1377 260 1377 266 1366.5 c 128,-1,26
 272 1356 272 1356 272 1342 c 1,27,-1
 245 1289 l 1,28,29
 237 1301 237 1301 209 1311 c 0,30,31
 180 1323 180 1323 161 1326 c 1,32,33
 148 1326 148 1326 123 1313 c 0,34,35
 105 1305 105 1305 97 1287 c 1,36,37
 97 1261 97 1261 135 1238 c 1,38,-1
 203 1218 l 1,39,40
 237 1218 237 1218 268.5 1221 c 128,-1,41
 300 1224 300 1224 331 1229 c 1,42,-1
 343 1229 l 1,43,-1
 323 1177 l 1,0,-1
267 94 m 1,44,-1
 261 69 l 2,45,46
 246 -12 246 -12 221 -15 c 0,47,48
 207 -15 207 -15 207 80 c 2,49,-1
 207 137 l 2,50,51
 207 183 207 183 203 190 c 1,52,53
 192 311 192 311 180 419 c 128,-1,54
 168 527 168 527 154 627 c 2,55,-1
 121 870 l 1,56,-1
 136 914 l 1,57,-1
 216 1050 l 1,58,-1
 216 936 l 1,59,-1
 263 452 l 2,60,61
 272 355 272 355 275.5 293.5 c 128,-1,62
 279 232 279 232 280 201 c 1,63,-1
 267 94 l 1,44,-1
EndSplineSet
EndChar

StartChar: alefwithhamzaabovefinal
Encoding: 65156 65156 91
Width: 445
Flags: W
AnchorPoint: "ArabicBelow" 222 -250 basechar 0
AnchorPoint: "ArabicAbove" 222 1684 basechar 0
LayerCount: 2
Fore
SplineSet
313 1185 m 1,0,1
 298 1185 298 1185 277 1181 c 128,-1,2
 256 1177 256 1177 230 1168 c 0,3,4
 184 1156 184 1156 144 1134 c 0,5,6
 130 1126 130 1126 108 1107.5 c 128,-1,7
 86 1089 86 1089 66 1072 c 1,8,-1
 66 1099 l 1,9,10
 78 1161 78 1161 139 1183 c 1,11,12
 116 1186 116 1186 101.5 1191 c 128,-1,13
 87 1196 87 1196 72 1206 c 0,14,15
 46 1224 46 1224 46 1253 c 0,16,17
 46 1277 46 1277 55 1304 c 128,-1,18
 64 1331 64 1331 88 1364 c 0,19,20
 137 1434 137 1434 205 1434 c 1,21,22
 223 1431 223 1431 229.5 1428.5 c 128,-1,23
 236 1426 236 1426 240 1424 c 0,24,25
 267 1407 267 1407 267 1377 c 1,26,-1
 238 1322 l 1,27,28
 232 1334 232 1334 210 1346 c 2,29,-1
 174 1360 l 1,30,31
 162 1360 162 1360 156 1359 c 128,-1,32
 150 1358 150 1358 146 1356 c 128,-1,33
 142 1354 142 1354 138 1351.5 c 128,-1,34
 134 1349 134 1349 126 1346 c 0,35,36
 101 1337 101 1337 101 1320 c 0,37,38
 101 1295 101 1295 137 1270 c 0,39,40
 173 1249 173 1249 203 1249 c 0,41,42
 264 1249 264 1249 296 1256 c 2,43,-1
 357 1264 l 1,44,-1
 313 1185 l 1,0,1
435 0 m 2,45,46
 314 0 314 0 250.5 73.5 c 128,-1,47
 187 147 187 147 187 291 c 0,48,49
 181 375 181 375 177 435.5 c 128,-1,50
 173 496 173 496 169 542 c 128,-1,51
 165 588 165 588 162 625 c 128,-1,52
 159 662 159 662 154 699.5 c 128,-1,53
 149 737 149 737 143 780.5 c 128,-1,54
 137 824 137 824 128 883 c 0,55,56
 125 909 125 909 121 931.5 c 128,-1,57
 117 954 117 954 112 971 c 1,58,-1
 185 1112 l 1,59,-1
 199 1066 l 1,60,-1
 229 785 l 1,61,-1
 240 539 l 2,62,63
 240 504 240 504 240.5 470 c 128,-1,64
 241 436 241 436 246 402 c 2,65,-1
 258 305 l 2,66,67
 267 240 267 240 318 191 c 0,68,69
 371 141 371 141 446 141 c 2,70,-1
 466 141 l 1,71,-1
 466 0 l 1,72,-1
 435 0 l 2,45,46
EndSplineSet
EndChar

StartChar: wawwithhamzaaboveisolated
Encoding: 65157 65157 92
Width: 726
Flags: W
AnchorPoint: "ArabicBelow" 363 -614 basechar 0
AnchorPoint: "ArabicAbove" 363 1142 basechar 0
LayerCount: 2
Fore
SplineSet
620 715 m 1,0,1
 620 713 620 713 618.5 710 c 128,-1,2
 617 707 617 707 611.5 699 c 128,-1,3
 606 691 606 691 595.5 675.5 c 128,-1,4
 585 660 585 660 567 633 c 1,5,6
 533 633 533 633 481 621 c 0,7,8
 428 611 428 611 400 589 c 2,9,10
 377 576 377 576 356 559 c 128,-1,11
 335 542 335 542 311 516 c 1,12,13
 305 529 305 529 305 539 c 1,14,15
 313 572 313 572 319 585.5 c 128,-1,16
 325 599 325 599 333 609 c 1,17,-1
 379 636 l 1,18,-1
 339 646 l 2,19,20
 324 652 324 652 311 662 c 0,21,22
 289 678 289 678 289 706 c 0,23,24
 289 754 289 754 334 819 c 0,25,26
 385 892 385 892 457 892 c 0,27,28
 466 892 466 892 470.5 891.5 c 128,-1,29
 475 891 475 891 478.5 890.5 c 128,-1,30
 482 890 482 890 485.5 888 c 128,-1,31
 489 886 489 886 496 883 c 0,32,33
 528 866 528 866 528 832 c 1,34,-1
 499 777 l 1,35,36
 488 794 488 794 452 806 c 2,37,-1
 411 816 l 1,38,39
 402 816 402 816 394 814 c 128,-1,40
 386 812 386 812 366 801 c 0,41,42
 345 788 345 788 344 775 c 0,43,44
 344 751 344 751 386 724 c 0,45,46
 428 704 428 704 451 704 c 2,47,-1
 620 715 l 1,0,1
689 236 m 0,48,49
 689 68 689 68 569 -139 c 0,50,51
 437 -364 437 -364 283 -364 c 1,52,-1
 201 -351 l 2,53,54
 178 -345 178 -345 152 -334 c 128,-1,55
 126 -323 126 -323 97 -307 c 0,56,57
 -18 -253 -18 -253 -18 -229 c 0,58,59
 -18 -220 -18 -220 -7 -220 c 1,60,-1
 151 -260 l 1,61,-1
 196 -267 l 1,62,63
 312 -267 312 -267 455 -132 c 0,64,65
 554 -36 554 -36 636 106 c 1,66,-1
 613 181 l 1,67,68
 600 157 600 157 587 139 c 128,-1,69
 574 121 574 121 554 110 c 0,70,71
 525 90 525 90 496 90 c 0,72,73
 454 90 454 90 420 135 c 0,74,75
 384 181 384 181 384 232 c 0,76,77
 388 273 388 273 391 290 c 128,-1,78
 394 307 394 307 398 319 c 0,79,80
 411 359 411 359 444 417 c 0,81,82
 503 521 503 521 541 521 c 0,83,84
 578 521 578 521 631 444 c 0,85,86
 689 347 689 347 689 236 c 0,48,49
600 261 m 1,87,88
 594 315 594 315 572.5 344.5 c 128,-1,89
 551 374 551 374 519 377 c 0,90,91
 474 377 474 377 453 289 c 1,92,93
 456 269 456 269 486 245 c 1,94,-1
 507 235 l 2,95,96
 518 231 518 231 527.5 229 c 128,-1,97
 537 227 537 227 550 227 c 0,98,99
 587 227 587 227 600 261 c 1,87,88
EndSplineSet
EndChar

StartChar: wawwithhamzaabovefinal
Encoding: 65158 65158 93
Width: 760
Flags: W
AnchorPoint: "ArabicBelow" 380 -724 basechar 0
AnchorPoint: "ArabicAbove" 380 1040 basechar 0
LayerCount: 2
Fore
SplineSet
602 585 m 1,0,-1
 574 541 l 1,1,2
 547 541 547 541 493 527 c 0,3,4
 468 520 468 520 447 511.5 c 128,-1,5
 426 503 426 503 407 492 c 0,6,7
 389 482 389 482 372.5 469 c 128,-1,8
 356 456 356 456 342 439 c 1,9,-1
 327 428 l 1,10,-1
 327 455 l 1,11,12
 340 518 340 518 400 539 c 1,13,14
 391 540 391 540 384.5 541 c 128,-1,15
 378 542 378 542 370.5 544 c 128,-1,16
 363 546 363 546 354 550 c 128,-1,17
 345 554 345 554 333 562 c 0,18,19
 307 579 307 579 307 609 c 0,20,21
 307 622 307 622 309.5 635 c 128,-1,22
 312 648 312 648 315 658.5 c 128,-1,23
 318 669 318 669 321 676 c 128,-1,24
 324 683 324 683 325 685 c 1,25,26
 327 687 327 687 329 690 c 128,-1,27
 331 693 331 693 333 697 c 2,28,-1
 349 720 l 2,29,30
 398 790 398 790 466 790 c 0,31,32
 473 790 473 790 483 788 c 1,33,34
 491 788 491 788 501 781 c 0,35,36
 528 764 528 764 528 733 c 1,37,-1
 499 678 l 1,38,39
 496 687 496 687 470 704 c 1,40,-1
 435 717 l 1,41,42
 419 717 419 717 388 702 c 0,43,44
 369 693 369 693 362 677 c 1,45,46
 362 649 362 649 400 626 c 0,47,48
 434 607 434 607 458 607 c 2,49,-1
 527 607 l 1,50,-1
 558 613 l 1,51,-1
 618 620 l 1,52,-1
 602 585 l 1,0,-1
669 0 m 1,53,54
 646 -90 646 -90 600 -173 c 0,55,56
 588 -195 588 -195 576 -215 c 128,-1,57
 564 -235 564 -235 550 -254 c 0,58,59
 536 -274 536 -274 520 -294 c 128,-1,60
 504 -314 504 -314 486 -335 c 0,61,62
 371 -474 371 -474 245 -474 c 0,63,64
 184 -474 184 -474 48 -404 c 256,65,66
 -88 -334 -88 -334 -88 -300 c 0,67,68
 -88 -288 -88 -288 -79 -285 c 1,69,70
 -50 -304 -50 -304 -20 -320 c 128,-1,71
 10 -336 10 -336 42 -350 c 0,72,73
 51 -354 51 -354 60 -357 c 128,-1,74
 69 -360 69 -360 80 -363.5 c 128,-1,75
 91 -367 91 -367 106 -370.5 c 128,-1,76
 121 -374 121 -374 141 -378 c 2,77,-1
 176 -380 l 2,78,79
 275 -380 275 -380 434 -230 c 0,80,81
 594 -79 594 -79 594 2 c 1,82,-1
 572 2 l 2,83,84
 534 2 534 2 504 3 c 128,-1,85
 474 4 474 4 450 9.5 c 128,-1,86
 426 15 426 15 406.5 25 c 128,-1,87
 387 35 387 35 371 53 c 0,88,89
 356 71 356 71 353 102 c 2,90,-1
 353 123 l 2,91,92
 353 134 353 134 355 144 c 2,93,94
 355 218 355 218 409 322 c 256,95,96
 463 426 463 426 523 426 c 0,97,98
 575 426 575 426 631 316 c 0,99,100
 670 226 670 226 682 141 c 1,101,-1
 777 141 l 1,102,-1
 777 0 l 1,103,-1
 669 0 l 1,53,54
591 146 m 1,104,105
 591 176 591 176 558 229 c 0,106,107
 523 283 523 283 496 283 c 0,108,109
 478 283 478 283 448 249 c 0,110,111
 430 222 430 222 422 199 c 1,112,113
 422 189 422 189 427.5 183.5 c 128,-1,114
 433 178 433 178 443 172 c 2,115,-1
 485 154 l 1,116,-1
 521 146 l 1,117,-1
 572 141 l 2,118,119
 586 141 586 141 591 146 c 1,104,105
EndSplineSet
EndChar

StartChar: alefwithhamzabelowisolated
Encoding: 65159 65159 94
Width: 401
Flags: W
AnchorPoint: "ArabicBelow" 200 -694 basechar 0
AnchorPoint: "ArabicAbove" 200 1300 basechar 0
LayerCount: 2
Fore
SplineSet
267 94 m 1,0,-1
 261 69 l 2,1,2
 246 -12 246 -12 221 -15 c 0,3,4
 207 -15 207 -15 207 80 c 2,5,-1
 207 137 l 2,6,7
 207 183 207 183 203 190 c 1,8,9
 192 311 192 311 180 419 c 128,-1,10
 168 527 168 527 154 627 c 2,11,-1
 121 870 l 1,12,-1
 136 914 l 1,13,-1
 171 973 l 1,14,-1
 216 1050 l 1,15,-1
 216 936 l 1,16,-1
 263 452 l 2,17,18
 272 355 272 355 275.5 293.5 c 128,-1,19
 279 232 279 232 280 201 c 1,20,-1
 267 94 l 1,0,-1
336 -309 m 1,21,-1
 322 -333 l 1,22,-1
 283 -335 l 1,23,-1
 240 -346 l 2,24,25
 197 -355 197 -355 161 -373 c 2,26,-1
 132 -390 l 1,27,-1
 110 -410 l 1,28,-1
 79 -444 l 1,29,30
 65 -441 65 -441 60 -421 c 1,31,32
 60 -377 60 -377 161 -329 c 1,33,34
 139 -326 139 -326 124 -321 c 2,35,-1
 109 -316 l 1,36,-1
 91 -307 l 2,37,38
 59 -292 59 -292 59 -263 c 0,39,40
 59 -214 59 -214 100 -155 c 0,41,42
 149 -86 149 -86 218 -86 c 0,43,44
 246 -86 246 -86 263.5 -98.5 c 128,-1,45
 281 -111 281 -111 285 -143 c 1,46,-1
 258 -196 l 1,47,48
 249 -181 249 -181 218 -168 c 1,49,-1
 174 -159 l 1,50,51
 165 -159 165 -159 135 -170 c 1,52,-1
 120 -180 l 1,53,54
 115 -185 115 -185 110 -197 c 1,55,56
 110 -224 110 -224 148 -247 c 0,57,58
 160 -255 160 -255 183 -260 c 2,59,-1
 216 -267 l 1,60,-1
 271 -264 l 1,61,-1
 344 -256 l 1,62,-1
 373 -254 l 1,63,-1
 336 -309 l 1,21,-1
EndSplineSet
EndChar

StartChar: alefwithhamzabelowfinal
Encoding: 65160 65160 95
Width: 431
Flags: W
AnchorPoint: "ArabicBelow" 215 -777 basechar 0
AnchorPoint: "ArabicAbove" 215 1362 basechar 0
LayerCount: 2
Fore
SplineSet
443 0 m 2,0,1
 331 0 331 0 256 75 c 0,2,3
 223 113 223 113 205.5 169 c 128,-1,4
 188 225 188 225 188 291 c 2,5,-1
 163 607 l 2,6,7
 152 740 152 740 139.5 829.5 c 128,-1,8
 127 919 127 919 113 971 c 1,9,-1
 185 1112 l 1,10,11
 193 1089 193 1089 202.5 1035.5 c 128,-1,12
 212 982 212 982 218 894 c 2,13,-1
 239 580 l 1,14,-1
 250 367 l 1,15,-1
 261 292 l 2,16,17
 267 239 267 239 321 190 c 0,18,19
 373 141 373 141 452 141 c 2,20,-1
 466 141 l 1,21,-1
 466 0 l 1,22,-1
 443 0 l 2,0,1
443 -369 m 1,23,-1
 415 -413 l 1,24,-1
 378 -416 l 1,25,-1
 273 -450 l 1,26,-1
 243 -465 l 2,27,28
 216 -482 216 -482 183 -516 c 1,29,30
 178 -523 178 -523 168 -527 c 1,31,-1
 168 -499 l 1,32,33
 180 -437 180 -437 241 -415 c 1,34,35
 221 -412 221 -412 207 -407 c 128,-1,36
 193 -402 193 -402 176 -392 c 0,37,38
 148 -376 148 -376 148 -346 c 0,39,40
 148 -335 148 -335 149.5 -325.5 c 128,-1,41
 151 -316 151 -316 157 -293 c 0,42,43
 159 -285 159 -285 162.5 -277 c 128,-1,44
 166 -269 166 -269 170 -262 c 0,45,46
 177 -247 177 -247 190 -234 c 1,47,48
 239 -165 239 -165 307 -165 c 1,49,-1
 342 -174 l 1,50,51
 369 -191 369 -191 369 -221 c 1,52,-1
 340 -276 l 1,53,54
 336 -266 336 -266 312 -250 c 0,55,56
 291 -238 291 -238 276 -238 c 0,57,58
 264 -238 264 -238 254 -240 c 1,59,-1
 229 -251 l 2,60,61
 210 -259 210 -259 203 -278 c 1,62,63
 203 -305 203 -305 240 -327 c 2,64,-1
 274 -343 l 1,65,66
 292 -348 292 -348 300 -348 c 2,67,-1
 350 -348 l 1,68,-1
 459 -335 l 1,69,-1
 443 -369 l 1,23,-1
EndSplineSet
EndChar

StartChar: yehwithhamzaaboveisolated
Encoding: 65161 65161 96
Width: 1189
Flags: W
AnchorPoint: "ArabicBelow" 594 -601 basechar 0
AnchorPoint: "ArabicAbove" 594 980 basechar 0
LayerCount: 2
Fore
SplineSet
399 469 m 1,0,1
 373 469 373 469 311 452 c 2,2,-1
 226 417 l 2,3,4
 187 398 187 398 156 361 c 1,5,6
 153 354 153 354 141 350 c 1,7,8
 141 365 141 365 147 397 c 1,9,10
 165 441 165 441 218 467 c 1,11,12
 184 471 184 471 151 492 c 0,13,14
 120 511 120 511 120 540 c 0,15,16
 120 591 120 591 165 657 c 0,17,18
 217 730 217 730 286 730 c 0,19,20
 314 730 314 730 331.5 713 c 128,-1,21
 349 696 349 696 352 670 c 1,22,-1
 321 613 l 1,23,24
 315 628 315 628 292 640 c 0,25,26
 270 653 270 653 255 653 c 0,27,28
 230 650 230 650 221 647 c 128,-1,29
 212 644 212 644 204 639 c 0,30,31
 185 630 185 630 178 611 c 1,32,33
 178 586 178 586 216 560 c 2,34,-1
 243 546 l 2,35,36
 263 538 263 538 283 537 c 2,37,-1
 343 537 l 1,38,-1
 447 551 l 1,39,-1
 399 469 l 1,0,1
1114 579 m 2,40,41
 1114 550 1114 550 1104 519 c 2,42,-1
 1095 492 l 1,43,44
 1071 503 1071 503 1048 510 c 2,45,-1
 1000 519 l 1,46,47
 907 519 907 519 801 428 c 256,48,49
 695 337 695 337 695 258 c 0,50,51
 695 218 695 218 752 194 c 0,52,53
 815 174 815 174 896 174 c 0,54,55
 1000 174 1000 174 1044 144 c 0,56,57
 1073 121 1073 121 1073 80 c 0,58,59
 1073 -10 1073 -10 1041 -66 c 0,60,61
 1011 -122 1011 -122 917 -186 c 0,62,63
 809 -260 809 -260 677 -305 c 0,64,65
 545 -351 545 -351 408 -351 c 0,66,67
 269 -351 269 -351 183 -283 c 0,68,69
 88 -208 88 -208 88 -75 c 0,70,71
 88 38 88 38 154 185 c 0,72,73
 211 309 211 309 239 309 c 0,74,75
 244 309 244 309 249 298 c 1,76,77
 229 246 229 246 215 209.5 c 128,-1,78
 201 173 201 173 192 146 c 0,79,80
 168 74 168 74 168 22 c 0,81,82
 168 -107 168 -107 273 -167 c 0,83,84
 351 -212 351 -212 507 -212 c 0,85,86
 630 -212 630 -212 816 -128 c 0,87,88
 1002 -46 1002 -46 1002 -5 c 1,89,90
 988 22 988 22 969 35 c 1,91,-1
 931 39 l 1,92,-1
 863 42 l 2,93,94
 741 42 741 42 678 71 c 0,95,96
 653 84 653 84 636 114 c 1,97,98
 622 150 622 150 622 187 c 0,99,100
 622 319 622 319 764 494 c 256,101,102
 906 669 906 669 1015 669 c 2,103,-1
 1075 666 l 1,104,105
 1114 654 1114 654 1114 613 c 2,106,-1
 1114 579 l 2,40,41
EndSplineSet
EndChar

StartChar: yehwithhamzaabovefinal
Encoding: 65162 65162 97
Width: 1068
Flags: W
AnchorPoint: "ArabicBelow" 534 -775 basechar 0
AnchorPoint: "ArabicAbove" 534 768 basechar 0
LayerCount: 2
Fore
SplineSet
384 257 m 1,0,1
 351 257 351 257 296 241 c 2,2,-1
 231 216 l 1,3,-1
 211 206 l 2,4,5
 174 187 174 187 141 149 c 0,6,7
 136 142 136 142 126 138 c 1,8,9
 126 153 126 153 132 185 c 1,10,11
 150 229 150 229 203 255 c 1,12,-1
 136 281 l 1,13,14
 105 300 105 300 105 328 c 0,15,16
 105 379 105 379 150 445 c 0,17,18
 202 518 202 518 271 518 c 0,19,20
 299 518 299 518 316.5 501 c 128,-1,21
 334 484 334 484 337 458 c 1,22,-1
 306 401 l 1,23,24
 300 416 300 416 277 428 c 0,25,26
 255 441 255 441 240 441 c 0,27,28
 215 438 215 438 206 435 c 128,-1,29
 197 432 197 432 189 427 c 1,30,31
 176 424 176 424 171 416 c 2,32,-1
 163 399 l 1,33,34
 163 374 163 374 201 348 c 1,35,-1
 238 330 l 1,36,37
 256 325 256 325 263 325 c 2,38,-1
 328 325 l 1,39,-1
 432 339 l 1,40,-1
 384 257 l 1,0,1
911 0 m 2,41,42
 869 0 869 0 823 -13 c 0,43,44
 778 -22 778 -22 770 -42 c 1,45,46
 770 -54 770 -54 814 -69 c 2,47,-1
 853 -82 l 1,48,-1
 1000 -113 l 1,49,50
 1039 -128 1039 -128 1055 -170 c 1,51,52
 1055 -263 1055 -263 1008 -307 c 1,53,-1
 903 -380 l 2,54,55
 854 -415 854 -415 795 -441.5 c 128,-1,56
 736 -468 736 -468 666 -487 c 0,57,58
 649 -492 649 -492 631 -496.5 c 128,-1,59
 613 -501 613 -501 589 -505.5 c 128,-1,60
 565 -510 565 -510 533 -514 c 128,-1,61
 501 -518 501 -518 456 -522 c 2,62,-1
 386 -525 l 2,63,64
 255 -525 255 -525 167 -458 c 0,65,66
 73 -388 73 -388 73 -254 c 0,67,68
 73 -198 73 -198 88 -132 c 0,69,70
 96 -96 96 -96 107 -67.5 c 128,-1,71
 118 -39 118 -39 137 0 c 0,72,73
 192 120 192 120 221 123 c 1,74,-1
 219 69 l 1,75,76
 210 46 210 46 203 27 c 128,-1,77
 196 8 196 8 191 -6 c 2,78,-1
 190 -10 l 2,79,80
 188 -18 188 -18 182 -35 c 128,-1,81
 176 -52 176 -52 168 -79 c 0,82,83
 152 -130 152 -130 152 -159 c 0,84,85
 152 -291 152 -291 252 -346 c 0,86,87
 334 -389 334 -389 483 -389 c 0,88,89
 608 -389 608 -389 779 -328 c 0,90,91
 956 -267 956 -267 956 -245 c 0,92,93
 956 -234 956 -234 901 -221 c 2,94,-1
 828 -208 l 2,95,96
 755 -196 755 -196 716.5 -175.5 c 128,-1,97
 678 -155 678 -155 678 -126 c 0,98,99
 678 -38 678 -38 770 51 c 0,100,101
 861 141 861 141 934 141 c 2,102,-1
 1079 141 l 1,103,-1
 1079 0 l 1,104,-1
 911 0 l 2,41,42
EndSplineSet
EndChar

StartChar: yehwithhamzaaboveinitial
Encoding: 65163 65163 98
Width: 422
Flags: W
AnchorPoint: "ArabicBelow" 211 -250 basechar 0
AnchorPoint: "ArabicAbove" 211 1190 basechar 0
LayerCount: 2
Fore
SplineSet
336 678 m 1,0,-1
 272 670 l 1,1,-1
 245 660 l 2,2,3
 232 657 232 657 219.5 653 c 128,-1,4
 207 649 207 649 195 644 c 0,5,6
 167 631 167 631 147 619.5 c 128,-1,7
 127 608 127 608 112.5 597.5 c 128,-1,8
 98 587 98 587 87 577 c 128,-1,9
 76 567 76 567 66 558 c 1,10,-1
 71 607 l 1,11,12
 94 652 94 652 146 677 c 1,13,14
 104 682 104 682 76 699.5 c 128,-1,15
 48 717 48 717 44 750 c 0,16,17
 44 806 44 806 90 867 c 0,18,19
 145 940 145 940 218 940 c 0,20,21
 242 940 242 940 263 922 c 0,22,23
 285 906 285 906 285 880 c 1,24,-1
 252 823 l 1,25,26
 248 839 248 839 223 850 c 2,27,-1
 185 863 l 1,28,29
 158 863 158 863 130 848 c 0,30,31
 106 839 106 839 102 821 c 1,32,33
 102 798 102 798 144 768 c 1,34,35
 187 747 187 747 211 747 c 2,36,-1
 275 747 l 1,37,-1
 384 761 l 1,38,-1
 336 678 l 1,0,-1
124 142 m 2,39,40
 130 142 130 142 140.5 144 c 128,-1,41
 151 146 151 146 186 156 c 0,42,43
 205 161 205 161 214.5 165.5 c 128,-1,44
 224 170 224 170 230 185 c 1,45,46
 230 222 230 222 204 269 c 0,47,48
 181 307 181 307 157 327 c 1,49,50
 157 336 157 336 162.5 355.5 c 128,-1,51
 168 375 168 375 172 386 c 0,52,53
 173 389 173 389 174.5 393.5 c 128,-1,54
 176 398 176 398 180 408 c 128,-1,55
 184 418 184 418 190.5 435.5 c 128,-1,56
 197 453 197 453 208 483 c 1,57,58
 257 435 257 435 280 379 c 0,59,60
 302 328 302 328 302 285 c 0,61,62
 302 277 302 277 301.5 268 c 128,-1,63
 301 259 301 259 299 246 c 128,-1,64
 297 233 297 233 293 215 c 128,-1,65
 289 197 289 197 282 170 c 0,66,67
 264 99 264 99 197 50 c 0,68,69
 129 0 129 0 42 0 c 2,70,-1
 -9 0 l 1,71,-1
 -9 141 l 1,72,-1
 124 142 l 2,39,40
EndSplineSet
EndChar

StartChar: yehwithhamzaabovemedial
Encoding: 65164 65164 99
Width: 407
Flags: W
AnchorPoint: "ArabicBelow" 203 -250 basechar 0
AnchorPoint: "ArabicAbove" 203 1062 basechar 0
LayerCount: 2
Fore
SplineSet
331 550 m 1,0,1
 301 550 301 550 243 532 c 2,2,-1
 205 520 l 2,3,4
 192 515 192 515 178 509.5 c 128,-1,5
 164 504 164 504 150 496 c 0,6,7
 134 489 134 489 118 474 c 0,8,9
 105 460 105 460 97 451.5 c 128,-1,10
 89 443 89 443 84 438.5 c 128,-1,11
 79 434 79 434 76.5 432.5 c 128,-1,12
 74 431 74 431 71 430 c 1,13,14
 71 447 71 447 77 479 c 1,15,16
 95 526 95 526 148 549 c 1,17,18
 129 549 129 549 114 554 c 1,19,-1
 80 572 l 1,20,21
 54 591 54 591 49 622 c 1,22,23
 49 678 49 678 95 739 c 0,24,25
 150 812 150 812 218 812 c 0,26,27
 243 812 243 812 260 795 c 0,28,29
 278 780 278 780 282 752 c 1,30,-1
 251 695 l 1,31,32
 245 711 245 711 221 722 c 2,33,-1
 185 735 l 1,34,35
 163 735 163 735 132 720 c 0,36,37
 113 712 113 712 106 693 c 1,38,39
 106 671 106 671 146 640 c 1,40,-1
 182 623 l 1,41,-1
 214 619 l 1,42,-1
 272 619 l 1,43,-1
 377 633 l 1,44,-1
 331 550 l 1,0,1
4 141 m 2,45,46
 106 141 106 141 168 179 c 1,47,-1
 256 267 l 1,48,-1
 287 203 l 2,49,50
 300 172 300 172 331 156.5 c 128,-1,51
 362 141 362 141 422 141 c 1,52,-1
 422 0 l 1,53,-1
 388 0 l 2,54,55
 348 0 348 0 315 18 c 1,56,-1
 296 33 l 1,57,-1
 241 95 l 1,58,59
 231 111 231 111 221 113 c 1,60,-1
 176 73 l 1,61,-1
 125 34 l 2,62,63
 113 26 113 26 100 19.5 c 128,-1,64
 87 13 87 13 73 8 c 1,65,-1
 18 0 l 1,66,-1
 -9 0 l 1,67,-1
 -9 141 l 1,68,-1
 4 141 l 2,45,46
EndSplineSet
EndChar

StartChar: alefisolated
Encoding: 65165 65165 100
Width: 431
Flags: W
AnchorPoint: "ArabicBelow" 215 -265 basechar 0
AnchorPoint: "ArabicAbove" 215 1300 basechar 0
LayerCount: 2
Fore
SplineSet
267 94 m 1,0,-1
 261 69 l 2,1,2
 246 -12 246 -12 221 -15 c 0,3,4
 207 -15 207 -15 207 80 c 2,5,-1
 207 137 l 2,6,7
 207 183 207 183 203 190 c 1,8,9
 192 311 192 311 180 419 c 128,-1,10
 168 527 168 527 154 627 c 2,11,-1
 121 870 l 1,12,-1
 136 914 l 1,13,-1
 216 1050 l 1,14,-1
 216 936 l 1,15,-1
 263 452 l 2,16,17
 271 355 271 355 275.5 293.5 c 128,-1,18
 280 232 280 232 280 201 c 2,19,-1
 267 94 l 1,0,-1
EndSplineSet
EndChar

StartChar: aleffinal
Encoding: 65166 65166 101
Width: 431
Flags: W
AnchorPoint: "ArabicBelow" 215 -250 basechar 0
AnchorPoint: "ArabicAbove" 215 1362 basechar 0
LayerCount: 2
Fore
SplineSet
443 0 m 2,0,1
 331 0 331 0 256 75 c 0,2,3
 223 113 223 113 207.5 169 c 128,-1,4
 192 225 192 225 188 291 c 2,5,-1
 180 447 l 1,6,-1
 163 607 l 2,7,8
 152 740 152 740 139.5 829.5 c 128,-1,9
 127 919 127 919 113 971 c 1,10,-1
 185 1112 l 1,11,12
 193 1089 193 1089 202.5 1035.5 c 128,-1,13
 212 982 212 982 218 894 c 2,14,-1
 239 580 l 1,15,-1
 239 486 l 1,16,-1
 250 367 l 1,17,-1
 261 292 l 2,18,19
 267 239 267 239 321 190 c 0,20,21
 373 141 373 141 452 141 c 2,22,-1
 466 141 l 1,23,-1
 466 0 l 1,24,-1
 443 0 l 2,0,1
EndSplineSet
EndChar

StartChar: behisolated
Encoding: 65167 65167 102
Width: 1337
Flags: W
AnchorPoint: "ArabicBelow" 668 -753 basechar 0
AnchorPoint: "ArabicAbove" 668 824 basechar 0
LayerCount: 2
Fore
SplineSet
1313 353 m 0,0,1
 1313 313 1313 313 1281 228 c 0,2,3
 1250 149 1250 149 1211 123 c 0,4,5
 1169 100 1169 100 1096.5 75.5 c 128,-1,6
 1024 51 1024 51 919 25 c 0,7,8
 822 1 822 1 730 -10.5 c 128,-1,9
 638 -22 638 -22 541 -22 c 0,10,11
 358 -22 358 -22 232 29 c 0,12,13
 82 92 82 92 82 225 c 0,14,15
 82 279 82 279 92 315 c 0,16,17
 97 341 97 341 104 360.5 c 128,-1,18
 111 380 111 380 125 408 c 0,19,20
 165 486 165 486 197 486 c 1,21,-1
 199 450 l 1,22,-1
 154 340 l 1,23,24
 154 233 154 233 276 174 c 2,25,-1
 334 154 l 1,26,-1
 405 136 l 2,27,28
 453 129 453 129 494.5 126 c 128,-1,29
 536 123 536 123 574 123 c 0,30,31
 803 123 803 123 1022 180 c 0,32,33
 1240 237 1240 237 1245 272 c 1,34,-1
 1240 311 l 2,35,36
 1240 323 1240 323 1225 344 c 1,37,-1
 1199 396 l 2,38,39
 1193 408 1193 408 1178 426 c 1,40,-1
 1242 574 l 1,41,42
 1313 467 1313 467 1313 353 c 0,0,1
801 -503 m 1,43,-1
 671 -411 l 1,44,-1
 761 -285 l 1,45,-1
 881 -380 l 1,46,-1
 801 -503 l 1,43,-1
EndSplineSet
EndChar

StartChar: behfinal
Encoding: 65168 65168 103
Width: 1456
Flags: W
AnchorPoint: "ArabicBelow" 728 -733 basechar 0
AnchorPoint: "ArabicAbove" 728 757 basechar 0
LayerCount: 2
Fore
SplineSet
1419 0 m 2,0,1
 1370 0 1370 0 1333 15 c 2,2,-1
 1302 33 l 1,3,-1
 1254 88 l 1,4,5
 1237 115 1237 115 1231 115 c 0,6,7
 1219 115 1219 115 1201 97 c 2,8,-1
 1168 60 l 1,9,10
 1145 46 1145 46 1104.5 29 c 128,-1,11
 1064 12 1064 12 1001 -5 c 0,12,13
 910 -30 910 -30 817 -41.5 c 128,-1,14
 724 -53 724 -53 624 -53 c 0,15,16
 563 -53 563 -53 512.5 -49 c 128,-1,17
 462 -45 462 -45 422 -37 c 0,18,19
 340 -22 340 -22 261 11 c 0,20,21
 82 88 82 88 82 256 c 0,22,23
 82 307 82 307 92 340 c 0,24,25
 94 350 94 350 98 363 c 128,-1,26
 102 376 102 376 113 405 c 2,27,-1
 124 428 l 2,28,29
 162 500 162 500 181 507 c 1,30,-1
 181 478 l 1,31,-1
 161 404 l 1,32,-1
 154 360 l 1,33,34
 154 321 154 321 166 288.5 c 128,-1,35
 178 256 178 256 204.5 228.5 c 128,-1,36
 231 201 231 201 273.5 177.5 c 128,-1,37
 316 154 316 154 378 133 c 0,38,39
 497 93 497 93 673 93 c 0,40,41
 731 93 731 93 777.5 94.5 c 128,-1,42
 824 96 824 96 861 100 c 2,43,-1
 902 100 l 1,44,45
 943 107 943 107 961.5 109.5 c 128,-1,46
 980 112 980 112 988.5 113.5 c 128,-1,47
 997 115 997 115 1001 116.5 c 128,-1,48
 1005 118 1005 118 1017 123 c 1,49,50
 1122 144 1122 144 1192 183 c 0,51,52
 1204 192 1204 192 1226 228 c 0,53,54
 1244 267 1244 267 1262 267 c 1,55,-1
 1271 252 l 1,56,-1
 1296 203 l 2,57,58
 1329 141 1329 141 1426 141 c 2,59,-1
 1472 141 l 1,60,-1
 1472 0 l 1,61,-1
 1419 0 l 2,0,1
783 -483 m 1,62,-1
 653 -391 l 1,63,-1
 742 -265 l 1,64,-1
 863 -360 l 1,65,-1
 783 -483 l 1,62,-1
EndSplineSet
EndChar

StartChar: behinitial
Encoding: 65169 65169 104
Width: 333
Flags: W
AnchorPoint: "ArabicBelow" 166 -588 basechar 0
AnchorPoint: "ArabicAbove" 166 733 basechar 0
LayerCount: 2
Fore
SplineSet
73 140 m 1,0,-1
 156 143 l 1,1,2
 191 152 191 152 205.5 156.5 c 128,-1,3
 220 161 220 161 225 163 c 0,4,5
 246 169 246 169 249 185 c 1,6,7
 249 226 249 226 221 269 c 0,8,9
 215 280 215 280 209 288.5 c 128,-1,10
 203 297 203 297 198 304 c 1,11,-1
 176 327 l 1,12,13
 176 340 176 340 181 358 c 2,14,-1
 227 483 l 1,15,16
 272 438 272 438 296 388 c 128,-1,17
 320 338 320 338 320 290 c 0,18,19
 320 281 320 281 319.5 267 c 128,-1,20
 319 253 319 253 317 224 c 1,21,-1
 305 168 l 2,22,23
 296 130 296 130 272.5 100 c 128,-1,24
 249 70 249 70 217 47 c 0,25,26
 152 0 152 0 60 0 c 2,27,-1
 -9 0 l 1,28,-1
 -9 141 l 1,29,-1
 73 140 l 1,0,-1
212 -338 m 1,30,-1
 82 -247 l 1,31,-1
 172 -121 l 1,32,-1
 293 -216 l 1,33,-1
 212 -338 l 1,30,-1
EndSplineSet
EndChar

StartChar: behmedial
Encoding: 65170 65170 105
Width: 402
Flags: W
AnchorPoint: "ArabicBelow" 201 -661 basechar 0
AnchorPoint: "ArabicAbove" 201 517 basechar 0
LayerCount: 2
Fore
SplineSet
4 141 m 2,0,1
 106 141 106 141 168 179 c 1,2,-1
 256 267 l 1,3,-1
 287 203 l 2,4,5
 313 141 313 141 404 141 c 2,6,-1
 422 141 l 1,7,-1
 422 0 l 1,8,-1
 388 0 l 2,9,10
 348 0 348 0 315 18 c 1,11,-1
 296 33 l 1,12,-1
 271 57 l 1,13,-1
 241 95 l 2,14,15
 231 111 231 111 221 113 c 1,16,-1
 176 73 l 1,17,-1
 125 34 l 2,18,19
 113 26 113 26 100 19.5 c 128,-1,20
 87 13 87 13 73 8 c 1,21,-1
 18 0 l 1,22,-1
 -9 0 l 1,23,-1
 -9 141 l 1,24,-1
 4 141 l 2,0,1
232 -411 m 1,25,-1
 102 -320 l 1,26,-1
 192 -194 l 1,27,-1
 313 -289 l 1,28,-1
 232 -411 l 1,25,-1
EndSplineSet
EndChar

StartChar: tehmarbutaisolated
Encoding: 65171 65171 106
Width: 472
Flags: W
AnchorPoint: "ArabicBelow" 236 -248 basechar 0
AnchorPoint: "ArabicAbove" 236 1150 basechar 0
LayerCount: 2
Fore
SplineSet
357 697 m 1,0,-1
 251 775 l 1,1,-1
 188 671 l 1,2,-1
 62 766 l 1,3,-1
 135 880 l 1,4,-1
 248 797 l 1,5,-1
 311 900 l 1,6,-1
 435 814 l 1,7,-1
 357 697 l 1,0,-1
453 276 m 0,8,9
 453 194 453 194 427 128 c 0,10,11
 404 72 404 72 344 37 c 0,12,13
 282 2 282 2 210 2 c 0,14,15
 126 2 126 2 99 44 c 1,16,-1
 86 77 l 1,17,-1
 84 108 l 2,18,19
 84 158 84 158 106 218 c 128,-1,20
 128 278 128 278 179 364 c 0,21,22
 262 507 262 507 280 507 c 0,23,24
 318 507 318 507 382 437 c 0,25,26
 453 360 453 360 453 276 c 0,8,9
391 197 m 1,27,28
 391 207 391 207 388.5 218 c 128,-1,29
 386 229 386 229 377 255 c 1,30,-1
 337 305 l 2,31,32
 330 312 330 312 321 319 c 128,-1,33
 312 326 312 326 296 335 c 2,34,-1
 267 355 l 1,35,-1
 223 308 l 2,36,37
 212 295 212 295 203.5 284 c 128,-1,38
 195 273 195 273 190 265 c 0,39,40
 165 222 165 222 165 199 c 0,41,42
 165 189 165 189 172 176 c 1,43,-1
 199 154 l 1,44,-1
 225 149 l 1,45,-1
 247 146 l 1,46,-1
 292 149 l 2,47,48
 305 150 305 150 314 154 c 0,49,50
 359 172 359 172 374.5 181 c 128,-1,51
 390 190 390 190 391 197 c 1,27,28
EndSplineSet
EndChar

StartChar: tehmarbutafinal
Encoding: 65172 65172 107
Width: 611
Flags: W
AnchorPoint: "ArabicBelow" 305 -250 basechar 0
AnchorPoint: "ArabicAbove" 305 1287 basechar 0
LayerCount: 2
Fore
SplineSet
443 834 m 1,0,-1
 335 913 l 1,1,-1
 274 808 l 1,2,-1
 148 903 l 1,3,-1
 221 1017 l 1,4,-1
 331 936 l 1,5,-1
 397 1037 l 1,6,-1
 521 951 l 1,7,-1
 443 834 l 1,0,-1
607 0 m 2,8,9
 511 0 511 0 475 41 c 0,10,11
 438 81 438 81 402 236 c 1,12,-1
 347 176 l 2,13,14
 323 146 323 146 302 139 c 1,15,-1
 273 138 l 1,16,-1
 209 147 l 1,17,-1
 176 157 l 2,18,19
 82 178 82 178 82 214 c 0,20,21
 82 283 82 283 152 371 c 0,22,23
 230 469 230 469 357 521 c 1,24,-1
 346 587 l 1,25,26
 346 600 346 600 353 613 c 0,27,28
 358 621 358 621 366.5 632.5 c 128,-1,29
 375 644 375 644 388 660 c 1,30,-1
 411 678 l 1,31,-1
 437 549 l 1,32,-1
 461 320 l 2,33,34
 473 210 473 210 512 168 c 0,35,36
 539 141 539 141 611 141 c 2,37,-1
 631 141 l 1,38,-1
 631 0 l 1,39,-1
 607 0 l 2,8,9
393 307 m 1,40,-1
 393 324 l 1,41,-1
 364 483 l 1,42,-1
 329 422 l 1,43,-1
 285 399 l 1,44,-1
 247 375 l 2,45,46
 197 342 197 342 197 320 c 0,47,48
 197 306 197 306 258 294 c 2,49,-1
 323 287 l 1,50,-1
 395 287 l 1,51,-1
 393 307 l 1,40,-1
EndSplineSet
EndChar

StartChar: tehisolated
Encoding: 65173 65173 108
Width: 1362
Flags: W
AnchorPoint: "ArabicBelow" 681 -272 basechar 0
AnchorPoint: "ArabicAbove" 681 969 basechar 0
LayerCount: 2
Fore
SplineSet
808 516 m 1,0,-1
 702 594 l 1,1,-1
 640 490 l 1,2,-1
 514 585 l 1,3,-1
 587 699 l 1,4,5
 614 675 614 675 643 653.5 c 128,-1,6
 672 632 672 632 697 618 c 1,7,8
 713 643 713 643 723.5 659.5 c 128,-1,9
 734 676 734 676 741 686.5 c 128,-1,10
 748 697 748 697 753 704 c 128,-1,11
 758 711 758 711 763 719 c 1,12,-1
 887 633 l 1,13,-1
 808 516 l 1,0,-1
1313 353 m 0,14,15
 1313 313 1313 313 1281 228 c 0,16,17
 1250 149 1250 149 1211 123 c 0,18,19
 1169 100 1169 100 1096.5 75.5 c 128,-1,20
 1024 51 1024 51 919 25 c 0,21,22
 822 1 822 1 730 -10.5 c 128,-1,23
 638 -22 638 -22 541 -22 c 0,24,25
 358 -22 358 -22 232 29 c 0,26,27
 82 92 82 92 82 225 c 0,28,29
 82 279 82 279 92 315 c 0,30,31
 97 341 97 341 104 360.5 c 128,-1,32
 111 380 111 380 125 408 c 0,33,34
 165 486 165 486 197 486 c 1,35,-1
 199 450 l 1,36,-1
 154 340 l 1,37,38
 154 233 154 233 276 174 c 2,39,-1
 334 154 l 1,40,-1
 405 136 l 2,41,42
 453 129 453 129 494.5 126 c 128,-1,43
 536 123 536 123 574 123 c 0,44,45
 803 123 803 123 1022 180 c 0,46,47
 1240 237 1240 237 1245 272 c 1,48,-1
 1240 311 l 2,49,50
 1240 323 1240 323 1225 344 c 1,51,-1
 1199 396 l 2,52,53
 1193 408 1193 408 1178 426 c 1,54,-1
 1242 574 l 1,55,56
 1313 467 1313 467 1313 353 c 0,14,15
EndSplineSet
EndChar

StartChar: tehfinal
Encoding: 65174 65174 109
Width: 1461
Flags: W
AnchorPoint: "ArabicBelow" 730 -303 basechar 0
AnchorPoint: "ArabicAbove" 730 969 basechar 0
LayerCount: 2
Fore
SplineSet
839 516 m 1,0,-1
 733 594 l 1,1,-1
 671 490 l 1,2,-1
 545 585 l 1,3,-1
 618 699 l 1,4,-1
 728 618 l 1,5,-1
 794 719 l 1,6,-1
 918 633 l 1,7,-1
 839 516 l 1,0,-1
1419 0 m 2,8,9
 1370 0 1370 0 1333 15 c 2,10,-1
 1302 33 l 1,11,-1
 1276 57 l 1,12,-1
 1254 88 l 2,13,14
 1237 115 1237 115 1231 115 c 0,15,16
 1228 115 1228 115 1224 113.5 c 128,-1,17
 1220 112 1220 112 1213.5 106 c 128,-1,18
 1207 100 1207 100 1196 89 c 128,-1,19
 1185 78 1185 78 1168 60 c 1,20,21
 1145 46 1145 46 1104.5 29 c 128,-1,22
 1064 12 1064 12 1001 -5 c 0,23,24
 910 -30 910 -30 817 -41.5 c 128,-1,25
 724 -53 724 -53 624 -53 c 0,26,27
 563 -53 563 -53 512.5 -49 c 128,-1,28
 462 -45 462 -45 422 -37 c 0,29,30
 340 -22 340 -22 261 11 c 0,31,32
 82 88 82 88 82 256 c 0,33,34
 82 307 82 307 92 340 c 0,35,36
 95 359 95 359 104 383 c 2,37,-1
 124 428 l 2,38,39
 162 500 162 500 181 507 c 1,40,-1
 179 464 l 1,41,-1
 161 404 l 1,42,-1
 154 360 l 1,43,44
 154 321 154 321 166 288.5 c 128,-1,45
 178 256 178 256 204.5 228.5 c 128,-1,46
 231 201 231 201 273.5 177.5 c 128,-1,47
 316 154 316 154 378 133 c 0,48,49
 497 93 497 93 673 93 c 0,50,51
 731 93 731 93 777.5 94.5 c 128,-1,52
 824 96 824 96 861 100 c 2,53,-1
 902 100 l 1,54,55
 935 106 935 106 954 109.5 c 128,-1,56
 973 113 973 113 983 114.5 c 128,-1,57
 993 116 993 116 996 116.5 c 128,-1,58
 999 117 999 117 1000 117 c 2,59,60
 1053 137 1053 137 1102.5 149 c 128,-1,61
 1152 161 1152 161 1192 183 c 0,62,63
 1204 192 1204 192 1226 228 c 0,64,65
 1244 267 1244 267 1262 267 c 1,66,-1
 1296 203 l 2,67,68
 1329 141 1329 141 1426 141 c 2,69,-1
 1472 141 l 1,70,-1
 1472 0 l 1,71,-1
 1419 0 l 2,8,9
EndSplineSet
EndChar

StartChar: tehinitial
Encoding: 65175 65175 110
Width: 417
Flags: W
AnchorPoint: "ArabicBelow" 208 -250 basechar 0
AnchorPoint: "ArabicAbove" 208 1139 basechar 0
LayerCount: 2
Fore
SplineSet
333 686 m 1,0,-1
 227 764 l 1,1,-1
 165 660 l 1,2,-1
 38 755 l 1,3,-1
 112 869 l 1,4,5
 141 843 141 843 167.5 823.5 c 128,-1,6
 194 804 194 804 224 786 c 1,7,-1
 287 889 l 1,8,-1
 411 803 l 1,9,-1
 333 686 l 1,0,-1
73 140 m 1,10,-1
 156 143 l 1,11,-1
 176 150 l 2,12,13
 196 154 196 154 208 157.5 c 128,-1,14
 220 161 220 161 225 163 c 0,15,16
 246 169 246 169 249 185 c 1,17,18
 249 226 249 226 221 269 c 0,19,20
 215 280 215 280 206.5 292 c 128,-1,21
 198 304 198 304 176 327 c 1,22,23
 176 340 176 340 181 358 c 2,24,-1
 227 483 l 1,25,26
 272 438 272 438 296 388 c 128,-1,27
 320 338 320 338 320 290 c 2,28,-1
 320 287 l 2,29,30
 320 285 320 285 319 272.5 c 128,-1,31
 318 260 318 260 315 225 c 1,32,-1
 300 170 l 2,33,34
 282 94 282 94 217 47 c 256,35,36
 152 0 152 0 60 0 c 2,37,-1
 -9 0 l 1,38,-1
 -9 141 l 1,39,-1
 73 140 l 1,10,-1
EndSplineSet
EndChar

StartChar: tehmedial
Encoding: 65176 65176 111
Width: 407
Flags: W
AnchorPoint: "ArabicBelow" 203 -250 basechar 0
AnchorPoint: "ArabicAbove" 203 969 basechar 0
LayerCount: 2
Fore
SplineSet
315 516 m 1,0,-1
 207 595 l 1,1,2
 189 562 189 562 178.5 542.5 c 128,-1,3
 168 523 168 523 161.5 512.5 c 128,-1,4
 155 502 155 502 152 497.5 c 128,-1,5
 149 493 149 493 146 490 c 1,6,-1
 20 585 l 1,7,-1
 93 699 l 1,8,9
 118 679 118 679 135.5 665 c 128,-1,10
 153 651 153 651 166 642 c 128,-1,11
 179 633 179 633 188 627 c 128,-1,12
 197 621 197 621 206 616 c 1,13,-1
 269 719 l 1,14,-1
 393 633 l 1,15,-1
 315 516 l 1,0,-1
4 141 m 2,16,17
 106 141 106 141 168 179 c 1,18,-1
 256 267 l 1,19,-1
 287 203 l 2,20,21
 313 141 313 141 404 141 c 2,22,-1
 422 141 l 1,23,-1
 422 0 l 1,24,-1
 388 0 l 2,25,26
 348 0 348 0 315 18 c 1,27,-1
 271 57 l 1,28,-1
 241 95 l 2,29,30
 231 111 231 111 221 113 c 1,31,-1
 176 73 l 2,32,33
 151 54 151 54 134 42.5 c 128,-1,34
 117 31 117 31 103.5 23.5 c 128,-1,35
 90 16 90 16 77 11.5 c 128,-1,36
 64 7 64 7 48 2 c 1,37,-1
 18 0 l 1,38,-1
 -9 0 l 1,39,-1
 -9 141 l 1,40,-1
 4 141 l 2,16,17
EndSplineSet
EndChar

StartChar: thehisolated
Encoding: 65177 65177 112
Width: 1604
Flags: W
AnchorPoint: "ArabicBelow" 802 -272 basechar 0
AnchorPoint: "ArabicAbove" 802 1168 basechar 0
LayerCount: 2
Fore
SplineSet
688 715 m 1,0,-1
 565 799 l 1,1,-1
 647 918 l 1,2,-1
 761 830 l 1,3,-1
 688 715 l 1,0,-1
808 516 m 1,4,-1
 702 594 l 1,5,-1
 640 490 l 1,6,-1
 514 585 l 1,7,-1
 587 699 l 1,8,9
 614 675 614 675 643 653.5 c 128,-1,10
 672 632 672 632 697 618 c 1,11,12
 713 643 713 643 723.5 659.5 c 128,-1,13
 734 676 734 676 741 686.5 c 128,-1,14
 748 697 748 697 753 704 c 128,-1,15
 758 711 758 711 763 719 c 1,16,-1
 887 633 l 1,17,-1
 808 516 l 1,4,-1
1313 353 m 0,18,19
 1313 313 1313 313 1281 228 c 0,20,21
 1250 149 1250 149 1211 123 c 0,22,23
 1169 100 1169 100 1096.5 75.5 c 128,-1,24
 1024 51 1024 51 919 25 c 0,25,26
 822 1 822 1 730 -10.5 c 128,-1,27
 638 -22 638 -22 541 -22 c 0,28,29
 358 -22 358 -22 232 29 c 0,30,31
 82 92 82 92 82 225 c 0,32,33
 82 279 82 279 92 315 c 0,34,35
 97 341 97 341 104 360.5 c 128,-1,36
 111 380 111 380 125 408 c 0,37,38
 165 486 165 486 197 486 c 1,39,-1
 199 450 l 1,40,-1
 156 340 l 1,41,42
 156 233 156 233 278 174 c 2,43,-1
 334 154 l 1,44,-1
 405 136 l 2,45,46
 453 129 453 129 494.5 126 c 128,-1,47
 536 123 536 123 574 123 c 0,48,49
 803 123 803 123 1022 180 c 0,50,51
 1240 237 1240 237 1245 272 c 1,52,-1
 1240 311 l 2,53,54
 1240 323 1240 323 1225 344 c 1,55,-1
 1199 396 l 2,56,57
 1193 408 1193 408 1178 426 c 1,58,-1
 1242 574 l 1,59,60
 1313 467 1313 467 1313 353 c 0,18,19
EndSplineSet
EndChar

StartChar: thehfinal
Encoding: 65178 65178 113
Width: 1461
Flags: W
AnchorPoint: "ArabicBelow" 730 -303 basechar 0
AnchorPoint: "ArabicAbove" 730 1168 basechar 0
LayerCount: 2
Fore
SplineSet
719 715 m 1,0,-1
 596 799 l 1,1,-1
 678 918 l 1,2,-1
 792 830 l 1,3,-1
 719 715 l 1,0,-1
839 516 m 1,4,-1
 733 594 l 1,5,-1
 671 490 l 1,6,-1
 545 585 l 1,7,-1
 618 699 l 1,8,9
 643 679 643 679 660.5 665 c 128,-1,10
 678 651 678 651 690.5 642 c 128,-1,11
 703 633 703 633 711.5 627.5 c 128,-1,12
 720 622 720 622 728 618 c 1,13,14
 744 643 744 643 754.5 659.5 c 128,-1,15
 765 676 765 676 772 686.5 c 128,-1,16
 779 697 779 697 784 704 c 128,-1,17
 789 711 789 711 794 719 c 1,18,-1
 918 633 l 1,19,-1
 839 516 l 1,4,-1
1419 0 m 2,20,21
 1370 0 1370 0 1333 15 c 2,22,-1
 1302 33 l 1,23,-1
 1254 88 l 1,24,25
 1237 115 1237 115 1231 115 c 0,26,27
 1219 115 1219 115 1201 97 c 2,28,-1
 1168 60 l 1,29,30
 1145 46 1145 46 1104.5 29 c 128,-1,31
 1064 12 1064 12 1001 -5 c 0,32,33
 910 -30 910 -30 817 -41.5 c 128,-1,34
 724 -53 724 -53 624 -53 c 0,35,36
 563 -53 563 -53 512.5 -49 c 128,-1,37
 462 -45 462 -45 422 -37 c 0,38,39
 340 -22 340 -22 261 11 c 0,40,41
 82 88 82 88 82 256 c 0,42,43
 82 307 82 307 92 340 c 0,44,45
 95 359 95 359 104 383 c 2,46,-1
 113 405 l 1,47,-1
 124 428 l 2,48,49
 162 500 162 500 181 507 c 1,50,-1
 181 478 l 1,51,-1
 161 404 l 1,52,-1
 154 360 l 1,53,54
 154 321 154 321 166 288.5 c 128,-1,55
 178 256 178 256 204.5 228.5 c 128,-1,56
 231 201 231 201 273.5 177.5 c 128,-1,57
 316 154 316 154 378 133 c 0,58,59
 497 93 497 93 673 93 c 0,60,61
 731 93 731 93 777.5 94.5 c 128,-1,62
 824 96 824 96 861 100 c 0,63,64
 897 103 897 103 920 106 c 128,-1,65
 943 109 943 109 959.5 111.5 c 128,-1,66
 976 114 976 114 989 117 c 128,-1,67
 1002 120 1002 120 1017 123 c 0,68,69
 1122 144 1122 144 1192 183 c 0,70,71
 1204 192 1204 192 1226 228 c 0,72,73
 1244 267 1244 267 1262 267 c 1,74,-1
 1296 203 l 2,75,76
 1329 141 1329 141 1426 141 c 2,77,-1
 1472 141 l 1,78,-1
 1472 0 l 1,79,-1
 1419 0 l 2,20,21
EndSplineSet
EndChar

StartChar: thehinitial
Encoding: 65179 65179 114
Width: 395
Flags: W
AnchorPoint: "ArabicBelow" 197 -250 basechar 0
AnchorPoint: "ArabicAbove" 197 1322 basechar 0
LayerCount: 2
Fore
SplineSet
194 854 m 1,0,-1
 64 945 l 1,1,-1
 154 1072 l 1,2,-1
 274 976 l 1,3,-1
 194 854 l 1,0,-1
315 680 m 1,4,-1
 207 760 l 1,5,-1
 146 655 l 1,6,-1
 20 750 l 1,7,-1
 93 863 l 1,8,-1
 203 783 l 1,9,-1
 269 883 l 1,10,-1
 393 797 l 1,11,-1
 315 680 l 1,4,-1
73 140 m 1,12,-1
 156 143 l 1,13,14
 191 152 191 152 205.5 156.5 c 128,-1,15
 220 161 220 161 225 163 c 0,16,17
 246 169 246 169 249 185 c 1,18,19
 249 226 249 226 221 269 c 0,20,21
 215 280 215 280 209 288.5 c 128,-1,22
 203 297 203 297 198 304 c 1,23,-1
 176 327 l 1,24,25
 176 340 176 340 181 358 c 2,26,-1
 227 483 l 1,27,28
 272 438 272 438 296 389.5 c 128,-1,29
 320 341 320 341 320 293 c 2,30,-1
 320 290 l 1,31,-1
 319 244 l 1,32,-1
 305 170 l 2,33,34
 296 132 296 132 272.5 101 c 128,-1,35
 249 70 249 70 217 47 c 0,36,37
 152 0 152 0 60 0 c 2,38,-1
 -9 0 l 1,39,-1
 -9 141 l 1,40,-1
 73 140 l 1,12,-1
EndSplineSet
EndChar

StartChar: thehmedial
Encoding: 65180 65180 115
Width: 412
Flags: W
AnchorPoint: "ArabicBelow" 206 -250 basechar 0
AnchorPoint: "ArabicAbove" 206 1172 basechar 0
LayerCount: 2
Fore
SplineSet
196 719 m 1,0,-1
 73 803 l 1,1,-1
 155 922 l 1,2,-1
 269 834 l 1,3,-1
 196 719 l 1,0,-1
316 521 m 1,4,-1
 210 600 l 1,5,-1
 148 496 l 1,6,-1
 22 591 l 1,7,-1
 95 704 l 1,8,-1
 205 624 l 1,9,-1
 271 724 l 1,10,-1
 395 638 l 1,11,-1
 316 521 l 1,4,-1
4 141 m 2,12,13
 106 141 106 141 168 179 c 1,14,-1
 256 267 l 1,15,-1
 266 252 l 1,16,-1
 287 203 l 2,17,18
 313 141 313 141 404 141 c 2,19,-1
 422 141 l 1,20,-1
 422 0 l 1,21,-1
 388 0 l 2,22,23
 348 0 348 0 315 18 c 1,24,-1
 296 33 l 1,25,-1
 271 57 l 1,26,-1
 241 95 l 2,27,28
 231 111 231 111 221 113 c 1,29,-1
 176 73 l 1,30,-1
 125 34 l 2,31,32
 113 26 113 26 100 19.5 c 128,-1,33
 87 13 87 13 73 8 c 2,34,-1
 48 2 l 1,35,-1
 18 0 l 1,36,-1
 -9 0 l 1,37,-1
 -9 141 l 1,38,-1
 4 141 l 2,12,13
EndSplineSet
EndChar

StartChar: jeemisolated
Encoding: 65181 65181 116
Width: 1104
Flags: W
AnchorPoint: "ArabicBelow" 552 -1060 basechar 0
AnchorPoint: "ArabicAbove" 552 705 basechar 0
LayerCount: 2
Fore
SplineSet
1161 -645 m 1,0,1
 1161 -678 1161 -678 984 -744 c 0,2,3
 808 -810 808 -810 656 -810 c 0,4,5
 389 -810 389 -810 238 -689 c 0,6,7
 88 -569 88 -569 88 -347 c 0,8,9
 88 -159 88 -159 198 14 c 0,10,11
 307 184 307 184 485 282 c 2,12,-1
 503 292 l 1,13,-1
 342 313 l 1,14,-1
 289 317 l 1,15,-1
 254 317 l 2,16,17
 237 317 237 317 217 310 c 2,18,19
 205 308 205 308 190.5 302 c 128,-1,20
 176 296 176 296 150 282 c 2,21,-1
 135 274 l 1,22,23
 135 324 135 324 175 385 c 0,24,25
 220 455 220 455 298 455 c 2,26,-1
 345 455 l 2,27,28
 355 455 355 455 363 454.5 c 128,-1,29
 371 454 371 454 383 452 c 128,-1,30
 395 450 395 450 413 446 c 128,-1,31
 431 442 431 442 461 435 c 2,32,-1
 494 424 l 1,33,-1
 620 406 l 1,34,-1
 703 399 l 1,35,-1
 980 399 l 1,36,-1
 925 276 l 1,37,-1
 878 273 l 1,38,-1
 736 256 l 1,39,-1
 680 245 l 2,40,41
 477 212 477 212 329 73 c 0,42,43
 166 -78 166 -78 166 -278 c 0,44,45
 166 -386 166 -386 227 -477 c 0,46,47
 297 -579 297 -579 446 -636 c 2,48,-1
 506 -654 l 1,49,-1
 578 -666 l 1,50,-1
 657 -674 l 2,51,52
 667 -675 667 -675 676 -675 c 0,53,54
 686 -675 686 -675 695 -675 c 2,55,-1
 730 -675 l 2,56,57
 780 -675 780 -675 821.5 -672 c 128,-1,58
 863 -669 863 -669 914 -664 c 0,59,60
 946 -662 l 128,-1,61
 962 -661 962 -661 982.5 -659.5 c 128,-1,62
 1003 -658 1003 -658 1029.5 -657 c 128,-1,63
 1056 -656 1056 -656 1094 -655 c 2,64,-1
 1161 -645 l 1,0,1
614 -357 m 1,65,-1
 485 -265 l 1,66,-1
 574 -139 l 1,67,-1
 695 -234 l 1,68,-1
 614 -357 l 1,65,-1
EndSplineSet
EndChar

StartChar: jeemfinal
Encoding: 65182 65182 117
Width: 1133
Flags: W
AnchorPoint: "ArabicBelow" 566 -1064 basechar 0
AnchorPoint: "ArabicAbove" 566 703 basechar 0
LayerCount: 2
Fore
SplineSet
1161 -645 m 1,0,1
 1161 -675 1161 -675 984 -745 c 0,2,3
 947 -759 947 -759 905.5 -771.5 c 128,-1,4
 864 -784 864 -784 816 -795 c 2,5,-1
 733 -809 l 2,6,7
 711 -811 711 -811 692 -812.5 c 128,-1,8
 673 -814 673 -814 656 -814 c 0,9,10
 390 -814 390 -814 238 -692 c 0,11,12
 88 -571 88 -571 88 -347 c 0,13,14
 88 -159 88 -159 198 14 c 0,15,16
 255 102 255 102 325 168 c 128,-1,17
 395 234 395 234 486 285 c 1,18,-1
 335 305 l 1,19,-1
 289 308 l 1,20,-1
 254 308 l 2,21,22
 245 308 245 308 236 306.5 c 128,-1,23
 227 305 227 305 217 303 c 0,24,25
 196 300 196 300 166 285 c 1,26,-1
 135 276 l 1,27,28
 135 330 135 330 170 386 c 0,29,30
 213 453 213 453 294 453 c 2,31,-1
 317 453 l 2,32,33
 324 453 324 453 330 452.5 c 128,-1,34
 336 452 336 452 341 451 c 1,35,-1
 365 450 l 2,36,37
 393 447 393 447 412.5 444.5 c 128,-1,38
 432 442 432 442 446.5 439.5 c 128,-1,39
 461 437 461 437 473 433 c 128,-1,40
 485 429 485 429 499 423 c 1,41,-1
 692 402 l 1,42,-1
 960 402 l 1,43,-1
 905 280 l 1,44,-1
 875 280 l 2,45,46
 860 280 860 280 850 278 c 2,47,-1
 742 261 l 1,48,49
 742 192 742 192 803 165 c 0,50,51
 835 153 835 153 883 147 c 128,-1,52
 931 141 931 141 1009 141 c 2,53,-1
 1143 141 l 1,54,-1
 1143 0 l 1,55,-1
 918 0 l 2,56,57
 787 0 787 0 722 71 c 0,58,59
 678 121 678 121 678 203 c 0,60,61
 678 230 678 230 684 251 c 1,62,63
 483 218 483 218 332 76 c 0,64,65
 166 -81 166 -81 166 -278 c 0,66,67
 166 -386 166 -386 227 -477 c 0,68,69
 297 -579 297 -579 446 -636 c 2,70,-1
 506 -654 l 1,71,-1
 578 -666 l 1,72,-1
 657 -674 l 1,73,-1
 741 -677 l 2,74,75
 760 -677 760 -677 802.5 -674 c 128,-1,76
 845 -671 845 -671 914 -664 c 0,77,78
 946 -662 l 128,-1,79
 962 -661 962 -661 982.5 -659.5 c 128,-1,80
 1003 -658 1003 -658 1029.5 -657 c 128,-1,81
 1056 -656 1056 -656 1094 -655 c 2,82,-1
 1161 -645 l 1,0,1
633 -393 m 1,83,-1
 503 -302 l 1,84,-1
 592 -176 l 1,85,-1
 713 -271 l 1,86,-1
 633 -393 l 1,83,-1
EndSplineSet
EndChar

StartChar: jeeminitial
Encoding: 65183 65183 118
Width: 1006
Flags: W
AnchorPoint: "ArabicBelow" 503 -541 basechar 0
AnchorPoint: "ArabicAbove" 503 762 basechar 0
LayerCount: 2
Fore
SplineSet
7 141 m 2,0,1
 52 141 52 141 91 143 c 128,-1,2
 130 145 130 145 165 149 c 0,3,4
 199 153 199 153 232.5 161.5 c 128,-1,5
 266 170 266 170 300 183 c 2,6,-1
 485 251 l 1,7,-1
 533 272 l 1,8,-1
 400 322 l 1,9,-1
 353 336 l 1,10,-1
 284 350 l 1,11,-1
 243 355 l 1,12,-1
 189 355 l 2,13,14
 178 355 178 355 168 353 c 2,15,-1
 133 347 l 1,16,-1
 73 331 l 1,17,-1
 102 421 l 1,18,19
 157 512 157 512 249 512 c 0,20,21
 274 512 274 512 310.5 500.5 c 128,-1,22
 347 489 347 489 398 464 c 2,23,-1
 618 372 l 2,24,25
 711 336 711 336 768 324 c 2,26,-1
 876 309 l 1,27,-1
 935 304 l 1,28,-1
 997 304 l 1,29,-1
 911 165 l 1,30,-1
 810 185 l 1,31,-1
 678 192 l 1,32,-1
 610 189 l 1,33,-1
 575 184 l 2,34,35
 569 183 569 183 561.5 181 c 128,-1,36
 554 179 554 179 543 178 c 1,37,-1
 172 29 l 1,38,-1
 91 8 l 1,39,-1
 57 2 l 1,40,-1
 29 0 l 1,41,-1
 -7 0 l 1,42,-1
 -7 141 l 1,43,-1
 7 141 l 2,0,1
523 -291 m 1,44,-1
 393 -199 l 1,45,-1
 483 -73 l 1,46,-1
 603 -168 l 1,47,-1
 523 -291 l 1,44,-1
EndSplineSet
EndChar

StartChar: jeemmedial
Encoding: 65184 65184 119
Width: 1121
Flags: W
AnchorPoint: "ArabicBelow" 560 -541 basechar 0
AnchorPoint: "ArabicAbove" 560 758 basechar 0
LayerCount: 2
Fore
SplineSet
5 141 m 2,0,1
 54 141 54 141 96.5 143.5 c 128,-1,2
 139 146 139 146 174 151 c 256,3,4
 209 156 209 156 244.5 165 c 128,-1,5
 280 174 280 174 318 182 c 1,6,-1
 550 287 l 1,7,-1
 373 340 l 2,8,9
 285 357 285 357 238 357 c 0,10,11
 203 357 203 357 182.5 355 c 128,-1,12
 162 353 162 353 144 346 c 2,13,-1
 116 332 l 1,14,-1
 95 320 l 1,15,-1
 95 349 l 1,16,17
 122 434 122 434 165.5 471 c 128,-1,18
 209 508 209 508 269 508 c 0,19,20
 314 508 314 508 505 436 c 0,21,22
 553 418 553 418 599 404.5 c 128,-1,23
 645 391 645 391 693 381 c 0,24,25
 716 376 716 376 737 373 c 128,-1,26
 758 370 758 370 790 367 c 0,27,28
 816 364 816 364 829 363 c 128,-1,29
 842 362 842 362 853 362 c 2,30,-1
 869 362 l 1,31,-1
 900 362 l 2,32,33
 919 362 919 362 942 363.5 c 128,-1,34
 965 365 965 365 991 370 c 1,35,-1
 929 240 l 1,36,-1
 918 210 l 1,37,-1
 886 216 l 1,38,-1
 783 229 l 1,39,40
 795 182 795 182 845 159 c 1,41,-1
 901 146 l 1,42,-1
 938 141 l 1,43,-1
 1134 141 l 1,44,-1
 1134 0 l 1,45,-1
 971 0 l 2,46,47
 889 0 889 0 860 7 c 0,48,49
 822 15 822 15 787 36 c 256,50,51
 752 57 752 57 728 123 c 1,52,-1
 722 163 l 1,53,-1
 720 205 l 1,54,-1
 720 227 l 1,55,56
 669 222 669 222 628.5 211.5 c 128,-1,57
 588 201 588 201 549 183 c 2,58,-1
 424 126 l 2,59,60
 310 78 310 78 223 48 c 0,61,62
 83 0 83 0 11 0 c 2,63,-1
 -9 0 l 1,64,-1
 -9 141 l 1,65,-1
 5 141 l 2,0,1
523 -291 m 1,66,-1
 393 -199 l 1,67,-1
 483 -73 l 1,68,-1
 603 -168 l 1,69,-1
 523 -291 l 1,66,-1
EndSplineSet
EndChar

StartChar: hahisolated
Encoding: 65185 65185 120
Width: 1104
Flags: W
AnchorPoint: "ArabicBelow" 552 -1060 basechar 0
AnchorPoint: "ArabicAbove" 552 705 basechar 0
LayerCount: 2
Fore
SplineSet
1161 -645 m 1,0,1
 1161 -678 1161 -678 984 -744 c 0,2,3
 808 -810 808 -810 656 -810 c 0,4,5
 389 -810 389 -810 238 -689 c 0,6,7
 88 -569 88 -569 88 -347 c 0,8,9
 88 -159 88 -159 198 14 c 0,10,11
 307 184 307 184 485 282 c 2,12,-1
 503 292 l 1,13,-1
 342 313 l 1,14,-1
 289 317 l 1,15,-1
 254 317 l 2,16,17
 237 317 237 317 217 310 c 0,18,19
 193 305 193 305 166 289 c 2,20,-1
 150 282 l 1,21,-1
 135 274 l 1,22,23
 135 324 135 324 175 385 c 0,24,25
 220 455 220 455 298 455 c 2,26,-1
 345 455 l 1,27,-1
 362 454 l 2,28,29
 365 454 365 454 369.5 453.5 c 128,-1,30
 374 453 374 453 384.5 451 c 128,-1,31
 395 449 395 449 413 445.5 c 128,-1,32
 431 442 431 442 461 435 c 2,33,-1
 620 406 l 1,34,-1
 703 399 l 1,35,-1
 980 399 l 1,36,-1
 925 276 l 1,37,-1
 878 273 l 1,38,-1
 736 256 l 1,39,-1
 680 245 l 2,40,41
 477 212 477 212 329 73 c 0,42,43
 166 -78 166 -78 166 -278 c 0,44,45
 166 -386 166 -386 227 -477 c 0,46,47
 297 -579 297 -579 446 -636 c 2,48,-1
 506 -654 l 1,49,-1
 578 -666 l 1,50,-1
 657 -674 l 1,51,-1
 741 -677 l 2,52,53
 760 -677 760 -677 802.5 -674 c 128,-1,54
 845 -671 845 -671 914 -664 c 0,55,56
 980 -658 980 -658 1023 -658 c 2,57,-1
 1094 -655 l 1,58,-1
 1161 -645 l 1,0,1
EndSplineSet
EndChar

StartChar: hahfinal
Encoding: 65186 65186 121
Width: 1123
Flags: W
AnchorPoint: "ArabicBelow" 561 -1064 basechar 0
AnchorPoint: "ArabicAbove" 561 703 basechar 0
LayerCount: 2
Fore
SplineSet
1161 -645 m 1,0,1
 1161 -675 1161 -675 984 -745 c 0,2,3
 947 -759 947 -759 905.5 -771.5 c 128,-1,4
 864 -784 864 -784 816 -795 c 2,5,-1
 733 -809 l 2,6,7
 711 -811 711 -811 692 -812.5 c 128,-1,8
 673 -814 673 -814 656 -814 c 0,9,10
 390 -814 390 -814 238 -692 c 0,11,12
 88 -571 88 -571 88 -347 c 0,13,14
 88 -159 88 -159 198 14 c 0,15,16
 255 102 255 102 325 168 c 128,-1,17
 395 234 395 234 486 285 c 1,18,-1
 335 305 l 1,19,-1
 289 308 l 1,20,-1
 254 308 l 2,21,22
 245 308 245 308 236 306.5 c 128,-1,23
 227 305 227 305 217 303 c 0,24,25
 196 300 196 300 166 285 c 1,26,-1
 135 276 l 1,27,28
 135 330 135 330 170 386 c 0,29,30
 213 453 213 453 294 453 c 2,31,-1
 317 453 l 2,32,33
 325 453 325 453 337.5 451.5 c 128,-1,34
 350 450 350 450 386 446 c 0,35,36
 407 444 407 444 417.5 442 c 128,-1,37
 428 440 428 440 437.5 437.5 c 128,-1,38
 447 435 447 435 459.5 431.5 c 128,-1,39
 472 428 472 428 496 423 c 2,40,-1
 692 402 l 1,41,-1
 960 402 l 1,42,-1
 905 280 l 1,43,-1
 875 280 l 2,44,45
 860 280 860 280 850 278 c 2,46,-1
 742 261 l 1,47,48
 742 192 742 192 803 165 c 0,49,50
 835 153 835 153 883 147 c 128,-1,51
 931 141 931 141 1009 141 c 2,52,-1
 1143 141 l 1,53,-1
 1143 0 l 1,54,-1
 918 0 l 2,55,56
 787 0 787 0 722 71 c 0,57,58
 678 121 678 121 678 203 c 0,59,60
 678 230 678 230 684 251 c 1,61,62
 483 218 483 218 332 76 c 0,63,64
 166 -81 166 -81 166 -278 c 0,65,66
 166 -386 166 -386 227 -477 c 0,67,68
 297 -579 297 -579 446 -636 c 2,69,-1
 506 -654 l 1,70,-1
 578 -666 l 1,71,-1
 657 -674 l 1,72,-1
 741 -677 l 2,73,74
 760 -677 760 -677 802.5 -674 c 128,-1,75
 845 -671 845 -671 914 -664 c 0,76,77
 946 -662 l 128,-1,78
 962 -661 962 -661 979 -660 c 128,-1,79
 996 -659 996 -659 1015.5 -658.5 c 128,-1,80
 1035 -658 1035 -658 1060 -658 c 2,81,-1
 1094 -655 l 1,82,-1
 1161 -645 l 1,0,1
EndSplineSet
EndChar

StartChar: hahinitial
Encoding: 65187 65187 122
Width: 1185
Flags: W
AnchorPoint: "ArabicBelow" 592 -250 basechar 0
AnchorPoint: "ArabicAbove" 592 766 basechar 0
LayerCount: 2
Fore
SplineSet
7 141 m 2,0,1
 157 141 157 141 271 174 c 2,2,-1
 512 258 l 1,3,-1
 424 297 l 1,4,-1
 344 327 l 1,5,-1
 270 344 l 2,6,7
 254 347 254 347 245 348 c 128,-1,8
 236 349 236 349 219 349 c 0,9,10
 180 349 180 349 156 346 c 0,11,12
 148 346 148 346 142 345.5 c 128,-1,13
 136 345 136 345 131 344 c 2,14,-1
 68 336 l 1,15,16
 87 384 87 384 107.5 418.5 c 128,-1,17
 128 453 128 453 152.5 474.5 c 128,-1,18
 177 496 177 496 206.5 506 c 128,-1,19
 236 516 236 516 272 516 c 1,20,21
 320 494 320 494 364 475.5 c 128,-1,22
 408 457 408 457 450 441 c 2,23,-1
 622 377 l 2,24,25
 713 345 713 345 802.5 328 c 128,-1,26
 892 311 892 311 986 310 c 1,27,-1
 920 207 l 1,28,-1
 892 157 l 1,29,-1
 739 188 l 1,30,-1
 648 188 l 1,31,-1
 611 185 l 1,32,-1
 577 180 l 2,33,34
 572 179 572 179 564.5 177.5 c 128,-1,35
 557 176 557 176 545 176 c 1,36,-1
 216 48 l 2,37,38
 94 0 94 0 31 0 c 2,39,-1
 -7 0 l 1,40,-1
 -7 141 l 1,41,-1
 7 141 l 2,0,1
EndSplineSet
EndChar

StartChar: hahmedial
Encoding: 65188 65188 123
Width: 1111
Flags: W
AnchorPoint: "ArabicBelow" 555 -250 basechar 0
AnchorPoint: "ArabicAbove" 555 758 basechar 0
LayerCount: 2
Fore
SplineSet
5 141 m 2,0,1
 54 141 54 141 96.5 143.5 c 128,-1,2
 139 146 139 146 174 151 c 256,3,4
 209 156 209 156 244.5 165 c 128,-1,5
 280 174 280 174 318 182 c 1,6,-1
 550 287 l 1,7,-1
 373 340 l 2,8,9
 285 357 285 357 238 357 c 0,10,11
 172 357 172 357 143 349 c 2,12,-1
 88 329 l 1,13,-1
 93 364 l 1,14,15
 123 449 123 449 164 478 c 0,16,17
 204 508 204 508 269 508 c 0,18,19
 314 508 314 508 505 436 c 0,20,21
 599 400 599 400 690 382 c 0,22,23
 715 377 715 377 736.5 373.5 c 128,-1,24
 758 370 758 370 790 367 c 0,25,26
 816 364 816 364 829 363 c 128,-1,27
 842 362 842 362 853 362 c 2,28,-1
 869 362 l 1,29,-1
 900 362 l 2,30,31
 919 362 919 362 942 363.5 c 128,-1,32
 965 365 965 365 991 370 c 1,33,-1
 929 240 l 1,34,-1
 918 210 l 1,35,-1
 886 216 l 1,36,-1
 783 229 l 1,37,38
 795 182 795 182 845 159 c 1,39,-1
 901 146 l 1,40,-1
 938 141 l 1,41,-1
 1134 141 l 1,42,-1
 1134 0 l 1,43,-1
 971 0 l 2,44,45
 889 0 889 0 860 7 c 0,46,47
 822 15 822 15 787 36 c 256,48,49
 752 57 752 57 728 123 c 1,50,-1
 720 163 l 1,51,-1
 720 205 l 1,52,-1
 720 227 l 1,53,54
 669 222 669 222 628.5 211.5 c 128,-1,55
 588 201 588 201 549 183 c 2,56,-1
 424 126 l 2,57,58
 310 78 310 78 223 48 c 0,59,60
 83 0 83 0 11 0 c 2,61,-1
 -9 0 l 1,62,-1
 -9 141 l 1,63,-1
 5 141 l 2,0,1
EndSplineSet
EndChar

StartChar: khahisolated
Encoding: 65189 65189 124
Width: 1109
Flags: W
AnchorPoint: "ArabicBelow" 554 -1060 basechar 0
AnchorPoint: "ArabicAbove" 554 1151 basechar 0
LayerCount: 2
Fore
SplineSet
470 684 m 1,0,-1
 340 775 l 1,1,-1
 430 901 l 1,2,-1
 550 806 l 1,3,-1
 470 684 l 1,0,-1
1161 -645 m 1,4,5
 1161 -678 1161 -678 984 -744 c 0,6,7
 808 -810 808 -810 656 -810 c 0,8,9
 389 -810 389 -810 238 -689 c 0,10,11
 88 -569 88 -569 88 -347 c 0,12,13
 88 -159 88 -159 198 14 c 0,14,15
 307 184 307 184 485 282 c 2,16,-1
 503 292 l 1,17,-1
 342 313 l 1,18,-1
 289 317 l 1,19,-1
 254 317 l 2,20,21
 237 317 237 317 217 310 c 0,22,23
 193 305 193 305 166 289 c 2,24,-1
 150 282 l 1,25,-1
 135 274 l 1,26,27
 135 324 135 324 175 385 c 0,28,29
 220 455 220 455 298 455 c 2,30,-1
 345 455 l 1,31,-1
 362 454 l 2,32,33
 365 454 365 454 369.5 453.5 c 128,-1,34
 374 453 374 453 384.5 451 c 128,-1,35
 395 449 395 449 413 445.5 c 128,-1,36
 431 442 431 442 461 435 c 2,37,-1
 494 424 l 1,38,-1
 620 406 l 1,39,-1
 703 399 l 1,40,-1
 980 399 l 1,41,-1
 925 276 l 1,42,-1
 878 273 l 1,43,-1
 736 256 l 1,44,-1
 680 245 l 2,45,46
 477 212 477 212 329 73 c 0,47,48
 166 -78 166 -78 166 -278 c 0,49,50
 166 -386 166 -386 227 -477 c 0,51,52
 297 -579 297 -579 446 -636 c 2,53,-1
 506 -654 l 1,54,-1
 578 -666 l 1,55,-1
 657 -674 l 1,56,-1
 741 -677 l 2,57,58
 760 -677 760 -677 802.5 -673 c 128,-1,59
 845 -669 845 -669 914 -664 c 0,60,61
 932 -663 932 -663 943.5 -661.5 c 128,-1,62
 955 -660 955 -660 977 -658 c 128,-1,63
 999 -656 999 -656 1040.5 -653 c 128,-1,64
 1082 -650 1082 -650 1161 -645 c 1,4,5
EndSplineSet
EndChar

StartChar: khahfinal
Encoding: 65190 65190 125
Width: 1126
Flags: W
AnchorPoint: "ArabicBelow" 563 -1064 basechar 0
AnchorPoint: "ArabicAbove" 563 1150 basechar 0
LayerCount: 2
Fore
SplineSet
499 682 m 1,0,-1
 369 773 l 1,1,-1
 459 900 l 1,2,-1
 580 805 l 1,3,-1
 499 682 l 1,0,-1
1161 -645 m 1,4,5
 1161 -675 1161 -675 984 -745 c 0,6,7
 947 -759 947 -759 905.5 -771.5 c 128,-1,8
 864 -784 864 -784 816 -795 c 2,9,-1
 733 -809 l 2,10,11
 711 -811 711 -811 692 -812.5 c 128,-1,12
 673 -814 673 -814 656 -814 c 0,13,14
 390 -814 390 -814 238 -692 c 0,15,16
 88 -571 88 -571 88 -347 c 0,17,18
 88 -159 88 -159 198 14 c 0,19,20
 255 102 255 102 325 168 c 128,-1,21
 395 234 395 234 486 285 c 1,22,-1
 335 305 l 1,23,-1
 289 308 l 1,24,-1
 254 308 l 2,25,26
 245 308 245 308 236 306.5 c 128,-1,27
 227 305 227 305 217 303 c 0,28,29
 196 300 196 300 166 285 c 1,30,-1
 135 276 l 1,31,32
 135 330 135 330 170 386 c 0,33,34
 213 453 213 453 294 453 c 2,35,-1
 317 453 l 2,36,37
 325 453 325 453 337.5 451.5 c 128,-1,38
 350 450 350 450 386 446 c 0,39,40
 409 446 409 446 434 441 c 128,-1,41
 459 436 459 436 468 434 c 1,42,43
 471 434 471 434 475 433 c 128,-1,44
 479 432 479 432 488 430 c 128,-1,45
 497 428 497 428 513.5 425 c 128,-1,46
 530 422 530 422 557 417 c 2,47,-1
 692 402 l 1,48,-1
 960 402 l 1,49,-1
 905 280 l 1,50,-1
 875 280 l 2,51,52
 860 280 860 280 850 278 c 2,53,-1
 742 261 l 1,54,55
 742 192 742 192 803 165 c 0,56,57
 835 153 835 153 883 147 c 128,-1,58
 931 141 931 141 1009 141 c 2,59,-1
 1143 141 l 1,60,-1
 1143 0 l 1,61,-1
 918 0 l 2,62,63
 787 0 787 0 722 71 c 0,64,65
 678 121 678 121 678 203 c 0,66,67
 678 230 678 230 684 251 c 1,68,69
 483 218 483 218 332 76 c 0,70,71
 166 -81 166 -81 166 -278 c 0,72,73
 166 -386 166 -386 227 -477 c 0,74,75
 297 -579 297 -579 446 -636 c 2,76,-1
 506 -654 l 1,77,-1
 578 -666 l 1,78,-1
 657 -674 l 1,79,-1
 741 -677 l 2,80,81
 760 -677 760 -677 802.5 -674 c 128,-1,82
 845 -671 845 -671 914 -664 c 0,83,84
 980 -658 980 -658 1023 -658 c 2,85,-1
 1114 -652 l 1,86,-1
 1161 -645 l 1,4,5
EndSplineSet
EndChar

StartChar: khahinitial
Encoding: 65191 65191 126
Width: 1190
Flags: W
AnchorPoint: "ArabicBelow" 595 -250 basechar 0
AnchorPoint: "ArabicAbove" 595 1108 basechar 0
LayerCount: 2
Fore
SplineSet
360 640 m 1,0,-1
 230 731 l 1,1,-1
 320 858 l 1,2,-1
 441 763 l 1,3,-1
 360 640 l 1,0,-1
7 141 m 2,4,5
 157 141 157 141 271 174 c 2,6,-1
 512 258 l 1,7,-1
 424 297 l 1,8,-1
 344 326 l 1,9,-1
 315 334 l 1,10,-1
 219 349 l 1,11,12
 180 349 180 349 156 346 c 0,13,14
 148 346 148 346 142 345.5 c 128,-1,15
 136 345 136 345 131 344 c 2,16,-1
 95 335 l 1,17,-1
 68 336 l 1,18,19
 87 384 87 384 107.5 418.5 c 128,-1,20
 128 453 128 453 152.5 474.5 c 128,-1,21
 177 496 177 496 206.5 506 c 128,-1,22
 236 516 236 516 272 516 c 1,23,24
 320 494 320 494 364 475.5 c 128,-1,25
 408 457 408 457 450 441 c 2,26,-1
 622 377 l 2,27,28
 802 311 802 311 984 311 c 1,29,-1
 891 155 l 1,30,-1
 794 177 l 1,31,-1
 739 188 l 1,32,-1
 678 188 l 1,33,-1
 648 188 l 1,34,-1
 577 180 l 2,35,36
 571 179 571 179 563.5 176.5 c 128,-1,37
 556 174 556 174 547 170 c 2,38,-1
 393 117 l 1,39,-1
 216 48 l 2,40,41
 94 0 94 0 31 0 c 2,42,-1
 -7 0 l 1,43,-1
 -7 141 l 1,44,-1
 7 141 l 2,4,5
EndSplineSet
EndChar

StartChar: khahmedial
Encoding: 65192 65192 127
Width: 1113
Flags: W
AnchorPoint: "ArabicBelow" 556 -250 basechar 0
AnchorPoint: "ArabicAbove" 556 1205 basechar 0
LayerCount: 2
Fore
SplineSet
408 737 m 1,0,-1
 278 828 l 1,1,-1
 368 955 l 1,2,-1
 488 859 l 1,3,-1
 408 737 l 1,0,-1
5 141 m 2,4,5
 54 141 54 141 96.5 143.5 c 128,-1,6
 139 146 139 146 174 151 c 256,7,8
 209 156 209 156 244.5 165 c 128,-1,9
 280 174 280 174 318 182 c 1,10,-1
 550 287 l 1,11,-1
 453 316 l 1,12,-1
 373 340 l 2,13,14
 285 357 285 357 238 357 c 0,15,16
 172 357 172 357 143 349 c 2,17,-1
 88 329 l 1,18,-1
 93 364 l 1,19,20
 123 449 123 449 164 478 c 0,21,22
 204 508 204 508 269 508 c 0,23,24
 314 508 314 508 505 436 c 0,25,26
 599 400 599 400 690 382 c 0,27,28
 713 377 713 377 735 373.5 c 128,-1,29
 757 370 757 370 790 367 c 0,30,31
 816 364 816 364 829 363 c 128,-1,32
 842 362 842 362 853 362 c 2,33,-1
 869 362 l 1,34,-1
 900 362 l 2,35,36
 919 362 919 362 942 363.5 c 128,-1,37
 965 365 965 365 991 370 c 1,38,-1
 918 210 l 1,39,-1
 886 216 l 1,40,-1
 783 229 l 1,41,42
 795 182 795 182 845 159 c 1,43,-1
 901 146 l 1,44,-1
 938 141 l 1,45,-1
 1134 141 l 1,46,-1
 1134 0 l 1,47,-1
 971 0 l 2,48,49
 889 0 889 0 860 7 c 0,50,51
 822 15 822 15 787 36 c 256,52,53
 752 57 752 57 728 123 c 1,54,-1
 722 163 l 1,55,-1
 720 227 l 1,56,57
 669 222 669 222 628.5 211.5 c 128,-1,58
 588 201 588 201 549 183 c 2,59,-1
 424 126 l 2,60,61
 310 78 310 78 223 48 c 0,62,63
 83 0 83 0 11 0 c 2,64,-1
 -9 0 l 1,65,-1
 -9 141 l 1,66,-1
 5 141 l 2,4,5
EndSplineSet
EndChar

StartChar: dalisolated
Encoding: 65193 65193 128
Width: 909
Flags: W
AnchorPoint: "ArabicBelow" 454 -263 basechar 0
AnchorPoint: "ArabicAbove" 454 910 basechar 0
LayerCount: 2
Fore
SplineSet
567 219 m 0,0,1
 567 113 567 113 456 50 c 0,2,3
 405 22 405 22 336.5 4.5 c 128,-1,4
 268 -13 268 -13 196 -13 c 0,5,6
 138 -13 138 -13 110.5 -4 c 128,-1,7
 83 5 83 5 77 31 c 1,8,-1
 77 63 l 2,9,10
 77 83 77 83 79 93 c 1,11,12
 79 107 79 107 79.5 115 c 128,-1,13
 80 123 80 123 81 127 c 2,14,-1
 84 146 l 1,15,-1
 91 168 l 1,16,-1
 115 156 l 1,17,-1
 152 144 l 1,18,-1
 190 138 l 1,19,-1
 229 135 l 2,20,21
 287 135 287 135 389 164 c 0,22,23
 505 199 505 199 505 240 c 0,24,25
 505 287 505 287 433 376 c 0,26,27
 362 465 362 465 298 488 c 1,28,-1
 298 611 l 1,29,-1
 300 639 l 2,30,31
 303 657 303 657 315 660 c 1,32,33
 364 660 364 660 454 537 c 0,34,35
 504 469 504 469 536 386 c 0,36,37
 567 306 567 306 567 219 c 0,0,1
EndSplineSet
EndChar

StartChar: dalfinal
Encoding: 65194 65194 129
Width: 815
Flags: W
AnchorPoint: "ArabicBelow" 407 -250 basechar 0
AnchorPoint: "ArabicAbove" 407 1079 basechar 0
LayerCount: 2
Fore
SplineSet
788 0 m 2,0,1
 710 0 710 0 662 42 c 0,2,3
 627 71 627 71 602 128 c 2,4,-1
 585 170 l 1,5,-1
 571 218 l 1,6,7
 549 180 549 180 519.5 146.5 c 128,-1,8
 490 113 490 113 448 80 c 0,9,10
 410 48 410 48 362.5 31.5 c 128,-1,11
 315 15 315 15 258 13 c 2,12,-1
 164 21 l 1,13,-1
 139 27 l 1,14,15
 111 40 111 40 95 55 c 1,16,17
 84 69 84 69 79 90 c 1,18,-1
 75 143 l 2,19,20
 75 183 75 183 81 219 c 0,21,22
 87 257 87 257 98 260 c 1,23,-1
 130 210 l 2,24,25
 160 159 160 159 294 159 c 0,26,27
 377 159 377 159 450 199 c 0,28,29
 539 250 539 250 539 338 c 2,30,-1
 531 450 l 1,31,-1
 522 534 l 1,32,-1
 496 662 l 2,33,34
 495 669 495 669 492.5 678 c 128,-1,35
 490 687 490 687 485 700 c 1,36,-1
 561 829 l 1,37,-1
 589 660 l 2,38,39
 606 522 606 522 615.5 448.5 c 128,-1,40
 625 375 625 375 629 364 c 2,41,42
 656 220 656 220 693 177 c 0,43,44
 720 141 720 141 784 141 c 2,45,-1
 823 141 l 1,46,-1
 823 0 l 1,47,-1
 788 0 l 2,0,1
EndSplineSet
EndChar

StartChar: thalisolated
Encoding: 65195 65195 130
Width: 924
Flags: W
AnchorPoint: "ArabicBelow" 462 -263 basechar 0
AnchorPoint: "ArabicAbove" 462 1349 basechar 0
LayerCount: 2
Fore
SplineSet
280 881 m 1,0,-1
 150 973 l 1,1,-1
 240 1099 l 1,2,-1
 360 1004 l 1,3,-1
 280 881 l 1,0,-1
567 219 m 0,4,5
 567 113 567 113 456 50 c 0,6,7
 405 22 405 22 336.5 4.5 c 128,-1,8
 268 -13 268 -13 196 -13 c 0,9,10
 138 -13 138 -13 110.5 -4 c 128,-1,11
 83 5 83 5 77 31 c 1,12,-1
 77 63 l 2,13,14
 77 83 77 83 79 93 c 1,15,16
 79 107 79 107 79.5 115 c 128,-1,17
 80 123 80 123 81 127 c 2,18,-1
 91 168 l 1,19,-1
 115 156 l 1,20,-1
 152 144 l 1,21,-1
 190 138 l 1,22,-1
 229 135 l 2,23,24
 287 135 287 135 389 164 c 0,25,26
 505 199 505 199 505 240 c 0,27,28
 505 287 505 287 433 376 c 0,29,30
 362 465 362 465 298 488 c 1,31,-1
 298 611 l 1,32,-1
 300 639 l 2,33,34
 303 657 303 657 315 660 c 1,35,36
 364 660 364 660 454 537 c 0,37,38
 504 469 504 469 536 386 c 0,39,40
 567 306 567 306 567 219 c 0,4,5
EndSplineSet
EndChar

StartChar: thalfinal
Encoding: 65196 65196 131
Width: 819
Flags: W
AnchorPoint: "ArabicBelow" 409 -250 basechar 0
AnchorPoint: "ArabicAbove" 409 1402 basechar 0
LayerCount: 2
Fore
SplineSet
523 934 m 1,0,-1
 393 1026 l 1,1,-1
 483 1152 l 1,2,-1
 603 1057 l 1,3,-1
 523 934 l 1,0,-1
788 0 m 2,4,5
 710 0 710 0 662 42 c 0,6,7
 627 71 627 71 602 128 c 2,8,-1
 585 170 l 1,9,-1
 571 218 l 1,10,11
 549 180 549 180 519.5 146.5 c 128,-1,12
 490 113 490 113 448 80 c 0,13,14
 410 48 410 48 362.5 31.5 c 128,-1,15
 315 15 315 15 258 13 c 2,16,-1
 164 21 l 1,17,-1
 139 27 l 1,18,19
 111 40 111 40 95 55 c 1,20,21
 84 69 84 69 79 90 c 1,22,-1
 75 143 l 2,23,24
 75 183 75 183 81 219 c 0,25,26
 87 257 87 257 98 260 c 1,27,-1
 130 210 l 2,28,29
 160 159 160 159 294 159 c 0,30,31
 377 159 377 159 450 199 c 0,32,33
 539 250 539 250 539 338 c 2,34,-1
 531 450 l 1,35,-1
 522 534 l 2,36,37
 512 585 512 585 505.5 615 c 128,-1,38
 499 645 499 645 495 662 c 128,-1,39
 491 679 491 679 489 686.5 c 128,-1,40
 487 694 487 694 485 700 c 1,41,-1
 561 829 l 1,42,-1
 589 660 l 2,43,44
 606 522 606 522 615.5 448.5 c 128,-1,45
 625 375 625 375 629 364 c 2,46,47
 656 220 656 220 693 177 c 0,48,49
 720 141 720 141 784 141 c 2,50,-1
 823 141 l 1,51,-1
 823 0 l 1,52,-1
 788 0 l 2,4,5
EndSplineSet
EndChar

StartChar: rehisolated
Encoding: 65197 65197 132
Width: 715
Flags: W
AnchorPoint: "ArabicBelow" 357 -612 basechar 0
AnchorPoint: "ArabicAbove" 357 696 basechar 0
LayerCount: 2
Fore
SplineSet
638 148 m 0,0,1
 638 -42 638 -42 503 -208 c 0,2,3
 376 -362 376 -362 249 -362 c 0,4,5
 219 -362 219 -362 174 -346.5 c 128,-1,6
 129 -331 129 -331 66 -299 c 0,7,8
 -55 -236 -55 -236 -55 -212 c 0,9,10
 -55 -196 -55 -196 -42 -196 c 0,11,12
 -34 -196 -34 -196 38 -232 c 0,13,14
 104 -271 104 -271 141 -271 c 0,15,16
 287 -271 287 -271 446 -124 c 0,17,18
 587 8 587 8 587 99 c 0,19,20
 587 120 587 120 575.5 149 c 128,-1,21
 564 178 564 178 538 212 c 2,22,-1
 468 302 l 1,23,-1
 505 446 l 1,24,25
 550 413 550 413 601 299 c 0,26,27
 638 219 638 219 638 148 c 0,0,1
EndSplineSet
EndChar

StartChar: rehfinal
Encoding: 65198 65198 133
Width: 673
Flags: W
AnchorPoint: "ArabicBelow" 336 -746 basechar 0
AnchorPoint: "ArabicAbove" 336 521 basechar 0
LayerCount: 2
Fore
SplineSet
618 0 m 1,0,1
 600 -94 600 -94 552 -199 c 0,2,3
 545 -215 545 -215 535.5 -234.5 c 128,-1,4
 526 -254 526 -254 513 -279 c 0,5,6
 506 -293 506 -293 495 -310 c 128,-1,7
 484 -327 484 -327 468 -347 c 0,8,9
 366 -496 366 -496 207 -496 c 0,10,11
 154 -496 154 -496 31 -421 c 0,12,13
 -70 -358 -70 -358 -70 -321 c 0,14,15
 -70 -317 -70 -317 -68.5 -314 c 128,-1,16
 -67 -311 -67 -311 -59 -306 c 1,17,18
 -47 -306 -47 -306 -20 -324 c 0,19,20
 83 -396 83 -396 102 -399 c 1,21,22
 161 -399 161 -399 243 -367 c 0,23,24
 322 -334 322 -334 373 -289 c 2,25,-1
 429 -232 l 1,26,-1
 477 -177 l 2,27,28
 507 -141 507 -141 522 -108 c 2,29,-1
 538 -55 l 1,30,31
 538 13 538 13 501 53 c 2,32,-1
 428 137 l 1,33,-1
 483 271 l 1,34,-1
 587 157 l 1,35,36
 609 141 609 141 645 141 c 2,37,-1
 686 141 l 1,38,-1
 686 0 l 1,39,-1
 618 0 l 1,0,1
EndSplineSet
EndChar

StartChar: zainisolated
Encoding: 65199 65199 134
Width: 715
Flags: W
AnchorPoint: "ArabicBelow" 357 -612 basechar 0
AnchorPoint: "ArabicAbove" 357 1151 basechar 0
LayerCount: 2
Fore
SplineSet
455 684 m 1,0,-1
 325 775 l 1,1,-1
 415 901 l 1,2,-1
 536 806 l 1,3,-1
 455 684 l 1,0,-1
638 148 m 0,4,5
 638 -42 638 -42 503 -208 c 0,6,7
 376 -362 376 -362 249 -362 c 0,8,9
 219 -362 219 -362 174 -346.5 c 128,-1,10
 129 -331 129 -331 66 -299 c 0,11,12
 -55 -236 -55 -236 -55 -212 c 0,13,14
 -55 -196 -55 -196 -42 -196 c 0,15,16
 -34 -196 -34 -196 38 -232 c 0,17,18
 104 -271 104 -271 141 -271 c 0,19,20
 287 -271 287 -271 446 -124 c 0,21,22
 587 8 587 8 587 99 c 0,23,24
 587 120 587 120 575.5 149 c 128,-1,25
 564 178 564 178 538 212 c 2,26,-1
 468 302 l 1,27,-1
 505 446 l 1,28,29
 550 413 550 413 601 299 c 0,30,31
 638 219 638 219 638 148 c 0,4,5
EndSplineSet
EndChar

StartChar: zainfinal
Encoding: 65200 65200 135
Width: 673
Flags: W
AnchorPoint: "ArabicBelow" 336 -746 basechar 0
AnchorPoint: "ArabicAbove" 336 957 basechar 0
LayerCount: 2
Fore
SplineSet
468 507 m 1,0,-1
 313 594 l 1,1,-1
 376 707 l 1,2,-1
 534 622 l 1,3,-1
 468 507 l 1,0,-1
618 0 m 1,4,5
 600 -94 600 -94 552 -199 c 0,6,7
 545 -215 545 -215 535.5 -234.5 c 128,-1,8
 526 -254 526 -254 513 -279 c 0,9,10
 506 -293 506 -293 495 -310 c 128,-1,11
 484 -327 484 -327 468 -347 c 0,12,13
 366 -496 366 -496 207 -496 c 0,14,15
 154 -496 154 -496 31 -421 c 0,16,17
 -70 -358 -70 -358 -70 -321 c 0,18,19
 -70 -317 -70 -317 -68.5 -314 c 128,-1,20
 -67 -311 -67 -311 -59 -306 c 1,21,22
 -47 -306 -47 -306 -20 -324 c 0,23,24
 83 -396 83 -396 102 -399 c 1,25,26
 161 -399 161 -399 243 -367 c 0,27,28
 322 -334 322 -334 373 -289 c 2,29,-1
 429 -232 l 1,30,-1
 477 -177 l 2,31,32
 507 -141 507 -141 522 -108 c 2,33,-1
 538 -55 l 1,34,35
 538 13 538 13 501 53 c 2,36,-1
 428 137 l 1,37,-1
 483 271 l 1,38,-1
 587 157 l 1,39,40
 609 141 609 141 645 141 c 2,41,-1
 686 141 l 1,42,-1
 686 0 l 1,43,-1
 618 0 l 1,4,5
EndSplineSet
EndChar

